<?xml version="1.0" encoding="UTF-8" standalone="no"?>
<svg
   width="324.24719pt"
   height="84.678123pt"
   viewBox="0 0 324.2472 84.678123"
   version="1.2"
   id="svg147"
   sodipodi:docname="puntoDiAccumulazione.svg"
   inkscape:version="1.1.2 (0a00cf5339, 2022-02-04, custom)"
   xmlns:inkscape="http://www.inkscape.org/namespaces/inkscape"
   xmlns:sodipodi="http://sodipodi.sourceforge.net/DTD/sodipodi-0.dtd"
   xmlns="http://www.w3.org/2000/svg"
   xmlns:svg="http://www.w3.org/2000/svg">
  <defs
     id="defs151" />
  <sodipodi:namedview
     id="namedview149"
     pagecolor="#505050"
     bordercolor="#ffffff"
     borderopacity="1"
     inkscape:pageshadow="0"
     inkscape:pageopacity="0"
     inkscape:pagecheckerboard="1"
     inkscape:document-units="pt"
     showgrid="false"
     fit-margin-top="0"
     fit-margin-left="0"
     fit-margin-right="0"
     fit-margin-bottom="0"
     inkscape:zoom="0.56123737"
     inkscape:cx="173.72329"
     inkscape:cy="498.89764"
     inkscape:window-width="2560"
     inkscape:window-height="1389"
     inkscape:window-x="0"
     inkscape:window-y="28"
     inkscape:window-maximized="1"
     inkscape:current-layer="svg147" />
  <g
     id="surface32820"
     transform="translate(-127.2325,-46.235156)">
    <path
       style="fill:none;stroke:#2ec27d;stroke-width:1.41;stroke-linecap:round;stroke-linejoin:round;stroke-miterlimit:10;stroke-opacity:1"
       d="M 127.9375,84.148438 H 354.37891"
       id="path2" />
    <path
       style="fill:none;stroke:#2ec27d;stroke-width:1.41;stroke-linecap:round;stroke-linejoin:round;stroke-miterlimit:10;stroke-opacity:1"
       d="M 212.19922,92.414062 V 80.835938"
       id="path4" />
    <path
       style="fill:none;stroke:#2ec27d;stroke-width:1.41;stroke-linecap:round;stroke-linejoin:round;stroke-miterlimit:10;stroke-opacity:1"
       d="M 241.03516,91.117188 V 79.691406"
       id="path6" />
    <path
       style="fill:none;stroke:#2ec27d;stroke-width:1.41;stroke-linecap:round;stroke-linejoin:round;stroke-miterlimit:10;stroke-opacity:1"
       d="m 210.20312,101.83203 -0.35156,-0.043 -0.32031,-0.13281 -0.26563,-0.17578 -0.26562,-0.21875 -0.0586,-0.35547 -0.20313,-0.21875 -0.14844,-0.26172 0.0586,-0.30859 -0.0586,-0.355471 v -0.351563 l 0.0898,-0.308594 0.0859,-0.328124 0.11719,-0.332032 0.20703,-0.285156 0.20313,-0.242188 0.32422,-0.195312 0.32422,-0.113281 0.32031,-0.06641 h 0.4414 l 0.38282,0.06641 0.35156,0.132812 0.29297,0.265625 0.26562,0.175782 0.26172,0.21875 0.32422,0.199218 0.17578,0.265625 0.11719,0.417969 0.11719,0.285156 0.14843,0.261719 0.17579,0.375005 0.0586,0.35156 v 0.35156 l -0.0586,0.39844 -0.11719,0.375 -0.14844,0.37109 -0.0586,0.3086 -0.14844,0.26562 -0.20313,0.21875 -0.17578,0.26563 -0.23437,0.26171 -0.20703,0.22266 -0.20703,0.21875 -0.20313,0.24219 -0.29297,0.28515 -0.26562,0.22266 -0.32032,0.13281 -0.29687,0.12891 -0.32031,0.10937 -0.32422,0.11329 -0.35156,0.15234 -0.41016,0.0234 -0.58594,0.13281 -0.35547,0.043 0.32422,0.043 0.26563,0.17578 0.32031,0.0898 0.32422,0.12891 0.32422,0.13281 0.41015,0.17578 0.35157,0.17578 0.29296,0.0898 0.41016,0.10937 0.35156,0.10938 0.32422,0.13281 0.38281,0.0898 0.37891,0.0195 0.44141,0.0234 h 0.4414 l 0.41016,0.043 h 0.99609 l 0.35157,-0.043 0.32421,-0.043 0.29297,-0.0664 0.26563,-0.17578 -0.23438,-0.19922"
       id="path8" />
    <path
       style="fill:none;stroke:#2ec27d;stroke-width:1.41;stroke-linecap:round;stroke-linejoin:round;stroke-miterlimit:10;stroke-opacity:1"
       d="m 238.08203,99.894531 v -0.308593 l -0.0898,-0.304688 0.35156,-0.53125 0.26562,-0.21875 0.23438,-0.199219 0.29297,-0.109375 0.38281,-0.06641 h 0.70313 l 0.35156,0.06641 0.29297,0.109375 0.38281,0.175781 0.29297,0.06641 0.35156,0.132812 0.29297,0.242188 0.23437,0.242187 0.23829,0.21875 -0.0586,0.332032 -0.14844,0.328119 -0.20703,0.26563 -0.20312,0.21875 -0.29297,0.22265 -0.32422,0.12891 -0.32422,0.15625 -0.32031,0.15234 -0.41016,0.0469 -0.38281,-0.0234 -0.41016,-0.0234 0.32032,-0.043 0.38281,0.13281 0.35156,0.17578 0.29297,0.13281 0.29297,0.17578 0.32422,0.17578 0.38281,0.24219 0.29297,0.26172 0.29297,0.28906 0.26562,0.26172 0.20313,0.33203 0.20703,0.28516 0.20312,0.26562 v 0.32813 l -0.0586,0.375 -0.0859,0.35156 -0.20703,0.33203 -0.17578,0.26172 -0.26172,0.24219 -0.41406,0.17578 -0.35156,0.19922 -0.29297,0.10937 -0.38281,0.0664 -0.32032,0.0234 -0.35156,0.043 h -0.32422 l -0.38281,-0.043 h -0.41016 l -0.32031,-0.0469 -0.32422,-0.043 -0.29297,-0.0859"
       id="path10" />
    <path
       style="fill:none;stroke:#2ec27d;stroke-width:1.41;stroke-linecap:round;stroke-linejoin:round;stroke-miterlimit:10;stroke-opacity:1"
       d="M 297.33594,80.535156 V 90.742188"
       id="path12" />
    <path
       style="fill:none;stroke:#2ec27d;stroke-width:1.41;stroke-linecap:round;stroke-linejoin:round;stroke-miterlimit:10;stroke-opacity:1"
       d="m 299.49609,98.089844 -0.29297,-0.109375 -0.29296,-0.152344 -0.32422,-0.04687 -0.29297,-0.128906 -0.37891,-0.02344 -0.32422,-0.02344 -0.38281,-0.06641 -0.32031,-0.0625 -0.35547,-0.04687 -0.37891,-0.06641 -0.38281,-0.06641 -0.32031,-0.01953 -0.29688,-0.08984 -0.32031,-0.06641 0.14453,0.332031 0.0899,0.417969 0.0273,0.308594 0.0312,0.328124 0.0273,0.375 v 0.351563 l 0.0899,0.332031 -0.0312,0.417969 -0.0274,0.30859 0.17578,0.32812 -0.17578,0.26563 0.20703,-0.26563 0.29297,-0.10937 0.32032,-0.0664 0.41015,-0.0664 0.29688,0.0664 0.35156,0.0898 0.29297,0.0859 0.32031,0.17579 0.35547,0.24218 0.26172,0.19922 0.26562,0.17578 0.26172,0.28517 0.20703,0.24218 0.20703,0.33203 0.17579,0.375 0.0859,0.32812 0.0312,0.3086 -0.0312,0.30859 v 0.35156 l -0.0859,0.3086 -0.17579,0.35157 -0.26562,0.21875 -0.35156,0.53125 -0.32422,0.19531 -0.37891,0.0898 -0.41406,0.0664 -0.35156,0.0859 -0.35157,0.0234 -0.41015,-0.0234 -0.44141,-0.043 -0.35156,-0.043 -0.32422,-0.0898 -0.20312,-0.21875"
       id="path14" />
    <path
       style="fill:#ffff00;fill-opacity:0.501961;fill-rule:nonzero;stroke:#ffff00;stroke-width:0.85;stroke-linecap:round;stroke-linejoin:round;stroke-miterlimit:10;stroke-opacity:1"
       d="m 217.86328,82.203125 -0.29297,-0.06641 -0.29297,-0.08984 -0.32422,-0.01953 -0.29296,-0.06641 h -0.32422 l -0.29297,-0.06641 -0.35156,-0.02344 -0.32422,-0.06641 -0.29297,0.06641 h -1.02735 l -0.29296,0.06641 -0.32032,0.02344 -0.32422,0.01953 -0.32421,0.08984 -0.29297,0.08594 -0.32032,0.132812 -0.32421,0.132813 -0.26563,0.175781 -0.26172,0.175782 -0.29297,0.175781 -0.23437,0.21875 0.11719,0.289062 0.0273,0.351563 0.11719,0.351562 0.0586,0.332032 v 0.304687 l 0.23438,0.265625 -0.0273,0.308594 0.23438,0.199218 0.0859,0.328126 0.23829,0.21875 0.23437,0.222656 0.26172,0.195312 0.32422,0.113282 0.29297,0.175781 0.35156,0.06641 0.32422,0.152344 0.32031,0.04297 0.32422,0.06641 0.29297,0.06641 0.35156,0.04297 0.35156,0.04687 0.35547,0.04297 0.35156,0.04297 H 216.75 l 0.35156,0.04297 h 1.81641 l 0.35547,-0.01953 0.3789,0.01953 0.35157,-0.01953 0.41015,-0.02344 h 0.67578 l 0.35157,-0.06641 0.41406,-0.01953 0.32031,-0.04687 0.35156,-0.01953 0.29297,-0.06641 0.32422,-0.02344 h 0.35156 l 0.29297,-0.06641 0.35547,0.04687 0.37891,-0.04687 0.35156,0.04687 h 1 l 0.32031,0.01953 h 0.32422 l 0.32422,-0.01953 0.35156,0.04297 0.32031,-0.04297 0.32422,0.109376 h 0.32422 l 0.32031,0.01953 h 0.32422 l 0.35157,0.04687 h 0.32421 l 0.32032,0.01953 0.32422,0.02344 0.32421,0.06641 h 0.32032 l 0.29297,0.06641 0.35156,0.01953 h 0.32422 l 0.35156,0.02344 h 0.35156 l 0.38281,0.04297 h 0.32422 l 0.32032,0.02344 0.29296,-0.06641 0.32422,0.04297 0.32422,-0.04297 0.32031,-0.02344 h 0.38282 l 0.32422,-0.01953 0.32031,-0.08984 0.64844,-0.08594 0.32031,-0.08984 0.32422,-0.06641 0.29297,-0.109375 0.29296,-0.08594 0.29297,-0.15625 0.32422,-0.152343 0.29297,-0.175782 0.29297,-0.132812 0.26562,-0.175782 0.26172,-0.175781 0.32422,-0.15625 0.29297,-0.199219 0.23438,-0.21875 0.20703,-0.261718 0.20312,-0.222656 0.20703,-0.21875 0.23438,-0.199219 0.14453,-0.261719 0.23828,-0.242188 v -0.308593 l 0.0859,-0.308594 -0.14453,-0.265625 -0.20703,-0.261719 -0.0898,-0.308593 -0.20312,-0.265626 -0.26563,-0.175781 -0.20312,-0.21875 -0.29297,-0.175781 -0.26563,-0.175781 -0.35156,-0.04687 -0.29297,-0.128906 -0.29297,-0.08984 -0.32422,-0.04297 h -0.32421 l -0.32032,-0.04687 -0.32422,0.04687 -0.32421,-0.04687 -0.32032,0.04687 -0.35156,-0.04687 h -0.38281 l -0.32422,0.04687 -0.29297,-0.06641 -0.32031,0.01953 h -0.64844 l -0.32031,0.04687 -0.38281,0.01953 -0.35157,0.02344 -0.29297,0.06641 h -0.32421 l -0.29297,0.06641 h -0.35157 l -0.32421,0.01953 -0.32032,0.02344 h -0.35547 l -0.32031,0.04297 -0.38281,0.02344 -0.32031,0.02344 h -0.64844 l -0.32031,0.04297 h -0.70703 l -0.32032,0.01953 -0.35156,-0.01953 h -0.32422 l -0.32422,-0.04297 -0.32031,0.04297 h -0.64844 l -0.32031,0.01953 h -0.35156 l -0.32422,0.02344 -0.35156,-0.02344 h -0.38282 l -0.32031,0.02344 h -0.35547 l -0.32031,-0.02344 -0.32422,0.02344 L 223,81.671875 h -0.35547 L 222.32422,81.71875 222,81.761719 h -0.32031 l -0.38282,0.02344 h -0.41015 l -0.29297,0.0625 -0.32422,-0.04297 h -0.35156 l -0.32422,-0.01953 -0.32031,0.01953 h -0.70703 l -0.58594,0.132812 -0.29297,0.08984 -0.32422,0.04297 -0.32031,0.04297 -0.26563,0.175781 -0.35156,0.02344 -0.32422,0.08594"
       id="path16" />
    <path
       style="fill:#ffff00;fill-opacity:0.501961;fill-rule:nonzero;stroke:#ffff00;stroke-width:0.85;stroke-linecap:round;stroke-linejoin:round;stroke-miterlimit:10;stroke-opacity:1"
       d="m 300.23437,84.109375 -0.0898,0.671875 -0.25781,0.632812 -0.41797,0.539063 -0.53906,0.414063 -0.62891,0.261718 -0.67578,0.08984 -0.67578,-0.08984 -0.62891,-0.261718 -0.53906,-0.414063 -0.41406,-0.539063 -0.26172,-0.632812 -0.0899,-0.671875 0.0899,-0.675781 0.26172,-0.628906 0.41406,-0.542969 0.53906,-0.414063 0.62891,-0.261718 0.67578,-0.08594 0.67578,0.08594 0.62891,0.261718 0.53906,0.414063 0.41797,0.542969 0.25781,0.628906 0.0898,0.675781"
       id="path18" />
    <path
       style="fill:none;stroke:#ffff00;stroke-width:0.85;stroke-linecap:round;stroke-linejoin:round;stroke-miterlimit:10;stroke-opacity:1"
       d="m 228.54297,72.519531 -0.11719,-0.308593 -0.26172,-0.175782 -0.32422,-0.04687 -0.26562,-0.152343 -0.32031,-0.08984 -0.29297,-0.109375 -0.32422,-0.04297 -0.35156,-0.02344 h -0.35157 l -0.41015,-0.01953 -0.32422,0.01953 -0.35156,0.02344 -0.35157,0.06641 -0.32422,0.08594 -0.35156,0.15625 -0.32422,0.08594 -0.26172,0.222657 -0.32421,0.152343 -0.29297,0.199219 -0.14844,0.265625 -0.29297,0.152344 -0.20312,0.242187 -0.14844,0.265625 -0.11719,0.304688 -0.20703,0.242187 0.0586,0.332032 -0.0273,0.308593 0.11719,0.351563 0.0898,0.328125 0.20313,0.289062 0.0312,0.328125 0.26171,0.175782 0.17579,0.265624 0.29296,0.152344 0.26563,0.199219 0.23437,0.199219 0.29297,0.175781 0.32422,0.152344 0.29297,0.15625 0.29297,0.08594 0.32422,0.08984 0.29297,0.08594 0.38281,0.02344 0.29297,0.06641 h 0.32031 l 0.35156,0.01953 0.29688,-0.0625 0.35156,-0.02344 h 0.32031 l 0.32422,0.02344 0.35156,0.0625 0.32422,-0.0625 0.32032,-0.02344 0.35546,-0.02344 0.32032,-0.04297 0.32422,-0.02344 0.32031,-0.109375"
       id="path20" />
    <path
       style="fill:none;stroke:#ffff00;stroke-width:0.85;stroke-linecap:round;stroke-linejoin:round;stroke-miterlimit:10;stroke-opacity:1"
       d="m 197.73437,50.554688 0.29297,-0.132813 0.17578,-0.261719 -0.11718,-0.308594 -0.20703,-0.222656 -0.26172,-0.21875 -0.29297,-0.132812 -0.29688,-0.132813 -0.29297,-0.128906 -0.32031,-0.08984 -0.29297,-0.152343 -0.29687,-0.06641 -0.35156,-0.08984 -0.35157,-0.04297 -0.32031,0.02344 -0.29687,-0.113281 -0.35157,0.04687 -0.29297,0.08594 h -0.35156 L 193.125,48.75 l -0.32031,0.175781 -0.32422,0.08984 -0.35156,0.128906 -0.29297,0.15625 -0.26563,0.152344 -0.23437,0.199219 -0.29297,0.242187 -0.14844,0.285157 -0.20312,0.265624 -0.0898,0.351563 -0.17578,0.265625 0.11719,0.328125 -0.0859,0.351563 -0.0586,0.308593 0.0273,0.332031 0.0312,0.351563 0.11719,0.351563 0.11719,0.285156 0.29296,0.242187 0.0898,0.332031 0.26172,0.175782 0.23437,0.195312 0.29297,0.242188 0.32422,0.175781 0.29297,0.132813 0.32422,0.08984 0.29297,0.132813 0.32421,0.01953 0.32032,0.06641 0.29297,0.109375 0.38281,0.02344 0.32422,0.04297 0.35156,0.02344 h 0.73047 l 0.29687,-0.06641"
       id="path22" />
    <path
       style="fill:none;stroke:#ffff00;stroke-width:0.85;stroke-linecap:round;stroke-linejoin:round;stroke-miterlimit:10;stroke-opacity:1"
       d="m 201.72266,56.144531 0.20703,-0.242187 0.32422,-0.08984 0.3789,-0.0625 0.35156,-0.04687"
       id="path24" />
    <path
       style="fill:none;stroke:#ffff00;stroke-width:0.85;stroke-linecap:round;stroke-linejoin:round;stroke-miterlimit:10;stroke-opacity:1"
       d="m 201.37109,53.679688 2.17188,-0.332032"
       id="path26" />
    <path
       style="fill:none;stroke:#ffff00;stroke-width:0.85;stroke-linecap:round;stroke-linejoin:round;stroke-miterlimit:10;stroke-opacity:1"
       d="m 213.22656,48.242188 0.0312,0.332031 -0.11719,0.285156 0.11719,0.285156 -0.0898,0.332031 -0.17578,0.375 -0.0312,0.308594 0.0312,0.351563 -0.0312,0.394531 -0.0273,0.441406 -0.0898,0.394532 -0.11719,0.375 -0.0859,0.417968 -0.0586,0.375 -0.0312,0.417969 -0.0586,0.375 -0.0273,0.417969 -0.0312,0.308594 -0.0586,0.304687 -0.0859,0.398437 -0.0586,0.351563 -0.0312,0.328125 v 0.332031 l -0.0586,0.351563 -0.0586,0.308594 0.0586,0.308593 h 0.64454 l 0.32421,0.02344 h 1.46875 l 0.32032,-0.08984 L 215.25,56.9375 h 0.35547 l 0.29297,-0.06641 0.32031,-0.02344 -0.32031,-0.04297"
       id="path28" />
    <path
       style="fill:none;stroke:#ffff00;stroke-width:0.85;stroke-linecap:round;stroke-linejoin:round;stroke-miterlimit:10;stroke-opacity:1"
       d="m 214.37891,48.363281 h 2.30859"
       id="path30" />
    <path
       style="fill:none;stroke:#ffff00;stroke-width:0.85;stroke-linecap:round;stroke-linejoin:round;stroke-miterlimit:10;stroke-opacity:1"
       d="m 218.77344,51.964844 -0.14844,-0.308594 -0.0586,-0.308594 0.0898,-0.308594 0.32031,-0.132812 0.32422,0.132812 0.29297,0.109376 0.29297,0.199218 0.23437,0.261719 0.20703,0.222656 0.11719,0.285157 0.0898,0.328124 -0.0312,0.355469 -0.0586,0.351563 -0.17578,0.351562 -0.20703,0.285156 -0.20313,0.265626 -0.11718,0.328124 -0.17578,0.265626 -0.32422,0.261718 -0.23438,0.265625 -0.26562,0.21875 -0.20313,0.222657 0.29297,-0.175782 0.32031,0.01953 0.32422,-0.01953 0.32422,-0.06641 h 0.32031 l 0.32422,-0.06641 0.32422,-0.04297 0.37891,0.04297"
       id="path32" />
    <path
       style="fill:none;stroke:#ffff00;stroke-width:0.85;stroke-linecap:round;stroke-linejoin:round;stroke-miterlimit:10;stroke-opacity:1"
       d="m 224.02344,55.484375 -0.11719,0.308594 -0.0273,0.308593 -0.32422,0.21875 -0.0859,0.351563 -0.0898,0.375 -0.29297,0.285156 -0.11719,0.351563 -0.14844,0.308594"
       id="path34" />
    <path
       style="fill:none;stroke:#ffff00;stroke-width:0.85;stroke-linecap:round;stroke-linejoin:round;stroke-miterlimit:10;stroke-opacity:1"
       d="m 226.01953,51.480469 -0.0273,-0.308594 0.14453,-0.265625 0.20703,-0.265625 0.29297,-0.08594 0.26562,0.152343 0.23438,0.199219 0.14453,0.308594 0.0312,0.351562 -0.11719,0.308594 -0.14844,0.308594 -0.17578,0.261718 -0.17578,0.265626 -0.26562,0.175781 -0.23438,0.199219 -0.29297,0.06641 0.26563,-0.15625 0.29297,0.06641 0.32422,0.109375 0.32031,0.175781 0.26562,0.199219 0.20313,0.265625 0.17578,0.261719 0.0898,0.332031 -0.0586,0.351562 -0.17578,0.265626 -0.11719,0.351562 -0.0898,0.351562 -0.23438,0.242188 -0.41015,0.199219 -0.23438,0.261719 -0.32422,0.199218 -0.32031,0.04297 -0.38281,0.04297 -0.38282,-0.01953 -0.29296,-0.08984 -0.20313,-0.242188"
       id="path36" />
    <path
       style="fill:none;stroke:#ffff00;stroke-width:0.85;stroke-linecap:round;stroke-linejoin:round;stroke-miterlimit:10;stroke-opacity:1"
       d="m 230.48047,46.660156 0.32422,0.01953 0.32031,0.15625 0.29297,0.06641 0.29687,0.109375 0.32032,0.08594 0.32421,0.06641 0.32032,0.132813 0.32422,-0.01953 0.29296,0.08594 -0.11718,0.285157 -0.0273,0.332031 -0.17578,0.328125 -0.11719,0.351562 -0.0898,0.441406 -0.0586,0.375 -0.11719,0.285157 -0.0586,0.441406 -0.11719,0.617187 -0.0586,0.304688 v 0.640625 l 0.0273,0.441406 -0.0586,0.328125 -0.11718,0.617188 -0.0273,0.308594 0.0273,0.328124 0.0898,0.332032 -0.0586,0.460937 -0.0312,0.441407 -0.0859,0.371093 0.0586,0.308594 v 0.351563 l 0.0586,0.355468 v 0.304688 l -0.32422,-0.01953 -0.29297,0.08594 -0.35156,0.06641 -0.32422,0.02344 -0.29297,0.06641 -0.32031,0.04297 -0.35547,0.06641 h -0.32031 l -0.29297,-0.06641"
       id="path38" />
    <path
       style="fill:none;stroke:#ffff00;stroke-width:0.85;stroke-linecap:round;stroke-linejoin:round;stroke-miterlimit:10;stroke-opacity:1"
       d="m 242.12891,51.324219 -0.26172,0.15625 -0.0898,0.351562 v 0.375 l -0.0586,0.371094 0.0312,0.351563 v 0.332031 l 0.0586,0.328125 0.14453,0.265625 0.11719,0.375 0.17578,0.285156 0.20703,0.332031 0.20704,0.242188 0.29296,0.285156 0.32032,0.242188 0.26562,0.175781 0.29297,0.08594 h 0.38281 l 0.32032,-0.06641 0.29296,-0.238281 0.35547,-0.199219 0.32032,-0.242188 0.20703,-0.285156 0.11718,-0.355468 0.23438,-0.328126 0.20703,-0.285156 0.14453,-0.332031 0.11719,-0.285156 0.0898,-0.351563 0.11719,-0.351562 0.0273,-0.375 -0.0586,-0.308594 -0.0859,-0.351562 -0.32422,0.04297"
       id="path40" />
    <path
       style="fill:none;stroke:#ffff00;stroke-width:0.85;stroke-linecap:round;stroke-linejoin:round;stroke-miterlimit:10;stroke-opacity:1"
       d="m 255.51172,48.175781 -0.0586,-0.304687 -0.20703,-0.222656 -0.23437,-0.195313 -0.29297,-0.113281 -0.32422,-0.0625 h -0.32031 l -0.32422,0.109375 -0.29297,0.175781 -0.20703,0.242188 -0.14453,0.285156 -0.17578,0.328125 -0.11719,0.289062 0.0586,0.328125 -0.0586,0.332032 0.0586,0.308593 0.0586,0.328125 -0.0898,0.351563 -0.17578,0.265625 -0.29297,0.109375 -0.32422,-0.04297 0.23438,0.21875 0.20703,0.265625 0.14844,0.308594 0.26172,0.261719 0.0586,0.351562 0.14844,0.289062 0.0273,0.328126 -0.17578,0.285156 -0.11719,0.351562 v 0.355469 l -0.11718,0.285156 v 0.394531 l -0.0859,0.375 v 0.703126 l -0.11719,0.289062 0.23438,0.304688 0.0273,0.308593 0.29297,0.15625 0.26562,0.242188 0.29297,0.109375 0.29297,0.152344 0.35156,0.04687 0.29297,-0.113281 0.17578,-0.261719 -0.0586,-0.351562"
       id="path42" />
    <path
       style="fill:none;stroke:#ffff00;stroke-width:0.85;stroke-linecap:round;stroke-linejoin:round;stroke-miterlimit:10;stroke-opacity:1"
       d="m 257.97656,51.214844 0.29297,-0.132813 0.32422,-0.04297 0.32031,0.02344 0.35156,0.0625 0.32422,0.02344 0.29297,0.06641 h 0.38281 l -0.29296,-0.08984 -0.32422,-0.08594 -0.32422,-0.08984 h -0.32031 l -0.29297,-0.08594 -0.29688,0.08594 -0.35156,0.04687 -0.23438,0.21875 -0.20312,0.21875 -0.26563,0.242187 v 0.332031 l 0.0312,0.308594 0.14454,0.261719 0.32421,0.132813 0.23438,0.199218 0.29297,0.06641 0.32422,0.175782 0.29297,0.08594 0.32031,0.132813 0.29297,0.06641 0.29687,0.152344 0.29297,0.199218 0.29297,0.109376 0.17578,0.265624 0.23438,0.21875 0.0586,0.308594 -0.0586,0.332032 -0.14844,0.285156 -0.0274,0.308594 -0.29296,0.195312 -0.26563,0.15625 -0.32031,0.132812 h -0.38281 l -0.35157,-0.02344 -0.32422,-0.175781 -0.26171,-0.152344 -0.29688,-0.199219 -0.20312,-0.242187"
       id="path44" />
    <path
       style="fill:none;stroke:#ffff00;stroke-width:0.85;stroke-linecap:round;stroke-linejoin:round;stroke-miterlimit:10;stroke-opacity:1"
       d="m 263.375,47.472656 -0.14844,-0.261718 0.23828,-0.222657 0.35157,0.04687 0.32031,0.152344 0.29297,0.152344 0.35547,0.113281 0.23437,0.242187 0.23438,0.21875 0.11718,0.308594 0.0274,0.308594 -0.0859,0.308594 -0.14844,0.285156 -0.11719,0.351562 -0.17578,0.265626 -0.14453,0.328124 -0.0312,0.351563 -0.17578,0.351563 -0.20703,0.289062 0.11719,0.371094 -0.0586,0.332031 0.0586,0.328125 0.14843,0.265625 0.17579,0.265625 0.23437,0.195312 0.23438,0.199219 0.29296,0.08984 0.29297,0.128906 0.35547,0.02344 -0.29297,-0.08984 -0.29687,-0.0625 h -0.35156 l -0.29297,0.08594 -0.20313,0.21875 -0.26562,0.222657 0.0586,0.308593 -0.17578,0.304688 0.11719,0.332031 0.0586,0.328125 0.0586,0.375 0.11719,0.332032 0.0899,0.375 0.0273,0.328124 0.0312,0.308594 0.0586,0.308594 -0.0312,0.308594 -0.0859,0.308594 -0.17969,0.304687 -0.20313,0.242187 -0.26562,0.199219 -0.35156,0.08984 -0.29297,0.06641 -0.29297,0.0625 0.38281,0.132813"
       id="path46" />
    <path
       style="fill:#ff0000;fill-opacity:0.501961;fill-rule:nonzero;stroke:#ff0000;stroke-width:0.85;stroke-linecap:round;stroke-linejoin:round;stroke-miterlimit:10;stroke-opacity:1"
       d="m 300.02344,80.042969 h -0.32032 l -0.29296,0.08984 -0.29297,0.06641 -0.29688,0.06641 -0.32031,0.01953 -0.32422,0.02344 h -0.32031 l -0.32422,0.04297 -0.32422,0.02344 -0.29297,0.08984 -0.29297,-0.06641 -0.32422,0.04297 -0.32031,-0.04297 -0.32422,-0.02344 -0.35156,0.06641 -0.29297,-0.06641 -0.32422,-0.02344 h -0.67578 l -0.32031,-0.04297 -0.32422,0.04297 h -0.96875 l -0.29297,0.08984 -0.32031,0.04297 -0.20703,0.21875 -0.23438,0.222656 -0.14843,0.261719 -0.14454,0.308594 -0.0898,0.308594 0.0312,0.308593 0.0586,0.351563 0.11719,0.285156 0.29297,0.15625 0.29297,0.132812 0.32422,0.06641 0.29297,0.08594 0.29297,0.109375 0.29296,0.08984 0.32422,0.04297 0.35157,0.04297 0.29296,0.06641 0.32422,0.02344 0.29297,0.08594 h 0.70313 l 0.32422,-0.01953 0.32031,-0.08984 0.32422,-0.01953 0.32031,-0.04688 h 0.32422 l 0.35156,-0.01953 0.32422,-0.02344 0.32422,0.02344 0.29297,0.06641 0.29297,-0.06641 h 0.35156 l 0.38281,-0.02344 0.32031,0.02344 0.35157,-0.02344 h 0.32421 l 0.35157,-0.04297 0.29297,0.08594 0.35156,-0.01953 0.32422,-0.02344 h 0.64453 l 0.32422,-0.04297 0.32422,-0.02344 0.32031,-0.06641 0.29297,-0.109375 0.26562,-0.175781 0.23438,-0.199219 0.20703,-0.261718 0.20312,-0.242188 0.20703,-0.242188 0.20313,-0.222656 v -0.304687 l -0.0273,-0.308594 -0.11719,-0.308594 -0.23438,-0.199219 -0.26562,-0.152343 -0.29297,-0.109375 -0.29297,-0.06641 -0.29297,-0.113282 -0.32422,-0.01953 -0.32422,-0.04297 -0.32031,-0.08984 -0.32422,-0.04297 -0.32031,-0.06641 h -0.32422 l -0.32422,0.01953 -0.29297,0.06641 -0.32031,0.02344 h -0.35547 l -0.29297,0.08984"
       id="path48" />
    <path
       style="fill:none;stroke:#ff0000;stroke-width:0.85;stroke-linecap:round;stroke-linejoin:round;stroke-miterlimit:10;stroke-opacity:1"
       d="M 325.96875,69.699219 V 63.890625"
       id="path50" />
    <path
       style="fill:none;stroke:#ff0000;stroke-width:0.85;stroke-linecap:round;stroke-linejoin:round;stroke-miterlimit:10;stroke-opacity:1"
       d="m 323.82422,71.066406 0.29297,-0.08984 0.32031,-0.08594 0.35547,-0.04687 0.29297,-0.128906 h 0.3789 l 0.38282,0.06641 0.32421,-0.06641 0.37891,-0.04687 0.32422,-0.04297 0.41016,0.04297 0.32421,-0.0625 0.35157,0.01953"
       id="path52" />
    <path
       style="fill:none;stroke:#ff0000;stroke-width:0.85;stroke-linecap:round;stroke-linejoin:round;stroke-miterlimit:10;stroke-opacity:1"
       d="m 323.94141,64.332031 -0.26563,-0.15625 0.29297,-0.06641 0.32422,0.08984 h 0.3789 l 0.38282,0.06641 0.35156,0.06641 0.41016,0.01953 h 0.35546 l 0.35157,0.06641 0.3789,0.04687 0.35547,0.04297 h 0.64453"
       id="path54" />
    <path
       style="fill:none;stroke:#ff0000;stroke-width:0.85;stroke-linecap:round;stroke-linejoin:round;stroke-miterlimit:10;stroke-opacity:1"
       d="m 323.03125,75.378906 -0.23438,0.308594 -0.29296,0.175781 -0.14844,0.285157 -0.29297,0.242187 -0.26563,0.222656 -0.20312,0.21875 -0.35156,0.21875 -0.26563,0.265625 -0.20703,0.242188 -0.32031,0.175781 -0.26563,0.152344 -0.32422,0.199219 -0.29296,0.109374 -0.32032,0.175782 -0.32422,0.132812 -0.35156,0.02344 -0.32422,0.06641 h -0.32031 l -0.35156,-0.08984 -0.64844,-0.08594 -0.35156,-0.132813 -0.37891,-0.04687 -0.29687,-0.0625 -0.35157,-0.06641 h -0.3789 L 314.78516,78.0625 314.375,78 314.08203,77.91016 313.78906,77.84375 313.375,77.80078 313.08203,77.71094 312.76172,77.66797 312.4375,77.625 h -0.70313 l -0.35156,0.04297 -0.29687,0.06641 -0.32032,0.109375 -0.32421,0.132812 -0.29297,0.132813 -0.29297,0.152344 -0.29297,0.199219 -0.26563,0.21875 -0.26171,0.199218 -0.26563,0.261719 -0.23437,0.199219 -0.20704,0.265625 -0.14453,0.308593 -0.20703,0.21875 -0.29297,0.132813 0.0586,-0.308594 0.11718,-0.285156 0.14844,-0.265625 0.0586,-0.328125 0.11718,-0.289063 0.11719,-0.285156 -0.26562,0.175782 -0.20313,0.222656 -0.11719,0.328125 -0.23828,0.242187 -0.20312,0.21875 v 0.332032 l -0.29297,0.328124 -0.20703,0.222657 -0.0586,0.328125 -0.11718,0.332031 -0.14454,0.285156 0.32032,0.02344 0.38281,-0.113281 0.29297,-0.152344 0.32422,-0.109375 0.32031,-0.15625 0.26562,-0.175781 0.29297,-0.132813 0.26563,-0.175781 0.20312,-0.21875 0.29297,-0.08594 L 309.17969,80 l -0.23438,-0.21875 -0.14844,-0.265625 -0.20312,-0.21875 -0.17578,-0.265625 -0.17578,-0.261719 -0.0899,0.308594 -0.20312,0.261719 -0.17578,0.265625 -0.23828,0.21875 -0.20313,0.285156 -0.20703,0.242187 -0.20313,0.222657 -0.20703,0.21875"
       id="path56" />
    <path
       style="fill:none;stroke:#ff0000;stroke-width:0.85;stroke-linecap:round;stroke-linejoin:round;stroke-miterlimit:10;stroke-opacity:1"
       d="m 330.80469,70.449219 0.0586,-0.308594 0.0898,-0.308594 0.14844,-0.261719 0.0586,-0.308593 0.14453,-0.308594 0.20703,-0.21875 0.20312,-0.222656 0.26563,-0.195313 0.29297,-0.113281 0.29297,0.08984 0.14843,0.265625 v 0.304687 l 0.17578,0.265625 0.0274,0.308594 0.0898,0.351562 -0.0312,0.308594 -0.11719,0.308594 -0.0859,0.308594 0.14453,-0.289063 0.26562,-0.175781 v -0.351562 l 0.23438,-0.242188 0.0586,-0.308594 0.29297,-0.175781 0.26563,-0.175781 0.14453,-0.261719 0.29297,-0.222656 0.23828,-0.195313 0.32031,0.0625 0.26562,0.199219 0.20313,0.265625 0.14844,0.261719 0.0273,0.355469 -0.0273,0.328124 0.0273,0.308594 -0.14453,0.308594 0.0859,0.308594 -0.35157,0.175781 0.23438,0.21875 0.29297,0.109375 0.32422,-0.109375 0.23437,-0.21875 0.26563,-0.175781 0.26172,-0.222656 0.26562,-0.308594 0.26563,-0.175782 0.11718,-0.285156 0.14453,-0.261718 0.23438,-0.199219 0.0312,-0.332031 0.11719,-0.328126 0.14453,-0.265624 0.14844,-0.285157 0.11718,-0.351562 0.20703,-0.332031 0.20313,-0.285157 0.0586,-0.375 0.17578,-0.308593 0.11719,-0.304688 0.0586,-0.308594 0.11718,-0.289062 0.23828,-0.195313 -0.0586,-0.308593 -0.0586,0.328124 -0.1211,0.332032 -0.0273,0.375 -0.14844,0.261718 -0.11719,0.332032 -0.11718,0.285156 -0.0859,0.351562 -0.14844,0.285157 -0.11719,0.308593 -0.0859,0.351563 -0.11719,0.398437 -0.0586,0.308594 -0.0312,0.371094 -0.0274,0.421875 -0.0625,0.304687 -0.0859,0.332032 0.14844,0.328125 0.0586,0.355469 0.14453,0.261718 0.20703,0.21875 0.29297,0.06641 0.29297,-0.08594 0.32421,-0.109375 0.26172,-0.15625 0.20703,-0.242188 0.26172,-0.175781 0.23438,-0.195312 0.20703,-0.242188 0.0586,0.304688 0.17578,0.265625 0.20704,0.21875 0.26171,0.222656 0.29297,0.109375 0.35547,0.01953 0.29297,-0.128906 0.26172,-0.175781 0.17578,-0.265625 0.26563,-0.175782 0.14843,-0.308593 0.11719,-0.285157 0.0586,-0.332031 -0.0312,-0.308593 -0.17578,-0.261719 -0.23437,-0.242188 -0.29297,-0.06641 -0.29297,0.08594 -0.20703,0.222657 -0.29297,0.08594 -0.20703,0.222656 -0.0859,0.308594 0.0586,0.304688 0.46875,0.484375 h 0.32421 l 0.32032,-0.04297 0.29297,-0.132812 0.26562,-0.175782 0.20703,-0.242187 0.26172,-0.175781 0.26563,-0.175782 0.26171,-0.175781 0.20704,-0.242187 0.23437,-0.570313 0.17578,-0.265625 0.29297,0.08984 0.64844,0.21875 0.32031,0.132812 0.29297,0.128906 0.29297,0.08984 0.32422,0.152344 0.29297,0.113281 -0.46875,0.4375 -0.20704,0.308594 -0.11718,0.308594 -0.14453,0.265625 0.26171,0.175781 0.29688,0.06641 h 0.37891 L 347.79687,70.84375 348,70.625 l 0.26562,-0.175781 0.20704,-0.21875 0.26171,-0.222657 L 349,69.8125 l 0.26172,-0.199219 0.26562,-0.152343 0.29297,-0.06641 0.32422,-0.02344 0.26172,0.175781 0.17969,0.285156 0.0586,0.308594 0.0273,0.351563 -0.0273,0.308593 0.0586,0.308594 0.29297,-0.152344 0.23438,-0.242187 0.32031,-0.199219 0.32422,-0.175781 0.32422,-0.199219 0.29297,-0.132813 0.29297,-0.109374 0.23437,-0.195313 0.38281,-0.132813 0.29297,-0.175781 0.32031,-0.04687 0.0899,0.355469 -0.0899,0.351563 0.26563,0.195312 0.11719,0.332031 0.20703,0.21875 0.26172,0.15625 0.29297,0.08594 0.35546,-0.06641 0.32032,-0.08594 0.20703,-0.222656 0.26172,-0.152344 0.26562,0.152344 0.17578,0.265625 0.35157,0.109375 0.26562,0.15625 0.32031,0.01953 0.32422,-0.06641 0.32422,-0.08594 0.29297,-0.199218 0.26172,-0.199219 0.23437,-0.261719 0.20703,-0.265625 0.0899,-0.308594 0.23437,-0.261719 0.0274,-0.308593 -0.14453,-0.265625 -0.17579,-0.261719 -0.20703,-0.222656 -0.32422,-0.132813 -0.29296,-0.0625 -0.37891,0.0625 -0.29688,0.113282 -0.23437,0.195312 -0.20313,0.222656 0.11719,0.285156 0.29297,0.109376 0.29297,0.08984 0.32422,0.06641 0.32031,-0.06641 0.29297,-0.08984 0.35547,-0.132813 0.29297,-0.152344 0.29297,-0.15625 0.32031,-0.261719 0.29687,-0.175781 0.35157,-0.175781 0.26171,-0.199219 0.29297,-0.175781 0.26563,-0.175781 0.26562,-0.265625 0.29297,-0.175782 0.20313,-0.285156 0.26562,-0.175781"
       id="path58" />
    <path
       style="fill:none;stroke:#ff0000;stroke-width:0.85;stroke-linecap:round;stroke-linejoin:round;stroke-miterlimit:10;stroke-opacity:1"
       d="m 336.70312,65.851562 0.35157,-0.06641 0.29687,-0.132812 0.37891,-0.04297 h 0.41015 l 0.35547,-0.02344 0.46875,0.08594 0.32032,0.06641 0.35546,0.04687 0.35157,0.06641 0.3789,0.0625 0.47266,0.02344 0.41016,0.06641 0.32031,0.109375 0.35156,0.06641 0.38281,0.04297 0.38282,0.04687 h 0.76171 l 0.38282,0.01953 h 0.3789 l 0.41407,-0.06641 0.35156,-0.04297"
       id="path60" />
    <path
       style="fill:none;stroke:#f5f5f3;stroke-width:0.85;stroke-linecap:round;stroke-linejoin:round;stroke-miterlimit:10;stroke-opacity:1"
       d="m 211.84766,125.55859 -0.0586,-0.30859 0.0586,-0.33203 0.0312,-0.32813 0.0273,-0.30859 0.0586,-0.30859 0.11719,-0.28516 -0.0586,-0.375 0.11718,-0.35156 0.11719,-0.39844 0.0898,-0.35156 0.0859,-0.35156 0.20703,-0.3086 0.20313,-0.30859 -0.0273,-0.3086 0.14453,-0.30859 0.20703,-0.30469 0.17578,-0.33203 0.23437,-0.28515 0.17579,-0.3086 0.26562,-0.26562 0.17578,-0.26172 0.26563,-0.22266 0.32031,-0.24219 0.26562,-0.15234 0.32032,-0.043 0.32422,0.0195 0.29296,0.0898 0.26563,0.24218 0.32031,0.17579 0.11719,0.28515 0.17969,0.35156 0.14453,0.35547 0.17578,0.32813 0.0898,0.35156 0.0859,0.375 0.0586,0.375 0.0898,0.30859 0.0273,0.3711 0.11719,0.35547 -0.0273,0.32812 0.0273,0.35156 0.20703,0.3086 -0.0898,0.30859 0.0312,0.3086 0.0273,0.30859 -0.0586,0.35156"
       id="path62" />
    <path
       style="fill:none;stroke:#f5f5f3;stroke-width:0.85;stroke-linecap:round;stroke-linejoin:round;stroke-miterlimit:10;stroke-opacity:1"
       d="m 214.07812,123.3125 4.01954,-0.83594"
       id="path64" />
    <path
       style="fill:none;stroke:#f5f5f3;stroke-width:0.85;stroke-linecap:round;stroke-linejoin:round;stroke-miterlimit:10;stroke-opacity:1"
       d="m 222.79297,124.39063 -0.23438,-0.19922 -0.26562,-0.15235 -0.29297,-0.0664 -0.32031,0.0664 -0.32422,0.10938 -0.20703,0.21875 -0.32032,0.10937 -0.20703,0.28907 -0.11718,0.30859 -0.14844,0.26172 -0.0586,0.30859 0.0586,0.33203 0.12109,0.35157 0.29297,0.15234 0.23438,0.19922 0.35156,0.0195 h 0.32422 L 222,126.67969 h 0.32422 l 0.29297,-0.0664 0.32422,-0.0234"
       id="path66" />
    <path
       style="fill:none;stroke:#f5f5f3;stroke-width:0.85;stroke-linecap:round;stroke-linejoin:round;stroke-miterlimit:10;stroke-opacity:1"
       d="m 225.52344,125.26953 -0.23828,-0.19531 -0.29297,-0.0664 -0.29297,0.0664 -0.29297,0.0859 -0.32422,0.17578 -0.29297,0.19922 -0.11719,0.28515 -0.20312,0.21875 -0.14844,0.3086 -0.0273,0.33203 v 0.32812 l 0.0586,0.35157 0.23438,0.19921 0.11718,0.28516 0.32032,0.13281 0.26562,0.17578 0.29297,0.13282 0.29297,0.0898 0.29297,0.0664 0.32422,0.0195 0.32422,-0.043 0.20312,-0.26563"
       id="path68" />
    <path
       style="fill:none;stroke:#f5f5f3;stroke-width:0.85;stroke-linecap:round;stroke-linejoin:round;stroke-miterlimit:10;stroke-opacity:1"
       d="m 235.76172,116.55469 -0.26172,-0.15235 -0.29297,0.0664 -0.35547,0.0859 -0.26172,0.17578 -0.29297,0.19922 -0.20703,0.24219 -0.23437,0.28515 -0.20703,0.22266 -0.20313,0.26172 -0.11719,0.28515 -0.17578,0.26563 -0.0312,0.41797 -0.0859,0.35156 -0.17579,0.35156 -0.0898,0.375 v 0.87891 l -0.0273,0.33203 -0.0625,0.30859 v 2.08985 l 0.0625,0.35156 v 0.33203 l 0.0273,0.4375 0.0312,0.44141 0.0273,0.375 0.0312,0.32812 0.14454,0.35547 0.0586,0.37109 0.11719,0.28907 0.17578,0.32812 0.23437,0.24219 0.0586,0.35156 0.32422,0.10938 0.23437,0.19921 0.32422,0.0664 0.26172,-0.15234 -0.20313,-0.22266 v -0.32812"
       id="path70" />
    <path
       style="fill:none;stroke:#f5f5f3;stroke-width:0.85;stroke-linecap:round;stroke-linejoin:round;stroke-miterlimit:10;stroke-opacity:1"
       d="m 241.25,121.72656 -0.26563,-0.17578 -0.29296,-0.0664 -0.29297,0.0664 -0.35157,0.0898 -0.32421,0.17578 -0.35157,0.10937 -0.29297,0.10938 -0.29296,0.24218 -0.23438,0.26563 -0.26562,0.26172 -0.20313,0.24219 -0.29297,0.26562 v 0.375 l -0.0586,0.32813 -0.20703,0.28515 -0.0898,0.33203 -0.0273,0.35157 0.0273,0.35156 0.11719,0.28515 0.14844,0.26563 0.23437,0.19922 0.20703,0.24219 0.32032,0.10937 0.32422,0.13281 0.38281,0.10938 0.3789,0.0195 h 0.46875 l 0.38282,-0.043 0.35156,-0.043 0.32422,-0.043 0.29297,-0.0664 0.35156,-0.0234 0.32422,-0.13281 0.58594,-0.21875 -0.0586,-0.3086"
       id="path72" />
    <path
       style="fill:none;stroke:#f5f5f3;stroke-width:0.85;stroke-linecap:round;stroke-linejoin:round;stroke-miterlimit:10;stroke-opacity:1"
       d="m 243.56641,116.48828 0.0586,0.3086 0.20703,0.26562 0.17578,0.26172 0.20703,0.30859 0.14453,0.26563 0.14844,0.32812 0.20313,0.33203 0.11718,0.35157 0.20704,0.375 0.17578,0.26172 0.17578,0.26562 0.0312,0.41797 0.0586,0.44141 0.17578,0.28515 0.11719,0.28516 0.14453,0.33203 0.0586,0.32812 v 0.44141 l 0.0898,0.30859 0.0273,0.3086 0.0312,0.30859 0.11719,0.35156 0.0312,0.32813 -0.0312,0.44141 0.0312,0.4414 V 125.25 l -0.0586,0.39453 0.0586,0.3086 -0.0312,0.4414 -0.0273,0.3711 v 0.375 l -0.0898,0.35156 -0.0312,0.33203 -0.0586,0.41797 -0.0273,0.30859 -0.0586,0.30859 -0.20703,0.30469 v 0.35547 l -0.0859,0.30469 -0.11718,0.28906 -0.14844,0.26172 0.0312,-0.32813"
       id="path74" />
    <path
       style="fill:none;stroke:#f5f5f3;stroke-width:0.85;stroke-linecap:round;stroke-linejoin:round;stroke-miterlimit:10;stroke-opacity:1"
       d="m 253.39844,125.95313 2.52343,-0.6836"
       id="path76" />
    <path
       style="fill:none;stroke:#f5f5f3;stroke-width:0.85;stroke-linecap:round;stroke-linejoin:round;stroke-miterlimit:10;stroke-opacity:1"
       d="m 252.83984,124.27344 h 2.28907"
       id="path78" />
    <path
       style="fill:none;stroke:#ff0000;stroke-width:0.85;stroke-linecap:round;stroke-linejoin:round;stroke-miterlimit:10;stroke-opacity:1"
       d="m 370.74219,67.324219 v 0.308593 l -0.0274,0.308594 -0.0312,0.308594 v 0.679688 l -0.0273,0.375 0.0586,0.332031 v 0.371093 l 0.0586,0.355469 0.0586,0.328125 0.0859,0.332032 0.20703,0.21875 0.11719,0.308593 0.29297,0.109375 0.29296,0.06641 0.32422,0.04297 0.32032,0.04297 0.29687,-0.08594 0.14453,-0.308593 0.35156,-0.109375 0.11719,-0.332032 0.20703,-0.261718 0.0859,-0.351563 0.11719,-0.289062 0.12109,-0.328125 0.17578,-0.285156 0.0859,-0.332032 0.0586,-0.308594 -0.0273,-0.308593 v -0.613281 l -0.0586,-0.308594"
       id="path80" />
    <path
       style="fill:none;stroke:#ff0000;stroke-width:0.85;stroke-linecap:round;stroke-linejoin:round;stroke-miterlimit:10;stroke-opacity:1"
       d="m 368.83594,93.691406 0.0859,-0.308594 -0.17578,0.261719 -0.0859,0.375 -0.0586,0.351563 v 0.332031 l -0.0312,0.371094 -0.0586,0.375 0.0312,0.308593 0.14453,0.265626 -0.0273,0.375 -0.0312,0.328124 0.20703,0.21875 0.17578,0.265626 0.14844,0.265624 0.26171,0.21875 0.26563,0.175782 0.29297,0.109375 0.32422,0.08984 h 0.35156 l 0.29297,-0.08984 0.32031,-0.109375 0.20703,-0.21875 0.20703,-0.289063 0.20313,-0.285156 0.14844,-0.351563 0.14453,-0.351562 -0.0274,-0.308594 0.0586,-0.308594 0.0273,-0.328124 0.0312,-0.355469 -0.0312,-0.351563 0.0586,-0.328125 -0.17578,-0.265625"
       id="path82" />
    <path
       style="fill:none;stroke:#ff0000;stroke-width:0.85;stroke-linecap:round;stroke-linejoin:round;stroke-miterlimit:10;stroke-opacity:1"
       d="m 377.93359,99.566406 -0.17578,-0.265625 -0.14844,-0.261719 -0.0586,-0.355468 -0.0312,-0.351563 0.0898,-0.328125 -0.0898,-0.351562 0.0312,-0.355469 0.0898,-0.351563 0.0274,-0.308593 0.0312,-0.328125 0.17578,-0.285156 0.0273,-0.332032 0.14844,-0.328125 0.17578,-0.308593 0.11719,-0.308594 0.14453,-0.265625 0.17578,-0.261719 0.23828,-0.265625 0.32032,-0.175781 0.29296,-0.199219 0.26563,-0.152344 0.26562,-0.175781 0.29297,-0.08984 0.29297,0.15625 0.23438,0.195313 0.23437,0.222656 0.29297,0.132813 0.20703,0.261718 0.23438,0.222656 0.17578,0.285157 0.11719,0.328125 0.11718,0.617187 0.0274,0.351563 0.0586,0.351562 -0.0273,0.308594 v 0.351562 l 0.11718,0.308594 -0.14843,0.375 0.0312,0.332032 0.0586,0.304687 -0.17578,0.332031 0.0273,0.351563 0.0586,0.351562 v 0.332031 l -0.0274,0.308594 0.0274,0.30468"
       id="path84" />
    <path
       style="fill:none;stroke:#ff0000;stroke-width:0.85;stroke-linecap:round;stroke-linejoin:round;stroke-miterlimit:10;stroke-opacity:1"
       d="m 390.51953,93.734375 -0.17578,-0.265625 -0.26172,-0.152344 -0.29687,-0.15625 -0.32032,-0.04297 -0.32422,-0.06641 -0.29296,0.08984 -0.29297,0.109375 -0.26563,0.152344 -0.23437,0.199218 -0.23438,0.242188 -0.23437,0.199219 -0.23438,0.308593 -0.17578,0.285157 -0.17578,0.328125 -0.26563,0.222656 -0.0859,0.328125 -0.17578,0.265625 -0.20704,0.285156 0.0899,0.308594 -0.0899,0.308594 -0.0273,0.308594 0.0273,0.304687 0.14844,0.332031 0.14453,0.265625 0.23438,0.195313 0.23437,0.222656 0.26563,0.195312 0.29297,0.08984 0.29297,0.08594 0.32421,0.113281 0.29297,0.06641 h 0.35157 l 0.32421,-0.02344 0.35157,-0.08984 0.32031,-0.08594 0.29687,-0.06641 0.29297,-0.08984 0.26172,-0.175781 0.26563,-0.175781 0.23437,-0.242188 -0.32422,0.04688"
       id="path86" />
    <path
       style="fill:none;stroke:#ff0000;stroke-width:0.85;stroke-linecap:round;stroke-linejoin:round;stroke-miterlimit:10;stroke-opacity:1"
       d="m 391.10937,94.4375 0.20313,-0.21875 0.17578,-0.265625 -0.0273,-0.308594 0.0586,-0.308593 V 93.03125 l -0.0312,-0.308594 -0.0859,0.308594 -0.0898,0.304688 v 0.308593 l -0.0586,0.351563 0.0586,0.308594 -0.17578,0.308593 -0.0274,0.351563 -0.0898,0.351562 -0.0898,0.355469 -0.0274,0.304687 v 0.308594 l -0.0586,-0.328125"
       id="path88" />
    <path
       style="fill:none;stroke:#ff0000;stroke-width:0.85;stroke-linecap:round;stroke-linejoin:round;stroke-miterlimit:10;stroke-opacity:1"
       d="m 394.92187,99.367188 0.26563,-0.152344 0.29297,-0.08984 0.29297,-0.109375 0.32422,-0.06641 0.32031,-0.02344 0.32422,-0.0625 0.3789,-0.06641 0.32422,-0.04687 0.32422,-0.06641 0.29297,-0.0625 0.32031,-0.08984 0.35547,-0.04297"
       id="path90" />
    <path
       style="fill:none;stroke:#ff0000;stroke-width:0.85;stroke-linecap:round;stroke-linejoin:round;stroke-miterlimit:10;stroke-opacity:1"
       d="m 396.44531,96.625 h 2.34766"
       id="path92" />
    <path
       style="fill:none;stroke:#ff0000;stroke-width:0.85;stroke-linecap:round;stroke-linejoin:round;stroke-miterlimit:10;stroke-opacity:1"
       d="m 408.65625,90.917969 0.37891,-0.06641 -0.29297,-0.06641 -0.23438,-0.199218 -0.35156,-0.152344 -0.32422,-0.02344 h -0.35156 l -0.26172,0.15625 -0.29688,0.175782 -0.23437,0.21875 -0.26172,0.175781 -0.0586,0.328125 -0.23438,0.242187 -0.0586,0.308594 -0.14844,0.308594 0.0312,0.351562 0.0273,0.308594 0.0586,0.308594 0.0898,0.351562 0.0859,0.308594 0.0312,0.308594 0.17578,0.265625 -0.14844,0.304687 v 0.332031 l -0.20312,0.265626 -0.17578,0.261718 -0.26563,0.15625 -0.32422,0.01953 0.29297,0.08984 0.29688,0.109375 0.29297,0.132813 0.35156,0.132812 0.32031,0.175781 0.29688,0.21875 0.17578,0.285157 v 0.332031 l -0.11719,0.351562 v 0.308594 l -0.23828,0.261719 -0.14453,0.265625 -0.11719,0.332031 -0.14844,0.351563 -0.0586,0.328125 -0.0859,0.308593 0.0859,0.308602 0.26562,0.21875 0.29297,0.13281 h 0.38281 l 0.35157,0.043 h 0.35156"
       id="path94" />
    <path
       style="fill:none;stroke:#ff0000;stroke-width:0.85;stroke-linecap:round;stroke-linejoin:round;stroke-miterlimit:10;stroke-opacity:1"
       d="m 413.14453,94.480469 0.32422,0.04687 -0.32422,0.04297 -0.29297,0.08594 -0.32422,0.06641 -0.26172,0.15625 -0.26562,0.175782 -0.23438,0.21875 -0.17578,0.265624 -0.23437,0.21875 -0.0312,0.308594 0.14844,0.308594 0.26171,0.175781 L 412,96.726562 h 0.32422 l 0.32031,-0.152343 0.35156,-0.02344 0.29688,-0.132812 0.3789,0.06641 0.29297,0.06641 0.29297,0.08594 0.23828,0.199219 0.23438,0.242187 0.11719,0.308594 0.0273,0.308593 -0.0273,0.351563 -0.26563,0.21875 -0.20703,0.222656 -0.29297,0.175781 -0.32031,0.01953 H 413.4375 L 413.14453,98.6211 412.82031,98.53126 412.5,98.421875"
       id="path96" />
    <path
       style="fill:none;stroke:#ff0000;stroke-width:0.85;stroke-linecap:round;stroke-linejoin:round;stroke-miterlimit:10;stroke-opacity:1"
       d="m 416.72266,90.234375 h 0.32421 l 0.32422,0.02344 0.20313,0.21875 0.29297,0.109376 0.23828,0.199218 0.20312,0.242188 0.14844,0.261718 0.14453,0.332032 0.14844,0.308594 v 0.308593 l -0.0898,0.308594 -0.11719,0.328125 -0.14453,0.285156 -0.23438,0.222656 v 0.351563 l -0.17969,0.285156 -0.17578,0.285157 -0.0273,0.351562 -0.0586,0.308594 -0.0899,0.351562 0.0899,0.355469 0.20312,0.261719 0.20703,0.222656 0.20703,0.21875 0.32032,0.132812 0.29296,0.06641 h -0.32031 l -0.26562,0.195312 -0.11719,0.308594 -0.23438,0.199219 0.14844,0.285156 V 97.8711 l 0.0274,0.308594 0.0898,0.328124 0.11719,0.332032 0.0859,0.351562 -0.0586,0.308594 0.0586,0.351562 0.17579,0.308602 -0.0859,0.35156 -0.0312,0.30859 0.0586,0.3086 -0.17578,0.28515 -0.11719,0.33203 -0.17578,0.26172 -0.23437,0.26563 -0.32422,0.10937 -0.32031,0.0664 -0.32422,0.0195 -0.32422,-0.0625"
       id="path98" />
    <path
       style="fill:none;stroke:#ff0000;stroke-width:0.85;stroke-linecap:round;stroke-linejoin:round;stroke-miterlimit:10;stroke-opacity:1"
       d="m 427.375,90.566406 -4.48828,12.628904"
       id="path100" />
    <path
       style="fill:none;stroke:#ff0000;stroke-width:0.85;stroke-linecap:round;stroke-linejoin:round;stroke-miterlimit:10;stroke-opacity:1"
       d="m 429.66406,94.722656 0.29297,-0.06641 0.35156,0.06641 h 0.38282 l 0.32421,0.02344 0.32032,0.04297 0.35547,0.04297 -0.23829,-0.195312 -0.26171,-0.15625 -0.32422,-0.04297 h -0.35157 l -0.32421,0.02344 -0.23438,0.195312 -0.26172,0.175781 -0.20703,0.265625 -0.17578,0.332032 -0.11719,0.328124 -0.0898,0.351563 -0.0586,0.375 -0.11718,0.332031 0.14843,0.261719 0.29297,-0.175781 0.26563,-0.175782 0.26172,-0.175781 0.29297,-0.175781 0.29687,-0.08984 0.35156,-0.04297 0.32032,0.06641 0.29296,0.109375 0.29688,0.15625 0.23437,0.195312 0.23438,0.222657 0.20312,0.21875 0.20704,0.21875 0.11718,0.308593 0.0274,0.332031 -0.17578,0.261719 -0.23438,0.199219 -0.29297,0.152344 -0.29297,0.06641 -0.32422,-0.06641 -0.29296,-0.08594 -0.29297,-0.109375 -0.32032,-0.08984 -0.32421,-0.08594"
       id="path102" />
    <path
       style="fill:none;stroke:#ff0000;stroke-width:0.85;stroke-linecap:round;stroke-linejoin:round;stroke-miterlimit:10;stroke-opacity:1"
       d="m 436.35547,97.894531 h -0.32422 l 0.17578,-0.265625 0.29297,-0.152344 0.38281,-0.08984 0.29297,-0.08984 0.35156,0.06641 0.32422,0.06641 0.32422,0.04687 0.29297,0.08594"
       id="path104" />
    <path
       style="fill:none;stroke:#ff0000;stroke-width:0.85;stroke-linecap:round;stroke-linejoin:round;stroke-miterlimit:10;stroke-opacity:1"
       d="m 437.17578,95.273438 1.26172,-0.21875"
       id="path106" />
    <path
       style="fill:none;stroke:#ff0000;stroke-width:0.85;stroke-linecap:round;stroke-linejoin:round;stroke-miterlimit:10;stroke-opacity:1"
       d="m 448.96484,97.078125 -0.0742,0.546875 -0.21093,0.511719 -0.33594,0.433593 -0.43359,0.335938 -0.51172,0.210938 -0.54688,0.07422 -0.54687,-0.07422 -0.50782,-0.210938 -0.4375,-0.335938 -0.33593,-0.433593 -0.21094,-0.511719 -0.0703,-0.546875 0.0703,-0.546875 0.21094,-0.507812 0.33593,-0.4375 0.4375,-0.335938 0.50782,-0.210938 0.54687,-0.07031 0.54688,0.07031 0.51172,0.210938 0.43359,0.335938 0.33594,0.4375 0.21093,0.507812 0.0742,0.546875"
       id="path108" />
    <path
       style="fill:none;stroke:#ff0000;stroke-width:0.85;stroke-linecap:round;stroke-linejoin:round;stroke-miterlimit:10;stroke-opacity:1"
       d="M 451.05469,91.003906 443.48437,101.875"
       id="path110" />
    <path
       style="fill:none;stroke:#ff0000;stroke-width:0.85;stroke-linecap:round;stroke-linejoin:round;stroke-miterlimit:10;stroke-opacity:1"
       d="m 269.36719,124.38672 -0.0742,0.57422 -0.22266,0.53515 -0.35156,0.46094 -0.46094,0.35547 -0.53515,0.21875 -0.57422,0.0781 -0.57813,-0.0781 -0.53515,-0.21875 -0.45704,-0.35547 -0.35546,-0.46094 -0.22266,-0.53515 -0.0742,-0.57422 0.0742,-0.57422 0.22266,-0.53516 0.35546,-0.46093 0.45704,-0.35157 0.53515,-0.22265 0.57813,-0.0742 0.57422,0.0742 0.53515,0.22265 0.46094,0.35157 0.35156,0.46093 0.22266,0.53516 0.0742,0.57422"
       id="path112" />
    <path
       style="fill:none;stroke:#ff0000;stroke-width:0.85;stroke-linecap:round;stroke-linejoin:round;stroke-miterlimit:10;stroke-opacity:1"
       d="m 262.64062,130.48828 7.80469,-10.74219"
       id="path114" />
    <path
       style="fill:none;stroke:#ffff00;stroke-width:0.85;stroke-linecap:round;stroke-linejoin:round;stroke-miterlimit:10;stroke-opacity:1"
       d="m 275.40625,122.54297 -0.23438,0.24219 -0.0312,0.35156 -0.0273,0.30859 v 0.35157 l -0.0312,0.32812 0.0312,0.33203 0.0273,0.3086 0.0586,0.30859 0.14844,0.28516 0.0273,0.32812 0.14844,0.28906 0.20703,0.24219 0.26172,0.26172 0.20703,0.21875 0.26172,0.15625 0.29297,0.0664 0.32421,0.0195 0.29297,-0.0859 0.26563,-0.15625 0.26172,-0.21875 0.17578,-0.30859 0.17969,-0.28516 0.11718,-0.28516 0.0859,-0.33203 0.0898,-0.375 0.0859,-0.35156 0.0586,-0.35156 0.0586,-0.3086 v -0.37109 l 0.0586,-0.375 0.0899,-0.30859 -0.0899,-0.3086"
       id="path116" />
    <path
       style="fill:none;stroke:#ffff00;stroke-width:0.85;stroke-linecap:round;stroke-linejoin:round;stroke-miterlimit:10;stroke-opacity:1"
       d="m 287.73047,119.96484 -0.29297,0.13282 -0.32422,-0.0195 -0.35156,0.0195 h -0.73438 l -0.41015,0.0469 -0.32422,-0.0469 h -0.32031 l -0.14844,0.26562 0.0586,0.32813 0.0312,0.33203 -0.0312,0.375 0.0586,0.32812 v 0.375 l -0.0274,0.375 v 0.67969 l -0.0312,0.375 v 0.35156 l -0.11719,0.35157 0.0312,0.30859 -0.0312,0.30859 -0.0859,0.3086 0.0273,0.35156 v 0.35156 l 0.0312,0.35547 -0.0586,0.30469 h 1.34765 l 0.35157,-0.0195 0.32421,-0.0234 h 0.32422 l 0.32032,-0.043 0.32421,0.043 -0.20703,-0.21875"
       id="path118" />
    <path
       style="fill:none;stroke:#ffff00;stroke-width:0.85;stroke-linecap:round;stroke-linejoin:round;stroke-miterlimit:10;stroke-opacity:1"
       d="m 290.51953,122.51953 -0.20703,-0.24219 -0.17578,-0.26562 0.11719,-0.28516 0.14453,-0.26172 0.32422,0.0195 0.32421,0.0664 0.23438,0.19922 0.32031,0.15234 0.0312,0.3086 0.14844,0.30859 0.0859,0.3086 v 0.70312 l -0.0274,0.30859 -0.11718,0.3086 -0.1211,0.35156 -0.20312,0.26563 -0.14844,0.26171 -0.11719,0.3086 -0.29297,0.19922 -0.29297,0.17578 -0.17578,0.28515 -0.29297,0.13282 -0.29296,0.0898 h 0.73437 l 0.35156,-0.0898 0.37891,-0.043 0.38281,-0.0234 0.29297,-0.0859 0.32422,-0.0664 0.32031,-0.0234 0.32422,0.0234 h -0.32422"
       id="path120" />
    <path
       style="fill:none;stroke:#ffff00;stroke-width:0.85;stroke-linecap:round;stroke-linejoin:round;stroke-miterlimit:10;stroke-opacity:1"
       d="m 294.83203,126.67969 -0.0312,0.32812 -0.11719,0.3086 -0.14453,0.26562 -0.17578,0.3086 -0.14844,0.26171 -0.14843,0.28907 -0.23438,0.26171 -0.23437,0.19922 0.0312,-0.30859"
       id="path122" />
    <path
       style="fill:none;stroke:#ffff00;stroke-width:0.85;stroke-linecap:round;stroke-linejoin:round;stroke-miterlimit:10;stroke-opacity:1"
       d="m 297.03125,121.39844 v -0.33203 l 0.23437,-0.19922 0.29297,-0.0625 0.32422,-0.0234 0.32422,0.0234 0.32031,0.0859 0.32422,0.0898 0.23438,0.21875 0.20703,0.28516 -0.0899,0.33203 v 0.35156 l -0.23437,0.28516 -0.23438,0.24218 -0.17578,0.26563 -0.20703,0.21875 -0.20312,0.24219 -0.20703,0.26562 -0.26563,0.17578 0.32422,0.0859 0.29297,0.0898 0.32422,0.10938 0.26172,0.15234 0.26562,0.17578 0.26563,0.17969 0.20312,0.26172 0.17578,0.26562 0.0312,0.32813 0.0859,0.375 -0.14453,0.33203 -0.23438,0.28516 -0.11718,0.28515 -0.23438,0.21875 -0.29687,0.17578 -0.32032,0.13282 -0.29297,0.15625 -0.29296,0.15234 -0.29688,0.0898 -0.32031,0.10938 -0.32422,0.0195 h -0.32031 l -0.29688,-0.0859 0.11719,-0.28515 0.20703,-0.24219"
       id="path124" />
    <path
       style="fill:none;stroke:#ffff00;stroke-width:0.85;stroke-linecap:round;stroke-linejoin:round;stroke-miterlimit:10;stroke-opacity:1"
       d="m 301.58203,119.96484 0.29297,0.17969 0.37891,0.0859 h 0.32421 l 0.32422,0.043 0.32032,0.0469 0.38281,0.043 0.35156,0.043 0.32422,0.043 0.35156,0.0664 h 0.37891 l 0.32422,0.0234 0.0586,0.32813 -0.23437,0.19922 0.0898,0.35156 -0.0312,0.30859 -0.14844,0.39844 v 0.39453 l 0.0586,0.39453 0.0312,0.3086 -0.0312,0.30859 -0.0274,0.41797 v 0.41797 l 0.0274,0.39844 0.0312,0.39453 0.0312,0.375 0.0586,0.4414 0.0273,0.41797 0.0312,0.35156 v 0.63672 l 0.0586,0.33203 0.0586,0.3711 -0.11719,0.33203 0.11719,0.35156 0.0586,0.30859 0.0274,-0.30859 -0.29297,-0.17578 -0.41016,0.0234 -0.35156,0.0195 -0.41016,0.0469 -0.32421,0.0195 -0.35157,0.0234 -0.38281,0.043 -0.38281,0.0234 -0.35156,0.0195 h -0.35157 l -0.35156,-0.0195"
       id="path126" />
    <path
       style="fill:none;stroke:#ffff00;stroke-width:0.85;stroke-linecap:round;stroke-linejoin:round;stroke-miterlimit:10;stroke-opacity:1"
       d="m 311.61719,128.06641 0.20312,-0.26563 0.26563,-0.17578 0.29297,-0.17578 0.32421,-0.0898 0.32032,-0.043 0.32422,-0.043 h 0.3789"
       id="path128" />
    <path
       style="fill:none;stroke:#ffff00;stroke-width:0.85;stroke-linecap:round;stroke-linejoin:round;stroke-miterlimit:10;stroke-opacity:1"
       d="m 311.73437,125.35938 2.46485,-0.61719"
       id="path130" />
    <path
       style="fill:none;stroke:#ffff00;stroke-width:0.85;stroke-linecap:round;stroke-linejoin:round;stroke-miterlimit:10;stroke-opacity:1"
       d="m 321.24219,119.98828 v 0.33203 l 0.0586,0.35157 -0.0312,0.30859 v 0.67969 l 0.0586,0.35156 -0.11718,0.88281 v 0.70313 l -0.0274,0.33203 -0.0312,0.30469 0.0312,0.33203 -0.0586,0.4414 0.0273,0.35157 -0.0273,0.35156 -0.0312,0.35156 -0.0312,0.375 v 0.32813 l 0.12109,0.28906 0.35157,0.043 0.32031,0.0234 0.29297,-0.0664 h 0.35547 l 0.32031,-0.0469 0.29297,-0.0859 0.32422,-0.043 -0.29297,-0.17969"
       id="path132" />
    <path
       style="fill:none;stroke:#ffff00;stroke-width:0.85;stroke-linecap:round;stroke-linejoin:round;stroke-miterlimit:10;stroke-opacity:1"
       d="m 321.24219,120.09766 2.60937,-0.3086"
       id="path134" />
    <path
       style="fill:none;stroke:#ffff00;stroke-width:0.85;stroke-linecap:round;stroke-linejoin:round;stroke-miterlimit:10;stroke-opacity:1"
       d="m 327.22656,122.96094 -0.32422,-0.13281 -0.0859,-0.3086 0.14453,-0.30859 0.26562,-0.19922 0.32422,-0.0859 0.35156,0.0664 0.29297,0.17578 0.26172,0.17578 -0.0586,0.30859 0.0312,0.32813 -0.0312,0.375 -0.11719,0.33203 -0.0859,0.41797 -0.0898,0.30859 -0.20313,0.35157 -0.11718,0.32812 -0.17579,0.28516 -0.14843,0.30859 -0.20313,0.28906 -0.29687,0.17578 -0.0586,0.32813 0.32422,0.0898 0.32422,0.0195 0.37891,-0.0195 0.35156,-0.0469 0.32422,-0.0195 0.32422,-0.0664 0.29297,-0.10937"
       id="path136" />
    <path
       style="fill:none;stroke:#ffff00;stroke-width:0.85;stroke-linecap:round;stroke-linejoin:round;stroke-miterlimit:10;stroke-opacity:1"
       d="m 331.27734,126.26172 -0.0898,0.32812 -0.14453,0.33204 -0.20703,0.26171 -0.11719,0.28907 -0.23438,0.19531"
       id="path138" />
    <path
       style="fill:none;stroke:#ffff00;stroke-width:0.85;stroke-linecap:round;stroke-linejoin:round;stroke-miterlimit:10;stroke-opacity:1"
       d="m 334.32812,120.93359 0.26172,0.19922 0.20703,0.26563 0.23438,0.19531 -0.0273,0.33203 -0.11719,0.35156 -0.17578,0.26563 -0.1211,0.32812 -0.23437,0.28516 -0.23438,0.28906 -0.29297,0.24219 -0.26171,0.19531 -0.26563,0.22266 -0.26562,0.19531 -0.29297,0.11328 0.32422,-0.0898 0.29296,0.0664 h 0.32422 l 0.32032,0.10937 0.32421,0.13281 0.32422,0.17578 0.23438,0.21875 0.14453,0.3086 0.0312,0.30859 -0.0898,0.33203 -0.23438,0.24219 -0.26562,0.19531 -0.29297,0.0664 -0.29297,-0.0664 -0.35156,-0.0664 -0.32422,-0.0859"
       id="path140" />
    <path
       style="fill:none;stroke:#ffff00;stroke-width:0.85;stroke-linecap:round;stroke-linejoin:round;stroke-miterlimit:10;stroke-opacity:1"
       d="m 336.67578,119.30469 0.35156,-0.0195 h 0.32422 l 0.37891,-0.0664 0.32422,-0.043 0.32422,-0.0469 0.3789,-0.043 0.32422,-0.043 0.32031,-0.043 0.32422,-0.0664 0.38281,-0.0234 0.32032,-0.0859 0.0312,0.30469 -0.0586,0.33203 v 0.32812 l 0.0859,0.3086 v 0.33203 l -0.0586,0.35156 v 0.41797 l 0.0312,0.39453 0.0859,0.33203 -0.0273,0.32813 -0.0586,0.35547 0.0273,0.30468 -0.0273,0.35547 -0.0312,0.39453 v 0.66016 l -0.0274,0.33203 -0.0586,0.32813 v 0.83593 l 0.0273,0.41797 v 0.33203 l 0.0586,0.35157 v 0.66015 l -0.20313,0.21875 -0.32422,0.10938 -0.29297,0.15625 -0.32421,0.0859 -0.32032,0.0469 -0.32422,0.043 -0.35156,0.0859 h -0.32422"
       id="path142" />
    <path
       style="fill:none;stroke:#ffff00;stroke-width:0.85;stroke-linecap:round;stroke-linejoin:round;stroke-miterlimit:10;stroke-opacity:1"
       d="m 299.14453,71.550781 -0.29297,-0.06641 -0.29297,-0.109375 -0.29297,-0.08984 -0.29296,-0.06641 -0.32422,-0.01953 -0.29297,-0.06641 -0.32422,0.01953 -0.37891,0.04687 -0.32422,0.128906 -0.26562,0.15625 -0.23438,0.242187 -0.17578,0.285157 -0.20312,0.265625 0.0273,0.328125 -0.14453,0.265625 0.20313,0.21875 -0.0586,0.308594 0.0312,0.308593 0.0859,0.308594 0.17578,0.261719 0.11719,0.289062 0.26562,0.175782 0.32032,0.152343 0.29687,0.08984 0.32031,0.01953 0.32422,-0.01953 0.32031,0.01953 0.32422,-0.08594 0.32422,0.01953 0.32031,-0.04297"
       id="path144" />
  </g>
</svg>
