<?xml version="1.0" encoding="UTF-8" standalone="no"?>
<svg
   width="388.6586pt"
   height="158.75235pt"
   viewBox="0 0 388.65861 158.75235"
   version="1.2"
   id="svg189"
   sodipodi:docname="puntoDiAccumulazioneInfty.svg"
   inkscape:version="1.1.2 (0a00cf5339, 2022-02-04, custom)"
   xmlns:inkscape="http://www.inkscape.org/namespaces/inkscape"
   xmlns:sodipodi="http://sodipodi.sourceforge.net/DTD/sodipodi-0.dtd"
   xmlns="http://www.w3.org/2000/svg"
   xmlns:svg="http://www.w3.org/2000/svg">
  <defs
     id="defs193" />
  <sodipodi:namedview
     id="namedview191"
     pagecolor="#505050"
     bordercolor="#ffffff"
     borderopacity="1"
     inkscape:pageshadow="0"
     inkscape:pageopacity="0"
     inkscape:pagecheckerboard="1"
     inkscape:document-units="pt"
     showgrid="false"
     fit-margin-top="0"
     fit-margin-left="0"
     fit-margin-right="0"
     fit-margin-bottom="0"
     inkscape:zoom="0.56123737"
     inkscape:cx="236.08549"
     inkscape:cy="539.87852"
     inkscape:window-width="2560"
     inkscape:window-height="1389"
     inkscape:window-x="0"
     inkscape:window-y="28"
     inkscape:window-maximized="1"
     inkscape:current-layer="svg189" />
  <g
     id="surface86886"
     transform="translate(-79.664844,-16.590625)">
    <path
       style="fill:none;stroke:#2ec27d;stroke-width:1.41;stroke-linecap:round;stroke-linejoin:round;stroke-miterlimit:10;stroke-opacity:1"
       d="M 142.36719,113.07031 H 325.6875"
       id="path2" />
    <path
       style="fill:none;stroke:#2ec27d;stroke-width:1.41;stroke-linecap:round;stroke-linejoin:round;stroke-miterlimit:10;stroke-opacity:1"
       d="m 198.54687,118.73438 v -8.89454"
       id="path4" />
    <path
       style="fill:none;stroke:#2ec27d;stroke-width:1.41;stroke-linecap:round;stroke-linejoin:round;stroke-miterlimit:10;stroke-opacity:1"
       d="m 197.26562,126.0625 -0.29687,-0.10937 -0.14453,-0.3086 -0.11719,-0.28515 0.20313,-0.24219 0.35546,-0.10938 0.32032,-0.11328 h 0.35156 l 0.32422,0.0469 0.35156,0.0664 0.29297,0.0859 0.35156,0.15625 0.38281,0.17578 0.17579,0.28516 0.20703,0.26562 0.0859,0.35157 v 0.32812 l -0.0859,0.30859 -0.11719,0.3086 -0.29297,0.21875 -0.17969,0.30859 -0.35156,0.17578 -0.58594,0.26563 0.35157,0.0195 0.26562,0.19922 0.26172,0.15625 0.26562,0.17578 0.29297,0.17578 0.26563,0.28516 0.26172,0.26562 0.23437,0.24219 0.23828,0.26172 0.20313,0.33203 0.17578,0.26172 0.14844,0.26562 -0.14844,0.3086 0.0586,0.30859 -0.29297,0.21875 -0.17578,0.26562 -0.35156,0.12891 -0.35156,0.11328 -0.35156,0.0195 h -0.76563 l -0.41016,-0.0195 -0.35156,-0.0234 -0.29297,-0.0664 -0.29297,-0.10938 -0.32421,-0.043 -0.32422,-0.0898 0.29687,-0.0859 0.35156,0.15235"
       id="path6" />
    <path
       style="fill:none;stroke:#2ec27d;stroke-width:0.85;stroke-linecap:round;stroke-linejoin:round;stroke-miterlimit:10;stroke-opacity:1"
       d="m 226.39453,109.625 v 7.37109"
       id="path8" />
    <path
       style="fill:none;stroke:#2ec27d;stroke-width:0.85;stroke-linecap:round;stroke-linejoin:round;stroke-miterlimit:10;stroke-opacity:1"
       d="m 227.8125,124.01563 0.0273,-0.3086 -0.0273,-0.30859 -0.0312,-0.32813 -0.0312,-0.33203 -0.0859,-0.30859 -0.20703,-0.23828 -0.0859,-0.33203 -0.23437,-0.19922 -0.26563,-0.19532 -0.29297,-0.0898 -0.32421,-0.043 -0.29297,0.0664 -0.29297,0.0859 -0.23438,0.19921 -0.20703,0.26563 -0.0586,0.30469 -0.23438,0.19922 -0.0273,0.33203 -0.11719,0.28515 0.0273,0.35157 v 0.33203 l 0.0586,0.30468 0.20703,0.26563 0.20313,0.24219 0.29687,0.10937 0.32031,0.043 0.35157,-0.043 0.29296,-0.10937 0.20704,-0.24219 0.17578,-0.26563 0.20703,-0.21875 0.23437,-0.21875 v -0.30859 l 0.0859,-0.30859 0.11719,-0.3086 0.0312,-0.30859 v -0.35156 l 0.29297,-0.13282 -0.0859,-0.30859 0.11719,-0.28516 -0.11719,0.28516 -0.0625,0.30859 -0.14453,0.26563 0.0586,0.30859 -0.14844,0.3086 -0.0273,0.30468 v 0.33204 l -0.0586,0.33203 v 0.61328 l 0.11718,0.28906 0.0586,0.32813 0.32422,0.0234 0.29297,-0.0898 0.29296,-0.10938 0.29297,-0.13281"
       id="path10" />
    <path
       style="fill:#ff0000;fill-opacity:0.501961;fill-rule:nonzero;stroke:#ff0000;stroke-width:0.85;stroke-linecap:round;stroke-linejoin:round;stroke-miterlimit:10;stroke-opacity:1"
       d="m 207.35937,110.12891 -0.29296,-0.15235 -0.29688,-0.11328 -0.29297,-0.0859 -0.29297,-0.15234 -0.29297,-0.13281 -0.29296,-0.0898 -0.29297,-0.0664 -0.35157,-0.0195 -0.32421,-0.0469 -0.29297,-0.0859 -0.32422,-0.0234 -0.32031,-0.0195 -0.32422,-0.0469 -0.32422,0.0664 -0.32031,0.0234 -0.29297,0.0664 -0.32422,0.0195 -0.29297,0.0664 -0.32422,0.0898 -0.29297,0.10938 -0.29297,0.0664 -0.35156,0.10938 -0.26562,0.17578 -0.35157,0.13281 -0.29297,0.17578 -0.20703,0.21875 -0.20312,0.22266 -0.20703,0.21875 -0.14453,0.26562 -0.14844,0.26172 0.0312,0.3086 -0.0312,0.30859 0.0312,0.30859 0.14453,0.26172 0.20703,0.22266 0.20313,0.21875 0.29687,0.13281 0.32031,0.15235 0.32422,0.15625 0.29297,0.0859 0.32422,0.0234 0.32031,0.0898 0.29297,0.0859 0.32422,0.10938 0.29297,0.0664 0.32422,0.0234 0.35156,0.043 0.32031,0.0234 0.32422,0.0664 0.35156,0.043 0.29297,0.0664 h 0.64844 l 0.32031,-0.0234 0.35156,0.0234 0.32422,-0.0234 0.32422,0.0234 h 1.64063 l 0.41015,-0.0234 h 0.35547 l 0.35156,0.0234 h 0.64454 l 0.32421,0.0195 0.32032,0.0469 h 1.41015 l 0.35157,-0.0469 0.32421,-0.0195 h 2.40625 l 0.32032,0.0195 0.35156,-0.0195 h 1.41016 l 0.35156,0.0195 0.32422,0.0469 h 0.70312 l 0.32422,0.0195 h 1.05469 l 0.32422,0.0234 0.35156,-0.0234 0.32031,0.0234 0.35547,-0.0234 H 221.5 l 0.32422,-0.0195 0.32422,0.0195 H 222.5 l 0.29297,0.0664 h 0.35156 l 0.32422,0.0234 h 0.35156 l 0.32422,0.0195 0.32031,0.0469 0.35157,0.0195 h 0.35156 l 0.32422,-0.0195 0.32422,0.0195 h 0.70312 l 0.38281,0.0234 h 0.35157 l 0.32031,-0.0234 0.32422,0.0234 0.35156,0.043 h 1.02734 l 0.32422,0.0469 0.35156,-0.0234 0.32422,0.0234 0.32032,0.043 0.35156,0.043 h 0.35156 l 0.44141,0.043 0.70312,0.0469 0.32422,0.043 0.32422,0.0195 0.29297,0.0898 0.32031,0.0234 0.29688,0.0664 0.32031,0.0195 0.38281,0.043 0.32031,0.0234 0.38282,0.0234 0.32421,0.0664 0.32032,0.0195 h 0.32422 l 0.32421,0.0664 h 0.32032 l 0.29297,0.0664 h 0.32421 l 0.41016,0.0234 0.32422,0.0195 0.29297,0.0664 0.32422,-0.0195 0.32031,0.0195 0.32422,0.0234 h 0.67578 l 0.32031,-0.043 0.38281,0.043 h 2.4336 l 0.32422,-0.0234 h 0.64453 l 0.35156,-0.0859 0.32422,0.0195 h 0.38281 l 0.35156,-0.0195 0.38282,-0.0234 0.41015,-0.043 h 0.35157 l 0.32031,-0.0234 0.32422,-0.0195 h 0.67578 l 0.38281,-0.0469 h 0.73047 l 0.35156,-0.0195 h 0.35547 l 0.41016,-0.0234 h 0.67578 l 0.32031,-0.043 h 0.73438 l 0.32421,-0.0234 0.35157,0.0664 0.32031,-0.0664 0.41406,0.0234 h 0.35156 l 0.37891,-0.0469 h 0.67578 l 0.32422,-0.043 h 0.35156 l 0.32422,-0.0195 h 0.32031 l 0.32422,0.0195 0.41016,-0.043 h 0.67578 l 0.41016,-0.043 0.32422,-0.0234 h 0.64453 l 0.32031,-0.0234 0.38281,0.0234 0.35156,-0.0234 h 0.64454 l 0.35546,-0.043 0.32032,0.0664 0.35156,-0.0234 0.32422,-0.043 0.32422,0.0664 0.35156,-0.0664 0.35156,0.043 h 0.32422 l 0.35156,0.0234 0.32032,-0.0234 h 1.05859 l 0.37891,-0.043 0.32421,0.043 h 0.35157 l 0.32422,-0.043 0.35156,0.043 0.32422,-0.043 h 0.73047 l 0.35546,-0.0234 0.37891,0.0234 0.41016,-0.0234 h 0.76562 l 0.32031,-0.0625 0.38282,0.043 0.32422,-0.043 0.41015,-0.0234 h 1.02735 l 0.32031,0.0234 0.32422,-0.0234 h 0.35156 l 0.41016,0.0234 0.35156,-0.0234 0.32422,0.0234 0.32422,-0.0234 h 1.4375 l 0.35156,0.0234 0.32422,0.043 h 0.35156 l 0.29297,-0.0664 0.35156,0.0234 0.32422,-0.0469 0.32031,0.0469 0.38281,-0.0234 0.38282,0.0234 h 0.32031 l 0.35156,0.043 0.32422,0.0195 0.35156,0.0234 h 0.35157 l 0.32421,0.0898 0.32032,0.043 0.35547,0.0234 0.35156,0.0195 0.35156,0.043 0.38281,0.0234 0.35157,0.0664 0.32031,0.0234 0.29297,0.0664 0.41406,0.0195 0.35156,0.0234 0.35156,0.0664 0.38282,0.0195 0.32031,0.0469 0.41016,0.0195 0.29296,0.0664 h 0.32422 l 0.35157,0.0234 0.32421,0.0195 h 0.38282 l 0.3789,0.0664 h 0.67578 l 0.35157,0.0234 0.32422,0.043 h 0.64453 l 0.35156,0.043 h 0.64453 l 0.38281,0.0469 h 0.32422 l 0.35156,-0.0469 0.35157,0.0664 h 0.32422 l 0.41015,-0.0195 0.32031,0.0195 0.35547,0.0234 0.35157,-0.0234 0.32031,0.0234 h 0.76562 l 0.37891,-0.0234 h 1.05859 l 0.35157,-0.0195 h 0.32421 l 0.29297,-0.0664 h 0.35157 l 0.32031,-0.0664 h 0.67578 l 0.32422,-0.0234 h 0.32031 l 0.35547,-0.0195 h 0.37891 l 0.38281,-0.0469 0.35156,-0.0195 0.35156,-0.0664 h 0.38282 l 0.35156,-0.0234 h 0.41015 l 0.32422,-0.0195 h 0.32032 l 0.35546,-0.0469 h 1.05469 l 0.35156,-0.0195 0.32422,-0.0234 0.32032,-0.043 h 0.67578 l 0.32422,-0.0234 0.35156,0.0234 0.32422,-0.0234 h 0.35156 l 0.32031,-0.0195 h 0.32422 l 0.35156,-0.0664 0.32422,0.0195 0.32031,-0.0195 h 0.35547 l 0.35157,-0.0234 h 0.35156 l 0.35156,0.0234 h 0.67578 l 0.32031,-0.0234 h 1.76172 l 0.32422,0.043 h 0.32031 l 0.32422,-0.043 0.41016,0.0234 h 0.38281 l 0.35156,-0.0234 0.35157,-0.043 0.32422,-0.0234 0.35156,-0.0234 h 0.35156 l 0.38281,-0.043 0.32032,0.043 h 0.32421 l 0.32422,0.0234 0.37891,0.0234 0.32422,-0.0234 0.32031,0.0234 h 1.32422 l 0.32031,-0.0234 h 0.32422 l 0.32031,-0.0234 0.32422,-0.043 h 0.32422 l 0.29297,-0.0859 0.29297,-0.0898 0.32422,-0.043 0.32031,-0.15625 0.32422,-0.15235 0.29297,-0.0898 0.26562,-0.17578 0.26172,-0.19531 0.26563,-0.15625 0.29296,-0.17578 0.20313,-0.26172 0.14844,-0.26563 0.32422,-0.10937 0.14453,-0.26563 0.14843,-0.28515 0.0586,-0.3086 v -0.30859 l -0.0899,-0.3086 -0.20312,-0.26171 -0.11719,-0.28907 -0.14844,-0.26172 -0.26562,-0.15625 -0.29297,-0.1289 -0.26172,-0.17578 -0.29297,-0.0664 h -0.32422 l -0.32421,-0.0234 h -0.64454 l -0.35156,0.0234 h -1.78906 l -0.32422,0.0195 -0.35156,0.0469 h -0.38281 l -0.32032,-0.0469 -0.41406,0.0469 h -0.32031 l -0.32422,0.043 h -0.67578 l -0.32031,0.0664 -0.32422,0.0664 -0.37891,0.0195 -0.32422,0.0234 h -0.32422 l -0.32031,0.043 -0.35547,-0.043 -0.35156,0.0664 h -0.35156 l -0.29297,0.0664 -0.35156,-0.0469 h -0.35157 l -0.32422,0.0469 h -1.32031 l -0.32422,0.0195 -0.3789,-0.0195 -0.35157,0.0195 -0.35156,-0.0664 -0.38281,0.0469 -0.32422,-0.0469 h -0.32031 L 310,110.63672 h -0.32031 l -0.38282,0.0195 -0.35156,-0.0195 h -0.35156 l -0.35156,-0.0469 h -0.35157 l -0.32421,-0.0195 -0.38282,-0.0234 h -0.32031 l -0.35156,-0.043 -0.32422,-0.043 -0.29297,-0.0664 -0.35156,-0.0234 -0.32422,-0.0859 -0.29297,-0.0664 -0.32422,-0.0234 H 304.25 l -0.35156,-0.0664 -0.41016,-0.0234 -0.35156,-0.043 -0.35156,0.043 -0.38282,-0.043 -0.38281,-0.0195 -0.29297,-0.0664 h -0.32422 l -0.32031,-0.0234 -0.35156,-0.0234 -0.32422,-0.043 -0.38281,0.043 -0.35157,-0.0664 -0.35156,0.0234 -0.32422,-0.0234 h -0.35156 l -0.32031,-0.0195 -0.35156,-0.043 -0.32422,-0.0234 -0.35157,-0.0234 -0.32421,-0.043 h -0.32032 l -0.35547,-0.0234 -0.32031,-0.0195 -0.38281,-0.043 -0.35156,-0.0234 -0.32422,-0.0234 -0.29297,-0.0859 -0.32031,0.0195 -0.32422,-0.0664 -0.38281,-0.0859 h -0.32032 l -0.35156,-0.0234 -0.38281,-0.0195 -0.41016,-0.0469 -0.35156,-0.0195 -0.35547,-0.0234 h -0.32031 l -0.32422,0.0234 -0.32031,-0.0664 -0.32422,-0.043 -0.38281,0.0195 -0.41016,-0.0195 h -1.05469 l -0.38281,-0.0469 h -0.76172 l -0.38281,-0.0195 -0.35156,-0.0664 h -0.32422 l -0.35157,0.043 -0.32421,-0.0898 h -0.67188 l -0.38281,0.0234 -0.32422,-0.0234 h -1.08594 l -0.35156,-0.043 -0.32031,0.043 h -0.32422 l -0.35156,-0.043 -0.32422,-0.0195 -0.32032,0.0195 h -0.35156 l -0.38281,-0.0195 -0.32422,0.0195 -0.32031,-0.0195 -0.32422,0.0195 -0.32422,-0.0195 h -0.32031 l -0.32422,-0.0664 h -0.44141 l -0.32031,-0.0469 -0.41016,0.0234 -0.35546,-0.0664 h -0.32032 l -0.32422,-0.0195 -0.32031,-0.0234 -0.32422,-0.043 h -0.32422 l -0.32031,-0.0469 -0.32422,0.0234 -0.32422,-0.0664 -0.32031,-0.0234 -0.38281,-0.0195 -0.41016,-0.0664 h -0.32422 l -0.3789,-0.0234 h -1.4961 l -0.41406,0.0234 -0.29297,-0.0664 h -1.14453 l -0.35156,0.043 -0.35156,-0.043 h -0.32422 l -0.37891,0.043 -0.32422,-0.043 -0.35156,-0.043 -0.38281,0.0195 h -1.02735 l -0.3789,-0.0195 -0.32422,0.0195 -0.32422,0.0234 h -1.64062 l -0.41016,-0.0234 -0.32422,0.0234 h -0.67578 l -0.32031,-0.0234 h -0.79297 l -0.41016,0.0234 h -0.67578 l -0.38281,0.043 -0.35156,0.0234 -0.32422,0.0234 h -0.32032 l -0.29296,0.0625 h -0.38282 l -0.29297,0.0664 -0.70312,0.0469 -0.64844,0.0859 h -0.35156 l -0.32031,0.043 -0.35547,0.0469 -0.32031,0.0664 -0.38282,0.0625 -0.32422,0.0469 -0.32031,0.043 -0.35156,0.0234 -0.35156,0.0195 -0.32422,0.0469 -0.35156,0.043 -0.38282,0.043 -0.41015,0.043 -0.29297,0.0664 -0.35156,0.0664 -0.32422,0.0234 -0.32422,0.0664 -0.37891,0.0195 -0.35156,0.0234 h -0.32422 l -0.35156,0.043 -0.38281,0.0234 -0.32032,0.0234 h -0.67578 l -0.35156,0.043 h -0.32422 l -0.32422,0.043 h -0.32031 l -0.32422,0.043 -0.38281,0.0234 h -0.35156 l -0.29297,0.0664 h -0.35157 l -0.32421,0.043 -0.37891,0.043 -0.32422,0.0234 -0.32031,0.0234 -0.32422,0.043 -0.35156,0.0234 h -0.32422 l -0.32422,0.0195 h -0.32031 l -0.35157,0.0664 h -0.35156 l -0.29687,0.0664 -0.35157,0.0234 -0.32031,0.0195 -0.38281,0.0469 -0.35156,0.0195 -0.41016,0.0234 -0.32422,0.043 -0.32422,0.0898 -0.35156,-0.0664 -0.32031,0.0195 -0.32422,0.0469 h -0.38281 l -0.35157,-0.0469 -0.35156,0.0469 h -0.67578 l -0.35156,0.0195 h -0.32031 l -0.32422,0.0234 h -0.35157 l -0.35156,0.0664 h -0.64844 l -0.35156,0.0195 -0.32031,0.0469 -0.35547,0.043 -0.35156,0.043 -0.4375,0.043 -0.41406,0.0898 -0.37891,0.043 -0.32422,0.0234 -0.32031,0.0664 -0.32422,-0.043 -0.38281,0.043 h -0.73438 l -0.35156,0.0195 H 225.875 l -0.35156,0.0234 h -0.32422 l -0.35156,0.043 h -0.35157 l -0.32422,-0.043 h -0.64453 l -0.32422,-0.0234 -0.35156,-0.0195 h -0.70312 l -0.32422,-0.043 -0.35156,-0.0234 -0.29297,-0.0664 h -0.32422 l -0.32031,-0.043 -0.29688,-0.0898 -0.4375,0.0234 -0.29297,-0.0664 h -0.64844 l -0.32031,-0.0234 h -0.64844 l -0.32031,-0.0195 h -0.64453 l -0.29687,-0.0664 -0.32032,0.0195 -0.41015,-0.0195 -0.32422,-0.0898 -0.38281,0.0234 -0.32032,-0.0234 h -0.38281 l -0.32422,-0.0195 h -0.35156 l -0.32031,0.0195 h -1.37891 l -0.32422,0.0234 -0.38281,-0.043 -0.32031,-0.0664 -0.29297,-0.0664 -0.35547,-0.043 -0.58594,-0.13282 -0.32031,-0.0469 -0.29688,-0.15234 h -0.32031 l -0.29297,-0.10938 -0.38281,-0.043 -0.29297,-0.0898 -0.41015,-0.0234 -0.32422,0.0234 h -0.32422 l -0.32031,-0.0234 -0.38282,-0.0195 -0.35156,0.0195 -0.32422,0.0234 -0.26172,0.17578 -0.0312,0.30859 -0.14453,0.46094 -0.0312,0.46484 0.0586,0.57032 0.0312,0.30859"
       id="path12" />
    <path
       style="fill:none;stroke:#ff0000;stroke-width:0.85;stroke-linecap:round;stroke-linejoin:round;stroke-miterlimit:10;stroke-opacity:1"
       d="m 155.44922,85.722656 0.14844,-0.265625 -0.0312,-0.304687 V 84.84375 l -0.0586,-0.332031 0.0312,-0.351563 -0.11719,-0.375 0.0586,-0.351562 0.0859,-0.328125 -0.0273,-0.332031 -0.11719,-0.285157 v -0.375 l 0.0586,-0.328125 0.0273,-0.355468 -0.0586,-0.371094 -0.0586,-0.398438 0.0312,-0.375 L 155.53906,80 l -0.0586,-0.351562 -0.0586,-0.308594 v -0.660156 l -0.0312,-0.308594 0.29297,0.08984 0.32422,0.04297 h 0.35156 l 0.35157,0.02344 0.38281,0.01953 0.29297,0.06641 0.32031,0.175781 0.29688,0.08984 0.32031,0.109375 0.20703,0.21875 0.35156,0.199219 0.41016,0.175781 0.26562,0.175781 0.20313,0.351563 0.29297,0.199219 0.23828,0.265625 0.20312,0.261719 0.35157,0.617187 0.0898,0.308594 0.0586,0.351562 0.0859,0.308594 -0.0859,0.308594 0.0273,0.308593 -0.0586,0.328126 -0.23437,0.332031 0.0312,0.308593 -0.0898,0.304688 -0.23437,0.308594 -0.20703,0.332031 -0.14453,0.328125 -0.23438,0.199219 -0.23437,0.242187 -0.17578,0.265625 -0.29297,0.195313 -0.32422,0.113281 -0.32422,0.128906 -0.35156,0.02344 -0.32032,0.06641 -0.38281,-0.04297 -0.41015,-0.04687 -0.29297,-0.128906 -0.32422,-0.02344 -0.32422,-0.08984 -0.29297,-0.06641 0.0898,-0.304688"
       id="path14" />
    <path
       style="fill:none;stroke:#ff0000;stroke-width:0.85;stroke-linecap:round;stroke-linejoin:round;stroke-miterlimit:10;stroke-opacity:1"
       d="m 165.28125,84.136719 0.32031,-0.06641 0.29297,0.06641 0.32422,0.04687 h 0.32422"
       id="path16" />
    <path
       style="fill:none;stroke:#ff0000;stroke-width:0.85;stroke-linecap:round;stroke-linejoin:round;stroke-miterlimit:10;stroke-opacity:1"
       d="m 164.86719,81.746094 h 1.28515"
       id="path18" />
    <path
       style="fill:none;stroke:#ff0000;stroke-width:0.85;stroke-linecap:round;stroke-linejoin:round;stroke-miterlimit:10;stroke-opacity:1"
       d="m 175.43359,76.171875 -0.29297,0.06641 -0.26562,0.175781 -0.29297,0.109376 -0.11719,0.308593 -0.29297,0.199219 -0.17578,0.261719 -0.17578,0.332031 -0.20703,0.261719 -0.23437,0.308593 -0.20704,0.308594 -0.0273,0.308594 -0.14844,0.265625 -0.0586,0.351563 0.0312,0.351562 -0.0586,0.351562 -0.11719,0.394532 -0.0586,0.375 0.0859,0.375 0.0898,0.394531 -0.0586,0.355469 -0.0312,0.304687 0.11719,0.332031 0.0898,0.351563 0.0273,0.351563 0.0586,0.351562 0.11719,0.289062 0.14844,0.394532 0.17578,0.285156 0.11718,0.285156 0.11719,0.308594 0.17578,0.265625 0.14844,0.285156 0.20313,0.242188 v -0.308594"
       id="path20" />
    <path
       style="fill:none;stroke:#ff0000;stroke-width:0.85;stroke-linecap:round;stroke-linejoin:round;stroke-miterlimit:10;stroke-opacity:1"
       d="m 179.04297,81.058594 -0.29297,-0.132813 0.0586,-0.308593 0.26172,-0.21875 0.32422,-0.113282 h 0.32031 l 0.32422,0.02344 0.35156,0.08984 0.35157,0.128906 0.35156,0.113281 0.26562,0.261719 0.29297,0.242187 0.23438,0.199219 0.14844,0.285156 0.14453,0.308594 -0.0859,0.308594 -0.17578,0.261718 -0.20703,0.222657 -0.32032,0.109375 -0.32421,0.08984 -0.32422,-0.02344 0.32422,-0.132812 0.32421,0.08984 0.26172,0.152344 0.35157,0.109375 0.23437,0.222656 0.23828,0.21875 0.14453,0.328125 0.0312,0.332031 -0.11718,0.308594 -0.14844,0.308594 -0.38281,0.08594 -0.32032,0.109374 -0.29297,-0.06641 -0.32421,-0.04297 -0.35157,-0.06641 -0.29297,-0.152343 -0.29296,-0.08984 -0.23829,-0.195313 0.29688,-0.113281"
       id="path22" />
    <path
       style="fill:none;stroke:#ff0000;stroke-width:0.85;stroke-linecap:round;stroke-linejoin:round;stroke-miterlimit:10;stroke-opacity:1"
       d="m 185.67187,84.929688 -2.375,3.191406"
       id="path24" />
    <path
       style="fill:none;stroke:#ff0000;stroke-width:0.85;stroke-linecap:round;stroke-linejoin:round;stroke-miterlimit:10;stroke-opacity:1"
       d="m 192.62891,80.550781 -0.44141,3.410157"
       id="path26" />
    <path
       style="fill:none;stroke:#ff0000;stroke-width:0.85;stroke-linecap:round;stroke-linejoin:round;stroke-miterlimit:10;stroke-opacity:1"
       d="m 190.51562,81.847656 3.57813,0.375"
       id="path28" />
    <path
       style="fill:none;stroke:#ff0000;stroke-width:0.85;stroke-linecap:round;stroke-linejoin:round;stroke-miterlimit:10;stroke-opacity:1"
       d="m 200.60937,82.773438 -0.23437,-0.570313 -0.17578,-0.265625 -0.26563,-0.21875 -0.23437,-0.222656 -0.14453,-0.261719 -0.29688,-0.132813 -0.29297,-0.08984 -0.29297,-0.08594 -0.32031,-0.04297 -0.32422,0.04297 -0.26562,0.152344 -0.20313,0.242187 -0.14843,0.265626 -0.11719,0.308593 0.0312,0.328125 -0.23828,0.242188 0.12109,0.308594 -0.0586,0.332031 0.0273,0.328125 0.0898,0.308594 0.14454,0.308593 0.29296,0.175781 0.29297,0.132813 0.29297,0.08594 0.32422,0.04688 0.26563,-0.179688 0.29296,-0.21875 0.29297,-0.132812 0.20703,-0.21875 0.20313,-0.21875 0.20703,-0.222657 0.26172,-0.175781 0.20703,-0.285156 0.26563,-0.152344 0.20312,-0.265625 0.17578,-0.265625 0.23438,-0.195312 0.23437,-0.199219 0.26563,-0.175781 0.32422,-0.04297 0.29296,-0.08984 0.32032,-0.04297 0.32422,-0.04297 0.32421,0.04297 0.32032,0.04297 0.35156,0.08984 0.29687,0.175781 0.26172,0.152344 0.20703,0.242187 0.26172,0.199219 0.0898,0.328125 0.0586,0.308594 -0.0312,0.308593 -0.0859,0.351563 -0.11718,0.308594 -0.26563,0.175781 -0.20312,0.265625 -0.26563,0.152344 -0.29297,0.06641 -0.32422,0.02344 -0.29297,-0.06641 -0.38281,-0.04297 -0.26172,-0.179688 -0.23437,-0.21875 -0.26563,-0.199219 -0.29297,-0.175781 -0.26562,-0.175781 -0.23438,-0.195313 -0.29296,-0.222656 -0.14454,-0.261719 -0.20703,-0.222656 -0.20703,-0.21875 -0.23437,-0.199219 -0.23438,-0.195312"
       id="path30" />
    <path
       style="fill:none;stroke:#ff0000;stroke-width:0.85;stroke-linecap:round;stroke-linejoin:round;stroke-miterlimit:10;stroke-opacity:1"
       d="m 206.33203,77.292969 -0.17578,0.265625 0.23437,0.199218 0.20313,0.261719 0.17578,0.265625 0.17969,0.261719 0.23437,0.332031 0.17578,0.328125 0.17579,0.308594 0.14453,0.332031 0.14843,0.375 0.17579,0.394532 0.0859,0.375 0.1211,0.351562 0.11718,0.351562 -0.0312,0.351563 V 83.125 l -0.0859,0.351562 -0.20703,0.332032 -0.14844,0.285156 0.0586,0.332031 -0.11719,0.285157 -0.20312,0.308593 -0.23438,0.261719 -0.11718,0.351562 -0.26563,0.199219 -0.20703,0.265625 -0.29297,0.06641 0.26563,-0.15625"
       id="path32" />
    <path
       style="fill:none;stroke:#ff7f00;stroke-width:0.85;stroke-linecap:round;stroke-linejoin:round;stroke-miterlimit:10;stroke-opacity:1"
       d="m 242.21875,81.695312 -0.11719,-0.285156 0.20313,-0.242187 0.26562,-0.175781 0.29297,-0.06641 0.26563,0.175781 0.14453,0.308594 0.0586,0.308594 0.11719,0.328125 0.0586,0.351563 v 0.332031 l 0.0898,0.308593 -0.0312,0.308594 0.11718,0.304688 0.0586,0.308594 0.32422,0.132812 0.35156,0.04297 0.29297,-0.175781 0.23437,-0.242188 0.23828,-0.242188 0.11719,-0.285156 0.0859,-0.328125 0.17578,-0.308593 0.11719,-0.351563 0.0312,-0.308594 0.0859,-0.308593 0.14844,-0.308594 -0.0312,-0.308594 -0.11719,0.285156 -0.0586,0.332032 -0.14453,0.261718 v 0.355469 l -0.0312,0.304687 -0.14453,0.332032 -0.0586,0.375 v 0.351562 l 0.0586,0.308594 -0.0898,0.351562 0.0586,0.308594 0.23437,0.242188 0.32422,0.01953 0.26563,-0.175781 0.23437,-0.261719 0.26172,-0.175781 0.14844,-0.265625"
       id="path34" />
    <path
       style="fill:none;stroke:#ff7f00;stroke-width:0.85;stroke-linecap:round;stroke-linejoin:round;stroke-miterlimit:10;stroke-opacity:1"
       d="m 250.31641,84.007812 1.55468,-0.355468"
       id="path36" />
    <path
       style="fill:none;stroke:#ff7f00;stroke-width:0.85;stroke-linecap:round;stroke-linejoin:round;stroke-miterlimit:10;stroke-opacity:1"
       d="m 250.60937,82.507812 0.70704,0.08984"
       id="path38" />
    <path
       style="fill:none;stroke:#ff7f00;stroke-width:0.85;stroke-linecap:round;stroke-linejoin:round;stroke-miterlimit:10;stroke-opacity:1"
       d="m 260.5,75.597656 -0.14844,0.308594 -0.23437,0.222656 -0.26172,0.195313 -0.26563,0.265625 -0.14843,0.351562 -0.20313,0.265625 -0.20703,0.261719 -0.14453,0.289062 -0.14844,0.328126 -0.17578,0.332031 -0.17578,0.351562 -0.17578,0.371094 -0.11719,0.441406 L 257.94531,80 l -0.0273,0.308594 -0.0312,0.332031 0.0312,0.328125 -0.17578,0.925781 -0.0312,0.308594 0.0586,0.304687 0.0312,0.332032 0.0273,0.328125 0.0312,0.398437 0.0586,0.394532 0.0859,0.375 0.0898,0.375 0.14453,0.351562 0.20703,0.332031 0.0899,0.328125 0.23437,0.265625 0.17578,0.261719 0.23438,0.199219 0.29297,0.152343 0.35156,0.04688 0.0586,-0.308594"
       id="path40" />
    <path
       style="fill:none;stroke:#ff7f00;stroke-width:0.85;stroke-linecap:round;stroke-linejoin:round;stroke-miterlimit:10;stroke-opacity:1"
       d="m 262.78906,82.640625 -0.0586,0.308594 0.0586,0.308593 -0.0312,0.351563 0.14844,0.308594 0.20312,0.265625 0.20704,0.242187 0.35156,0.175781 h 0.35156 l 0.32422,-0.15625 0.32422,-0.132812 0.20312,-0.242188 0.26563,-0.285156 0.20312,-0.261718 0.17578,-0.308594 0.11719,-0.308594 0.20703,-0.308594 0.0312,-0.308594 0.0586,-0.308593 -0.0586,-0.308594 -0.23828,-0.21875 -0.32031,-0.199219 -0.23438,-0.195312 -0.35156,-0.08984 h -0.32422 l -0.35156,0.04297 -0.32422,0.15625 -0.26172,0.175781 -0.26562,0.242188 -0.20703,0.261718 -0.20313,0.289063 -0.17578,0.328125 -0.11719,0.351562 -0.0586,0.375 v 0.332032 l 0.0859,0.308593 0.0312,0.304688 0.23437,0.222656 0.20313,0.242187 0.32422,0.08594 0.29296,0.06641 0.29297,-0.08594 0.32422,-0.04687 0.29297,-0.08594 0.29297,-0.175781 0.32422,-0.199219 0.26172,-0.152344 0.20703,-0.265624 0.26562,-0.199219 0.17578,-0.261719 0.17579,-0.265625 0.14453,-0.285156 -0.0274,-0.308594 -0.23437,0.21875 -0.0586,0.308594 v 0.332031 l -0.11718,0.285156 -0.0899,0.328125 0.0899,0.332031 v 0.375 l 0.0859,0.328126 0.0899,0.308593 0.20312,0.242188 0.32422,0.02344 0.32031,-0.175781 0.26563,-0.199219 0.32422,-0.199218 0.26172,-0.21875 0.14843,-0.265626 0.26172,-0.21875 0.17969,-0.265624"
       id="path42" />
    <path
       style="fill:none;stroke:#ff7f00;stroke-width:0.85;stroke-linecap:round;stroke-linejoin:round;stroke-miterlimit:10;stroke-opacity:1"
       d="m 271.41406,84.796875 -0.17578,0.265625 -0.14453,0.332031 -0.20703,0.285157 -0.20703,0.21875 -0.26172,0.199218"
       id="path44" />
    <path
       style="fill:none;stroke:#ff7f00;stroke-width:0.85;stroke-linecap:round;stroke-linejoin:round;stroke-miterlimit:10;stroke-opacity:1"
       d="m 276.31641,81.101562 0.14453,0.265626 v 0.328124 l -0.0586,0.351563 -0.0586,0.332031 -0.0273,0.351563 -0.0899,0.308593 0.0312,0.328126 -0.0312,0.351562"
       id="path46" />
    <path
       style="fill:none;stroke:#ff7f00;stroke-width:0.85;stroke-linecap:round;stroke-linejoin:round;stroke-miterlimit:10;stroke-opacity:1"
       d="m 275.60937,81.960938 0.29688,-0.113282 0.29297,-0.128906 0.32031,-0.02344 0.32422,-0.02344 h 0.32422 l 0.35156,0.04687 0.32031,0.04297"
       id="path48" />
    <path
       style="fill:none;stroke:#ff7f00;stroke-width:0.85;stroke-linecap:round;stroke-linejoin:round;stroke-miterlimit:10;stroke-opacity:1"
       d="m 284.50391,83.832031 -0.14844,-0.289062 -0.11719,-0.285157 -0.0312,-0.328124 -0.11719,-0.289063 0.0312,-0.328125 0.0274,-0.332031 0.14843,-0.261719 0.0586,-0.308594 0.29297,-0.175781 0.0898,-0.308594 0.32031,-0.109375 0.29297,-0.199218 0.29688,-0.132813 0.35156,0.04297 0.29297,0.08984 0.23437,0.199218 0.17578,0.328125 0.17579,0.265625 -0.0586,0.351563 0.0899,0.308593 -0.11719,0.308594 -0.1211,0.308594 -0.0859,0.304688 -0.11719,0.289062 -0.26563,0.261719 -0.23437,0.199219 -0.32031,0.175781 -0.29688,0.152343 -0.3789,-0.01953 -0.29297,-0.242187 -0.29297,-0.109375 -0.20703,-0.222657 -0.26563,-0.21875 -0.20312,-0.242187 -0.26563,-0.265625 -0.14453,-0.285156 -0.41406,-0.484375 -0.20313,-0.21875 -0.26562,-0.15625 -0.20313,-0.238281 -0.29297,-0.132813 -0.32421,0.01953 -0.26563,0.15625 -0.23437,0.195313 -0.0586,0.355469 -0.0859,0.351562 0.11719,0.375 0.0859,0.351562 0.0312,0.308594 0.23437,0.21875 0.20313,0.242188 0.23828,0.242187 0.32031,0.08594 0.38282,0.04687 0.32031,-0.04687 0.32422,-0.152344 0.29297,-0.175781 0.32421,-0.199219 0.26172,-0.175781 0.20703,-0.308594 0.20704,-0.21875 0.23437,-0.21875 0.23438,-0.222656 V 82.15625 l 0.17578,-0.285156 0.11718,-0.285156"
       id="path50" />
    <path
       style="fill:none;stroke:#ff7f00;stroke-width:0.85;stroke-linecap:round;stroke-linejoin:round;stroke-miterlimit:10;stroke-opacity:1"
       d="m 288.28906,74.390625 0.32031,0.01953 0.11719,0.308594 0.14844,0.285156 0.14453,0.289063 0.17969,0.304687 0.14453,0.375 0.11719,0.285156 0.11718,0.355469 0.23438,0.835938 0.11719,0.4375 0.14843,0.441406 0.0274,0.308594 0.0312,0.308593 0.0859,0.460938 0.0586,0.441406 0.0586,0.328125 v 0.351563 l 0.0899,0.355468 0.0312,0.304688 -0.0625,0.398438 -0.0274,0.394531 0.0586,0.332031 0.0312,0.4375 -0.0899,0.417969 -0.0586,0.375 -0.0898,0.375 -0.0586,0.417969 -0.0859,0.375 -0.11718,0.351562 -0.17578,0.417969 -0.23438,0.375 -0.23437,0.328125 -0.11719,0.332031 -0.17969,0.261719 -0.26172,0.289062 -0.23437,0.242188"
       id="path52" />
    <path
       style="fill:none;stroke:#ff7f00;stroke-width:0.85;stroke-linecap:round;stroke-linejoin:round;stroke-miterlimit:10;stroke-opacity:1"
       d="m 226.19922,117.35156 v -8.10547"
       id="path54" />
    <path
       style="fill:#ff7f00;fill-opacity:0.501961;fill-rule:nonzero;stroke:#ff7f00;stroke-width:0.85;stroke-linecap:round;stroke-linejoin:round;stroke-miterlimit:10;stroke-opacity:1"
       d="m 235.44141,102.03125 0.0859,-0.33203 -0.23437,-0.19531 -0.29297,-0.0898 -0.29297,-0.0664 -0.32422,-0.0859 -0.32031,-0.0234 -0.32422,-0.0234 -0.32422,-0.043 -0.32031,0.043 h -0.32422 l -0.35156,0.0234 -0.35156,-0.0234 -0.35157,0.0234 -0.32422,-0.0234 -0.32421,0.0898 -0.32032,0.043 -0.32422,0.0898 -0.32421,0.043 -0.32032,0.10937 -0.32422,0.0664 -0.29296,0.10938 -0.32422,0.17578 -0.26172,0.15625 -0.32422,0.13281 -0.32031,0.15234 -0.26563,0.15235 -0.20703,0.22265 -0.20312,0.24219 -0.26563,0.19531 -0.20312,0.26563 -0.20704,0.21875 -0.23437,0.19922 -0.11719,0.35156 -0.20703,0.24219 -0.20312,0.28515 -0.14844,0.35547 -0.14453,0.26172 -0.14844,0.26563 -0.11719,0.32812 0.0273,0.30859 -0.26172,0.21875 -0.0586,0.3086 v 0.33203 l -0.0312,0.32812 0.14844,0.26563 0.0859,0.30859 -0.0586,0.3086 0.14844,0.26172 0.14844,0.28906 0.11719,0.32812 0.29297,0.13282 0.20312,0.21875 0.29297,0.17578 0.29687,0.0898 0.32032,0.0859 0.32422,0.0234 0.3789,0.0234 h 0.35547 l 0.35156,0.043 h 1.34766 l 0.32422,-0.043 h 0.67578 l 0.32031,-0.0234 0.32422,-0.0898 0.29297,-0.0625 0.32422,-0.0234 h 1.32031 l 0.37891,-0.0664 0.35547,-0.0234 0.35156,-0.0195 0.29297,-0.0664 0.32031,-0.0234 h 0.35547 l 0.32031,-0.043 0.32422,-0.0234 h 0.32031 l 0.35547,-0.0195 h 0.35156 l 0.32032,-0.0469 0.35546,-0.0195 0.32032,-0.0664 h 0.35156 l 0.35156,-0.0234 h 0.32422 l 0.32422,-0.0195 0.32031,-0.0469 0.38281,-0.043 h 0.32422 l 0.70313,-0.0859 0.32422,-0.0469 0.32031,-0.0195 0.29297,-0.0664 0.32422,-0.0469 0.38281,-0.0625 0.35156,-0.0664 0.29297,-0.0898 0.32031,-0.043 0.32422,-0.0664 0.35156,-0.0234 0.29297,-0.0664 0.32422,-0.0625 0.41016,-0.0234 0.29297,-0.0898 0.32422,-0.0195 0.32421,-0.0469 0.41016,-0.0195 0.32031,-0.0234 0.32422,-0.0664 0.32422,-0.0859 0.37891,-0.0234 0.32422,-0.0664 0.38281,-0.0195 0.32031,-0.0469 0.38281,-0.043 0.32032,-0.0664 0.32421,-0.0664 0.35157,-0.043 0.35156,-0.0664 0.32422,-0.0234 h 0.35156 l 0.32422,-0.043 h 0.41016 l 0.32421,-0.0195 0.32032,0.0195 0.38281,0.043 0.32422,0.0234 0.32031,0.0234 0.32422,-0.0234 0.35156,0.0664 h 0.32422 l 0.32031,0.0234 0.35157,0.0195 h 0.35156 l 0.32422,0.0469 h 0.32422 l 0.3789,0.043 0.35547,-0.0234 0.41016,0.0664 h 0.35156 l 0.37891,-0.043 0.35546,0.043 h 0.32032 l 0.41015,0.0234 0.32422,0.0195 0.38281,-0.0195 h 1.02735 l 0.35156,-0.0664 0.35156,0.043 h 0.35157 l 0.35156,-0.043 h 0.32422 l 0.41015,0.043 h 0.32422 l 0.37891,0.0234 0.35156,0.0195 h 0.73438 l 0.35156,0.0469 0.35547,-0.0469 0.35156,-0.0195 0.35156,0.0195 0.32031,-0.043 0.35547,-0.0664 0.35157,-0.0195 h 0.70312 l 0.32422,-0.0469 0.37891,0.0469 h 1.08593 l 0.35157,0.043 0.38281,-0.0234 0.32422,0.0234 0.32031,0.0859 0.38281,-0.0195 0.29297,0.0664 h 1.41016 l 0.32031,-0.0469 0.38281,0.0469 0.35156,0.0195 h 0.32422 l 0.35157,0.0234 0.35156,0.043 h 0.38281 l 0.41016,0.0234 h 0.35156 l 0.38281,0.0195 h 0.41016 l 0.32031,0.0469 h 0.32422 l 0.38281,0.043 0.37891,-0.0234 0.35547,0.0234 0.32031,0.043 h 0.35156 l 0.41016,0.0234 h 0.38281 l 0.32422,0.0195 0.32031,-0.0195 0.38281,0.0195 h 0.32422 l 0.32032,-0.0195 0.32421,0.0195 h 0.70313 l 0.41016,0.0469 h 0.38281 l 0.35156,-0.0469 0.35156,0.0469 h 0.32422 l 0.38281,-0.0469 h 0.73047 l 0.35547,0.0469 h 0.37891 l 0.35156,0.0195 0.41406,0.0234 h 0.41016 l 0.35156,0.043 0.35156,-0.043 0.41016,0.043 h 0.73438 l 0.38281,0.0234 0.35156,0.0664 h 0.32031 l 0.32422,0.0195 0.32422,-0.0195 h 0.37891 l 0.32422,0.0195 h 1.34765 l 0.41406,0.0664 0.41016,0.0234 0.37891,-0.0234 0.38281,0.0469 h 0.38281 l 0.37891,0.043 0.38281,0.0234 h 0.35156 l 0.38282,0.0195 0.35156,0.043 0.38281,0.0234 0.32031,0.0234 0.32422,0.043 0.35156,0.0234 h 0.32422 l 0.35157,0.0195 0.29296,0.0664 0.35157,-0.0234 h 0.32422 l 0.3789,0.0469 h 0.73438 l 0.35156,0.043 0.32422,0.0234 0.4414,-0.0234 0.35157,0.0234 0.32031,0.0195 0.32422,0.0469 0.32422,0.0195 0.41015,0.0234 0.35157,0.0859 h 0.41015 l 0.32422,0.0898 0.29297,0.0664 0.32422,0.0664 0.35156,0.043 0.32031,0.0898 0.41016,0.0625 0.32422,0.0664 0.35156,0.0898 0.35156,0.043 0.32422,0.0664 0.29297,0.0664 0.38281,0.0234 0.32032,0.0195 0.32421,0.0898 0.32422,0.0664 0.29297,0.0664 0.35156,0.043 0.32422,0.043 0.35157,0.043 0.29296,0.0664 0.32422,0.0234 0.29297,0.0664 0.32031,0.0195 0.35157,0.0664 0.35547,0.0234 0.70312,0.0859 0.70313,0.13281 0.35156,0.0234 0.32422,0.0859 0.35156,0.0234 0.32422,0.043 0.35156,0.0469 0.29297,0.0664 0.32422,0.0195 0.32031,-0.0195 0.44141,0.0195 0.32422,0.043 h 0.67187 l 0.32422,-0.0625 0.32422,-0.0234 0.32031,-0.043 0.41016,-0.0469 0.29297,-0.0664 0.35546,-0.0859 0.35157,-0.0664 0.29297,-0.0898 0.32421,-0.0195 0.29297,-0.0898 0.35157,-0.0664 0.29296,-0.10937 0.29297,-0.0664 0.32422,-0.10937 0.29297,-0.0664 0.35156,-0.10937 0.29297,-0.0859 0.29297,-0.17969 0.29297,-0.10937 0.26562,-0.15235 0.29297,-0.17578 0.20703,-0.24219 0.26172,-0.17578 0.23438,-0.28515 0.20703,-0.24219 0.14453,-0.28906 0.20703,-0.26172 v -0.33203 l 0.23438,-0.21875 -0.17578,-0.26563 0.11718,-0.30859 -0.11718,-0.28516 -0.11719,-0.32812 -0.26563,-0.19922 -0.14453,-0.26563 -0.26562,-0.15234 -0.32032,-0.19922 -0.32421,-0.0664 -0.29297,-0.17578 -0.29297,-0.10937 -0.32422,-0.15235 -0.23438,-0.19921 -0.32421,-0.10938 -0.32032,-0.0469 -0.32422,-0.0859 -0.35156,-0.13281 -0.32422,-0.0859 -0.26172,-0.15625 -0.32421,-0.15235 -0.32422,-0.0234 -0.29297,-0.19922 -0.29297,-0.0664 -0.35156,-0.10937 -0.32422,-0.0859 -0.32031,-0.0664 -0.32422,-0.0664 -0.35157,-0.0898 -0.38281,-0.0859 -0.35156,-0.043 -0.35156,-0.0664 -0.35157,-0.0234 -0.32421,-0.0664 -0.35157,-0.0195 -0.4414,-0.0469 -0.4961,-0.043 -0.35156,-0.0664 -0.29297,-0.0664 -0.38281,-0.0195 -0.32422,-0.0234 -0.70312,-0.13281 -0.32422,-0.043 -0.35157,-0.0898 -0.35156,-0.043 -0.32422,-0.0234 -0.3789,-0.0625 -0.35157,-0.0234 -0.29687,-0.0664 -0.32031,-0.043 h -0.35157 l -0.38281,-0.0664 -0.32422,-0.0234 -0.29297,-0.0664 -0.41015,-0.0664 -0.38281,0.0469 -0.32032,-0.0664 -0.38281,-0.0664 h -0.41016 l -0.35156,-0.0234 -0.35156,-0.0664 h -0.32422 l -0.82031,-0.0859 h -0.32422 l -0.38281,-0.0234 h -0.35157 l -0.41015,-0.0234 -0.44141,-0.0625 h -0.4375 l -0.5,-0.0234 h -0.32422 l -0.4375,-0.0664 -0.41015,-0.0234 h -0.41407 l -0.4375,-0.0625 h -0.82421 l -0.32032,-0.0664 -0.32422,-0.0234 -0.46875,-0.0234 h -0.67578 l -0.41015,-0.0664 -0.38282,-0.0195 -0.32031,-0.043 h -0.35156 l -0.35547,-0.0234 h -0.37891 l -0.29296,-0.0664 -0.35157,-0.043 h -0.79297 l -0.41015,-0.0469 H 295.125 l -0.38281,-0.0195 -0.35157,-0.0664 h -0.38281 l -0.32031,-0.0234 -0.35156,-0.0195 -0.32422,-0.0469 H 292.25 l -0.35156,-0.043 h -0.32422 l -0.32422,-0.043 -0.35156,0.043 h -0.35157 l -0.38281,-0.0664 -0.3789,-0.0195 h -0.32422 l -0.35157,0.0195 -0.38281,-0.0195 h -0.46875 l -0.32422,-0.0469 -0.3789,0.0469 -0.35157,-0.0469 -0.35156,0.0469 -0.38281,0.0195 -0.41016,0.0234 h -0.79297 l -0.41015,0.043 h -1.08594 l -0.35156,0.0234 -0.44141,-0.0234 -0.35156,0.0234 -0.41016,-0.0234 -0.41406,0.0234 -0.32031,-0.0234 -0.35156,-0.043 -0.38282,-0.0234 h -0.73437 l -0.35156,-0.0195 h -1.84766 l -0.44141,-0.0469 h -1.58203 l -0.32422,-0.0195 h -0.70312 l -0.38281,0.0195 -0.35157,-0.0195 -0.35156,0.0195 h -0.35156 L 273,100.53516 h -0.70313 l -0.29296,-0.0664 -0.38282,0.043 -0.38281,-0.0664 -0.35156,0.0234 H 270.125 l -0.35156,0.043 h -0.70703 l -0.41016,0.0234 -0.38281,0.0195 h -0.82032 l -0.32031,0.0469 h -0.41406 l -0.41016,0.0195 -0.3789,-0.0195 -0.41407,0.043 h -0.32031 l -0.5,0.0664 -0.35156,0.0195 -0.35156,-0.0195 -0.38282,0.0195 -0.35156,0.0469 -0.38281,-0.0469 h -1.05469 l -0.4414,-0.0195 h -0.32032 l -0.38281,0.0664 -0.41016,-0.0469 -0.35156,0.0664 -0.38281,0.0234 -0.44141,-0.0234 -0.35156,0.0234 -0.41016,0.043 h -0.35156 l -0.32422,0.0898 -0.32031,-0.0469 h -0.32422 l -0.41015,0.0898 h -0.32422 l -0.35157,0.0664 -0.32421,0.0234 -0.32032,0.043 -0.38281,0.0195 h -0.35156 l -0.35156,0.0234 h -0.38282 l -0.35156,0.043 -0.38281,0.0234 -0.35156,0.0234 -0.35157,0.0859 -0.35156,0.0898 h -0.32422 l -0.32031,0.0859 h -0.32422 l -0.35156,0.0898 -0.35156,0.0664 h -0.32422 l -0.29297,0.0664 -0.32422,0.043 -0.35156,0.0664 -0.29297,0.0859 -0.46875,0.0664 -0.32422,0.043 -0.35156,0.0664 -0.35157,0.0234 -0.32421,0.0664 h -0.32032 l -0.32422,0.0859 -0.32421,0.0234 -0.29297,0.0664 -0.35157,0.0234 h -0.41015 l -0.29297,0.0625 -0.41016,0.0664 -0.35156,0.0234 -0.32422,0.0234 -0.32422,0.043 -0.3789,0.0859 -0.32422,0.0234 -0.35156,0.0234 -0.32422,0.043 -0.41016,0.0234 h -0.64453 l -0.29297,-0.0664 -0.38281,-0.0234 -0.35156,-0.0664 -0.38282,-0.0195 h -0.73437 l -0.32031,-0.0234 -0.41016,-0.043 -0.32422,-0.0469 -0.29297,-0.0859 h -0.35156 l -0.32422,-0.0664 -0.29297,-0.0664 -0.29297,-0.0859 -0.35156,-0.0234 h -0.32422 L 235,102.18359 l -0.0586,0.39844 v 0.3086 L 235,103.35156"
       id="path56" />
    <path
       style="fill:none;stroke:#ffff00;stroke-width:0.85;stroke-linecap:round;stroke-linejoin:round;stroke-miterlimit:10;stroke-opacity:1"
       d="m 179.04297,146.11328 0.11719,-0.30859 0.17578,0.26172 0.0273,0.30859 v 0.70703 l 0.0312,0.4375 -0.0312,0.46484 v 0.35157 l 0.0312,0.35156 v 2.83984 l -0.0312,0.35157 v 0.35156 l -0.0273,0.32812 0.0859,0.35547 -0.0586,-0.33203 -0.0273,-0.35156 v -0.3086 l 0.0859,-0.33203 0.11719,-0.28515 0.20703,-0.24219 0.26563,-0.19531 0.35156,-0.0664 0.32031,0.0195 0.32422,0.0664 0.29297,0.10937 0.29297,0.15625 0.23437,0.19922 0.23438,0.30469 0.14844,0.28906 0.14843,0.32813 0.14454,0.375 0.0312,0.32812 0.11718,0.3086 -0.23437,0.61718 -0.32422,0.0898 -0.35156,0.043 -0.35157,-0.0664 -0.32421,-0.0664 -0.29297,-0.13281 -0.26563,-0.21875"
       id="path58" />
    <path
       style="fill:none;stroke:#ffff00;stroke-width:0.85;stroke-linecap:round;stroke-linejoin:round;stroke-miterlimit:10;stroke-opacity:1"
       d="m 186.11328,154.24609 h 1.55469"
       id="path60" />
    <path
       style="fill:none;stroke:#ffff00;stroke-width:0.85;stroke-linecap:round;stroke-linejoin:round;stroke-miterlimit:10;stroke-opacity:1"
       d="m 186.08594,151.92187 0.20312,-0.21875 h 0.70313 l 0.38281,-0.0234"
       id="path62" />
    <path
       style="fill:none;stroke:#ffff00;stroke-width:0.85;stroke-linecap:round;stroke-linejoin:round;stroke-miterlimit:10;stroke-opacity:1"
       d="m 191.83594,155.73047 -0.14844,-0.26563 -0.0273,-0.32812 -0.14844,-0.3086 0.20703,-0.24218 -0.0312,-0.33203 0.14844,-0.26172 0.14453,-0.28907 0.26562,-0.17578 0.26563,-0.15234 0.26172,0.15234 0.17578,0.26563 0.14844,0.28515 0.20312,0.26563 -0.0859,0.30859 0.23438,0.21875 v 0.32813 l 0.0586,0.33203 -0.0859,0.30859 v 0.32813 l -0.0312,0.33203 -0.0312,-0.30859 0.0625,-0.3086 0.20313,-0.26562 -0.14453,-0.26172 0.23437,-0.24219 v -0.35156 l 0.23438,-0.19922 0.11719,-0.30859 0.20312,-0.21875 0.20703,-0.21875 0.29297,-0.11329 0.20703,0.24219 0.17578,0.26563 0.20313,0.26562 -0.0859,0.30469 0.17578,0.26562 -0.0312,0.3086 v 0.30859 l -0.0273,0.32813 -0.0586,0.33203 v 0.30859 -0.30859 l 0.11719,-0.3086 0.0859,-0.35156 0.0586,-0.30859 0.0898,-0.35156 0.20703,-0.24219 0.0859,-0.375 0.14843,-0.26563 0.23438,-0.21875 0.14453,-0.28515 0.26562,-0.19922 0.29297,-0.0664 0.29297,0.0898 0.17578,0.26171 0.0898,0.33204 0.11718,0.28515 0.11719,0.35156 v 0.33204 l 0.11719,0.28515 0.0273,0.32813 0.14844,0.26562 0.11719,0.28516 0.23437,-0.19531 0.20703,-0.24219 0.23438,-0.26563 0.14453,-0.26562 0.17578,-0.26172 0.14844,-0.28516 0.17578,-0.26562 0.0586,-0.3086 0.14844,0.26563 -0.0312,0.30859 v 0.35157 l 0.0312,0.30859 0.0859,0.32812 0.0898,0.35157 0.20313,0.24218 0.32422,0.13282 0.32422,-0.043 0.26171,-0.24219 0.26563,-0.19922 0.20312,-0.21875 0.23438,-0.22265 0.20703,-0.26172 0.11719,-0.3086 0.17578,-0.26562 -0.0273,-0.3086 -0.0312,-0.30468 -0.17579,-0.26563 -0.29296,-0.0898 -0.32422,-0.043 -0.32032,0.043 -0.26562,0.15625 -0.17578,0.26172 -0.26563,0.19922 -0.14453,0.33203 -0.14844,0.28515 -0.0273,0.3086 v 0.30859 l 0.17578,0.26172 0.26172,0.17578 0.26563,0.15625 h 0.32421 l 0.32032,-0.0664 0.26562,-0.19921 0.29297,-0.10938 0.0586,-0.32812 0.23438,-0.19922 0.0898,-0.3086 0.17578,-0.26562 0.14454,-0.26172 -0.11719,0.30859 -0.0586,0.35157 0.0312,0.30859 0.0273,0.30469 0.14844,0.30859 0.0859,0.30859 0.23438,0.19922 0.29687,0.10938 0.32032,-0.0234 0.29296,-0.0625 0.32422,-0.17578 0.35157,-0.19922 0.20703,-0.24219 0.23437,-0.22265 0.20313,-0.21875 0.17578,-0.26172 0.23828,-0.26563 0.23437,-0.21875 0.0586,-0.30859"
       id="path64" />
    <path
       style="fill:none;stroke:#ffff00;stroke-width:0.85;stroke-linecap:round;stroke-linejoin:round;stroke-miterlimit:10;stroke-opacity:1"
       d="m 204.01172,153.96875 0.29297,0.0664 0.20703,0.26171 0.11719,0.3086 0.23437,0.22265 0.11719,0.3086 0.23437,0.30469 0.17578,0.28906 -0.0273,0.35156 0.20313,0.26172 0.14843,0.28906 0.20703,0.26172 0.26172,0.15625"
       id="path66" />
    <path
       style="fill:none;stroke:#ffff00;stroke-width:0.85;stroke-linecap:round;stroke-linejoin:round;stroke-miterlimit:10;stroke-opacity:1"
       d="m 214.98828,149.32422 0.23438,-0.19922 -0.26563,-0.19531 -0.26172,-0.15625 -0.32422,-0.10938 -0.32422,-0.043 -0.32031,0.043 -0.29297,0.10938 -0.26562,0.17578 -0.26563,0.15625 -0.14453,0.26172 -0.17578,0.28906 -0.11719,0.32812 -0.0312,0.35157 -0.0273,0.30859 -0.0312,0.30859 0.0898,0.3086 -0.0898,0.32812 0.0898,0.33203 -0.23437,0.19922 -0.14844,0.26172 -0.29297,0.10938 -0.32422,0.0469 0.32422,0.0859 0.14844,0.26562 0.17578,0.28516 0.20313,0.26563 0.20703,0.26171 0.14453,0.26563 0.29297,0.19922 -0.20313,0.21875 0.17578,0.28515 -0.14843,0.28516 0.0586,0.33203 0.0312,0.32813 0.14453,0.30859 0.20703,0.24219 0.29297,0.0898 0.23438,0.19922 0.29296,0.12891 0.20704,-0.26172 -0.14844,-0.26563"
       id="path68" />
    <path
       style="fill:none;stroke:#ffff00;stroke-width:0.85;stroke-linecap:round;stroke-linejoin:round;stroke-miterlimit:10;stroke-opacity:1"
       d="m 217.30469,152.49219 0.20703,-0.21875 0.29297,-0.15235 h 0.32422 l 0.29296,0.15235 0.23438,0.21875 0.17578,0.26562 0.0859,0.3086 -0.0273,0.30859 -0.17578,0.30859 -0.14843,0.26172 -0.23438,0.19922 -0.29297,0.10938 0.26563,0.26562 0.23437,0.26172 0.29297,0.15625 0.23438,0.24219 0.29296,0.17578 0.14844,0.26172 v 0.30859 l -0.17578,0.26563 -0.32422,0.13281 -0.32422,0.0859 h -0.32031 l -0.29297,-0.0859 -0.12109,-0.3086"
       id="path70" />
    <path
       style="fill:none;stroke:#ffff00;stroke-width:0.85;stroke-linecap:round;stroke-linejoin:round;stroke-miterlimit:10;stroke-opacity:1"
       d="m 224.4375,156.14844 -0.41406,0.4375 -0.14453,0.30859 -0.23438,0.22266 -0.23437,0.21875 -0.23438,0.30859 -0.26562,0.21875 -0.20704,0.24219"
       id="path72" />
    <path
       style="fill:none;stroke:#ffff00;stroke-width:0.85;stroke-linecap:round;stroke-linejoin:round;stroke-miterlimit:10;stroke-opacity:1"
       d="m 228.60156,153.26562 -0.32031,0.0664 -0.23438,0.19531 -0.20703,0.24219 -0.14843,0.28516 -0.14454,0.33203 0.14454,0.26562 -0.17579,0.26172 0.32422,0.13281 0.23438,0.24219 0.29297,0.0898 0.29297,0.0625 0.29296,-0.0625 0.29688,-0.0898 0.23437,-0.19922 0.29297,-0.21875 0.14453,-0.26562 0.17579,-0.28516 0.11718,-0.28515 0.1211,-0.3086 0.0586,-0.30859 v -0.3086 l -0.11719,-0.30859 -0.0312,-0.30859 -0.17578,-0.26172 -0.26562,-0.19922 -0.32032,-0.0195 h -0.35156 l -0.26562,0.17578 -0.20703,0.28516 -0.26172,0.19921 0.0859,0.30469 -0.11718,0.28906 -0.0586,0.35157 -0.0273,0.35156 0.0859,0.32812 0.26562,0.26563 0.14453,0.28516 0.32422,0.0664 0.26563,-0.15234 0.29297,-0.15625 0.29296,-0.17578 0.23438,-0.19532 0.23437,-0.24218 0.0312,-0.3086 0.0859,-0.30859 0.0312,0.32812 0.0273,0.33204 0.0312,0.35156 0.0859,0.30859 0.0898,0.3086 0.17578,0.28515 0.20312,0.26563 0.29688,0.0859 0.29297,0.0664 0.29297,-0.15234 0.29296,-0.15625 0.20313,-0.21875 0.20703,-0.24219"
       id="path74" />
    <path
       style="fill:none;stroke:#ffff00;stroke-width:0.85;stroke-linecap:round;stroke-linejoin:round;stroke-miterlimit:10;stroke-opacity:1"
       d="m 235.41016,147.27734 0.29296,-0.10937 0.29297,0.19922 0.17578,0.26172 0.23829,0.24218 0.26171,0.26563 0.20704,0.28515 0.17578,0.28516 0.17578,0.26563 0.11719,0.33203 -0.11719,0.28515 0.0586,0.32813 -0.11719,0.35156 -0.17578,0.28906 -0.0312,0.35157 -0.11718,0.30859 -0.0586,0.30859 v 0.67969 l 0.0312,0.33203 0.0859,0.3086 0.23437,0.21875 0.11719,0.28515 0.29297,0.15625 -0.26172,0.19531 -0.32422,0.0664 -0.26172,0.17578 -0.20703,0.22266 -0.0859,0.30859 -0.0625,0.30469 -0.11719,0.35547 v 0.32812 l 0.0312,0.35157 -0.11719,0.33203 -0.0586,0.35156 0.0859,0.375 -0.17578,0.32812 -0.14453,0.3086 -0.0898,0.33203 -0.17578,0.28516 -0.20313,0.26171 -0.20703,0.26563 -0.29297,0.17578 -0.26562,0.15234 -0.29297,0.0898 -0.32031,0.0234"
       id="path76" />
    <path
       style="fill:none;stroke:#ff0000;stroke-width:0.85;stroke-linecap:round;stroke-linejoin:round;stroke-miterlimit:10;stroke-opacity:1"
       d="m 270.51172,147.5625 v 7.92578"
       id="path78" />
    <path
       style="fill:none;stroke:#ff0000;stroke-width:0.85;stroke-linecap:round;stroke-linejoin:round;stroke-miterlimit:10;stroke-opacity:1"
       d="m 270.15234,147.62891 0.29297,-0.0859 0.29297,-0.0898 0.29688,-0.0859 0.3789,-0.0234 0.35156,0.0234 h 0.32422 l 0.41016,0.0664 0.38281,0.043 0.32031,0.043 0.38282,0.0898 0.35156,0.0859 0.35156,0.0469 0.32422,0.15234 0.32422,0.0898 0.26172,0.15235 0.29297,0.17578 0.32422,0.17578 0.20703,0.26563 0.32031,0.26171 0.26562,0.22266 0.0586,0.30859 0.14453,0.26172 0.12109,0.3086 -0.0625,0.33203 v 0.32812 l -0.0859,0.35157 -0.11719,0.28515 -0.17578,0.28906 -0.29297,0.24219 -0.17578,0.28516 -0.20703,0.30859 -0.26563,0.19531 -0.26172,0.19922 -0.20703,0.24219 -0.17578,0.33203 -0.29297,0.10938 -0.29297,0.19922 -0.32422,0.17578 -0.29297,0.1289 -0.32031,0.0469 -0.35547,-0.0234 -0.29297,-0.0664 -0.29296,-0.0859 -0.29297,-0.0898 -0.29297,-0.0859 -0.32422,-0.13282 -0.29297,-0.0664 -0.32031,-0.0234 -0.29688,-0.0859 -0.32031,-0.0469"
       id="path80" />
    <path
       style="fill:none;stroke:#ffffff;stroke-width:0.85;stroke-linecap:round;stroke-linejoin:round;stroke-miterlimit:10;stroke-opacity:1"
       d="m 280.6875,156.60937 -0.23438,-0.19921 -0.11718,-0.3086 -0.0586,-0.30469 -0.0312,-0.30859 v -0.70703 l 0.0312,-0.30469 0.0274,-0.35547 v -0.30468 l 0.11718,-0.3086 0.0899,-0.33203 0.11719,-0.35156 0.0898,-0.35156 0.17578,-0.28516 0.0859,-0.30859 0.17578,-0.28907 0.14844,-0.26172 0.14453,-0.26562 0.20703,-0.24219 0.20703,-0.21875 0.26172,-0.17578 0.32422,-0.13281 0.32031,-0.043 0.32422,0.043 0.32422,0.0664 0.26172,0.15235 0.29297,0.17578 0.26562,0.22266 0.20703,0.24218 0.20313,0.28516 0.20703,0.26562 0.0273,0.32813 0.20703,0.24219 0.11719,0.30859 0.0586,0.33203 0.11719,0.28516 v 0.30859 l -0.0586,0.3086 0.0273,0.35156 -0.0273,0.30859 -0.11719,0.30469 0.0273,0.30859 -0.14453,0.28907 0.14453,0.26171 -0.11718,0.28516 v -0.30859"
       id="path82" />
    <path
       style="fill:none;stroke:#ff7f00;stroke-width:0.85;stroke-linecap:round;stroke-linejoin:round;stroke-miterlimit:10;stroke-opacity:1"
       d="m 289.40234,152.31641 -0.32422,-0.0859 -0.17578,-0.26563 -0.20312,-0.21875 0.14453,-0.30859 0.20703,-0.21875 0.32422,-0.0898 0.29297,-0.0859 0.32031,0.043 0.26563,0.15234 0.23437,0.24219 0.0586,0.35156 0.26563,0.19922 0.0859,0.35156 0.11718,0.28906 0.14844,0.32813 0.0274,0.33203 0.0312,0.30469 0.0273,0.30859 0.11719,0.61719 0.20703,0.21875 0.11719,0.30859 0.20703,0.22266 0.26172,0.15234 h 0.32421 l 0.29297,-0.0859 0.20703,-0.24219 0.20313,-0.22266 0.11719,-0.30859 0.11718,-0.28516 0.23438,-0.26562 v -0.35157 l 0.23437,-0.26171 0.0312,-0.33204 0.0859,-0.35156 0.14844,-0.28515 0.0312,-0.33204 0.0586,-0.35156 0.0859,-0.35156 0.0312,-0.30859 -0.14844,0.26562 -0.0586,0.35156 v 0.3086 l -0.11719,0.30859 v 0.30859 l -0.0586,0.30469 -0.0586,0.35547 -0.0898,0.35156 0.11719,0.3086 -0.0586,0.32812 0.0586,0.35156 0.0312,0.35157 0.14844,0.33203 0.17578,0.26172 0.35156,-0.043 0.29297,-0.10938 0.29297,-0.17578 0.20703,-0.24219 0.14453,-0.26562 -0.29297,-0.10938"
       id="path84" />
    <path
       style="fill:none;stroke:#ffffff;stroke-width:0.85;stroke-linecap:round;stroke-linejoin:round;stroke-miterlimit:10;stroke-opacity:1"
       d="m 296.5625,148.04687 4.69531,8.10157"
       id="path86" />
    <path
       style="fill:none;stroke:#2ec27d;stroke-width:0.85;stroke-linecap:round;stroke-linejoin:round;stroke-miterlimit:10;stroke-opacity:1"
       d="m 332.83203,99.410156 -0.11719,-0.285156 -0.11718,0.285156 0.14453,0.265625 v 0.617189 l -0.0586,0.32812 -0.0273,0.33204 -0.0312,0.35156"
       id="path88" />
    <path
       style="fill:none;stroke:#2ec27d;stroke-width:0.85;stroke-linecap:round;stroke-linejoin:round;stroke-miterlimit:10;stroke-opacity:1"
       d="m 331.16016,100.44922 h 3.16015"
       id="path90" />
    <path
       style="fill:none;stroke:#2ec27d;stroke-width:0.85;stroke-linecap:round;stroke-linejoin:round;stroke-miterlimit:10;stroke-opacity:1"
       d="m 341.42969,100.95313 -0.20703,-0.24219 0.0898,-0.33203 0.11719,-0.35157 0.20312,-0.218746 0.20703,-0.265625 0.20703,-0.242188 0.26172,-0.152343 0.35157,-0.175782 0.32421,-0.08984 0.35157,-0.01953 0.29297,0.08594 0.20703,0.242187 0.14453,0.265625 0.11719,0.285157 -0.14454,0.261725 0.14454,0.26562 -0.23438,0.24219 -0.11719,0.30859 -0.20312,0.21875 -0.35547,0.0469 h -0.67188 l -0.32421,-0.0234 -0.32422,-0.10937 -0.29297,-0.17579 -0.26172,-0.17578 -0.35156,-0.53125 -0.14844,-0.261719 -0.0586,-0.308594 -0.23438,-0.199219 -0.29297,-0.109375 -0.23437,0.199219 -0.35157,0.08594 -0.0586,0.332032 -0.32422,0.195316 -0.0586,0.33203 -0.17578,0.26562 -0.0899,0.35157 -0.0586,0.35156 0.11719,0.28515 0.17578,0.26563 0.29297,0.10937 0.35547,-0.0234 0.29296,-0.0859 0.29297,-0.0898 0.29297,-0.24219 0.26563,-0.21875 0.26172,-0.17578 0.23437,-0.3086 0.23438,-0.26562 0.17578,-0.26172 0.17968,-0.26563"
       id="path92" />
    <path
       style="fill:none;stroke:#2ec27d;stroke-width:0.85;stroke-linecap:round;stroke-linejoin:round;stroke-miterlimit:10;stroke-opacity:1"
       d="m 309.00391,147.19141 -0.26563,-0.17579 -0.29297,-0.11328 -0.29297,-0.0625 -0.35156,-0.0234 -0.35156,0.0234 -0.35156,0.0195 -0.26563,0.15625 -0.20312,0.24219 0.0273,0.35156 0.14844,0.3086 0.11718,0.30469 -0.11718,0.35546 v 0.3086 l 0.14453,0.35156 0.0586,0.35156 -0.0273,0.32813 V 150.25 l -0.0899,0.375 -0.0586,0.35156 -0.17578,0.32813 -0.20313,0.26562 -0.23828,0.19922 -0.29297,0.10938 -0.32031,0.043 h -0.32422 l 0.0586,0.35157 0.0898,0.35156 0.20313,0.26562 0.23437,0.21875 0.0586,0.3086 v 0.30859 l 0.20704,0.26563 0.11718,0.32812 0.11719,0.33203 0.14844,0.28516 0.14453,0.35156 0.20703,0.28516 0.0586,0.30859 0.20313,0.28516 0.14844,0.26562 0.20312,0.26563 0.20703,0.24219 0.26563,0.17578 0.26172,0.17578 0.32422,0.1289 0.35156,0.0664 0.32422,0.0234 0.0273,-0.3086"
       id="path94" />
    <path
       style="fill:none;stroke:#2ec27d;stroke-width:0.85;stroke-linecap:round;stroke-linejoin:round;stroke-miterlimit:10;stroke-opacity:1"
       d="m 313.46484,153.61719 -0.32422,0.0195 0.17579,-0.26172 0.26562,-0.22266 0.17578,-0.30468 0.29297,-0.26563 0.23438,-0.26562 0.29296,-0.28516 0.29297,-0.32813 0.53125,-0.35156 0.32032,-0.19922 0.26562,-0.28515 0.23438,-0.3086 0.26562,-0.19922 0.29297,-0.10937"
       id="path96" />
    <path
       style="fill:none;stroke:#2ec27d;stroke-width:0.85;stroke-linecap:round;stroke-linejoin:round;stroke-miterlimit:10;stroke-opacity:1"
       d="m 313.46484,150.46875 0.29297,0.13281 0.29297,0.17578 0.26563,0.17578 0.20312,0.26563 0.26563,0.17578 0.29296,0.17578 0.20704,0.21875 0.23437,0.26563 0.26172,0.26172 0.17578,0.26562 0.0586,0.30859 0.29688,0.21875 0.20312,0.22266"
       id="path98" />
    <path
       style="fill:none;stroke:#2ec27d;stroke-width:0.85;stroke-linecap:round;stroke-linejoin:round;stroke-miterlimit:10;stroke-opacity:1"
       d="m 319.33203,155.97266 -0.32031,0.0195 -0.0586,0.33203 v 0.30859 l -0.0312,0.3086 0.0586,0.37109 v 0.375 l 0.0898,0.35156 0.14453,0.26563 -0.0273,0.30859 0.17578,0.26172 0.14453,0.28906 0.23438,0.19531 0.29687,-0.13281 0.20313,-0.24219 0.23437,-0.26171 0.17578,-0.26563 0.0899,-0.35156 0.17578,-0.32813 0.14453,-0.30859 0.0312,-0.35156 0.11719,-0.33203 0.0898,-0.375 0.0273,-0.32813 v -0.35156 l -0.0586,-0.33203 -0.17578,-0.26172 -0.26563,-0.19922 -0.29296,-0.0898 -0.26172,0.15625 -0.26563,0.26171 -0.17578,0.26563 -0.14844,0.28516 -0.11718,0.33203 -0.14454,0.35156 -0.0898,0.35156 -0.0273,0.3086"
       id="path100" />
    <path
       style="fill:none;stroke:#2ec27d;stroke-width:0.85;stroke-linecap:round;stroke-linejoin:round;stroke-miterlimit:10;stroke-opacity:1"
       d="m 320.27344,157.29297 v 0"
       id="path102" />
    <path
       style="fill:none;stroke:#2ec27d;stroke-width:0.85;stroke-linecap:round;stroke-linejoin:round;stroke-miterlimit:10;stroke-opacity:1"
       d="m 323.55859,148.75391 -0.14843,-0.26563 -0.0859,-0.30859 -0.0312,-0.3086 0.32422,0.0469 0.35156,0.1289 0.29297,0.11329 0.26562,0.24218 0.26563,0.19532 0.0859,0.33203 0.0898,0.30859 v 0.30859 l -0.0312,0.30469 -0.0859,0.33203 -0.0586,0.32813 -0.14844,0.26562 -0.0586,0.3086 -0.0312,0.30859 0.0898,0.35156 0.11719,0.3086 0.17578,0.30859 0.17578,0.26172 -0.14453,0.28906 -0.11719,0.28516 -0.12109,0.32812 0.12109,0.35157 -0.0312,0.33203 0.11719,0.375 0.0586,0.37109 0.0586,0.33203 0.0312,0.35156 0.0273,0.33204 0.0586,0.37109 -0.0586,0.375 0.0312,0.30859 -0.0898,0.3086 -0.0859,0.30859 -0.17578,0.26172 -0.32422,0.0469 -0.32422,0.0859 0.0586,0.3086 0.17579,0.26562"
       id="path104" />
    <path
       style="fill:none;stroke:#ffffff;stroke-width:0.85;stroke-linecap:round;stroke-linejoin:round;stroke-miterlimit:10;stroke-opacity:1"
       d="m 332.53906,154.32031 -0.26562,-0.17578 0.29297,-0.0898 h 0.73437 l 0.38281,-0.0625 0.35157,-0.0234 0.3789,-0.0234 0.32422,-0.043 0.70313,-0.0859"
       id="path106" />
    <path
       style="fill:none;stroke:#ffffff;stroke-width:0.85;stroke-linecap:round;stroke-linejoin:round;stroke-miterlimit:10;stroke-opacity:1"
       d="m 332.21484,152.29687 0.29297,-0.10937 0.35156,0.0195 0.32422,0.0664 0.32422,0.0234 h 0.37891 l 0.38281,0.0195 0.35156,-0.0195 0.29297,-0.0664 0.35156,-0.043 0.29297,-0.13281"
       id="path108" />
    <path
       style="fill:none;stroke:#ff0000;stroke-width:0.85;stroke-linecap:round;stroke-linejoin:round;stroke-miterlimit:10;stroke-opacity:1"
       d="m 346.47656,147.96094 0.14453,-0.26563 0.14844,-0.26172 -0.32422,0.043 -0.20312,0.21875 -0.20703,0.26563 -0.23438,0.30859 -0.17578,0.26172 -0.20703,0.30859 -0.14453,0.35157 -0.14844,0.39843 -0.11719,0.41797 -0.0859,0.32813 -0.0586,0.4414 -0.0586,0.3086 -0.0899,0.30859 v 0.30859 l -0.0273,0.35157 -0.0312,0.39453 0.0898,0.35156 0.0586,0.35156 0.0273,0.3086 0.0312,0.30859 0.0586,0.39844 0.14454,0.35156 0.0898,0.35156 0.17578,0.3086 0.14453,0.30859 0.23828,0.26172 0.20313,0.24219 h 0.35156 l 0.0586,-0.35157 0.11719,-0.32812"
       id="path110" />
    <path
       style="fill:none;stroke:#ff0000;stroke-width:0.85;stroke-linecap:round;stroke-linejoin:round;stroke-miterlimit:10;stroke-opacity:1"
       d="m 349.96875,150.02734 -0.11719,-0.28515 0.11719,-0.32813 0.29297,-0.0898 0.32422,-0.043 0.3789,0.0234 0.29297,0.15234 0.23438,0.19922 0.26562,0.24219 0.0899,0.37109 0.0586,0.375 -0.0586,0.30859 -0.23829,0.26563 -0.14453,0.28516 -0.23437,0.26562 -0.29297,0.17578 -0.23438,0.24219 -0.35546,0.0195 0.32421,-0.0195 0.20704,0.21875 0.29296,0.17578 0.29297,0.13281 0.11719,0.3086 0.14453,0.26172 -0.11719,0.30859 -0.26171,0.19922 -0.26563,0.15234 -0.35156,0.0234 -0.35156,-0.0234 -0.32422,-0.0859 -0.35157,-0.0664 -0.26171,-0.17578 0.23437,-0.24219"
       id="path112" />
    <path
       style="fill:none;stroke:#ff0000;stroke-width:0.85;stroke-linecap:round;stroke-linejoin:round;stroke-miterlimit:10;stroke-opacity:1"
       d="m 355.01562,155.88281 -1.05859,1.16797"
       id="path114" />
    <path
       style="fill:none;stroke:#ff0000;stroke-width:0.85;stroke-linecap:round;stroke-linejoin:round;stroke-miterlimit:10;stroke-opacity:1"
       d="m 358.125,153.85937 -0.0586,-0.30859 -0.11719,-0.28516 -0.32422,-0.17578 -0.0273,-0.33203 0.0273,-0.30859 0.11719,-0.61719 0.11718,-0.30469 0.1211,-0.30859 -0.0312,-0.30859 0.23437,-0.19922 -0.11718,0.28515 0.0312,0.3086 -0.0586,0.375 v 0.70312 l -0.12109,0.28906 0.17969,0.26172 -0.11719,0.33203 0.0859,0.32813 -0.14844,-0.26172"
       id="path116" />
    <path
       style="fill:none;stroke:#ff0000;stroke-width:0.85;stroke-linecap:round;stroke-linejoin:round;stroke-miterlimit:10;stroke-opacity:1"
       d="M 356.04297,152.97266 H 360"
       id="path118" />
    <path
       style="fill:none;stroke:#ff0000;stroke-width:0.85;stroke-linecap:round;stroke-linejoin:round;stroke-miterlimit:10;stroke-opacity:1"
       d="m 366.87109,153.59375 -0.26562,-0.17578 -0.0586,-0.3086 0.0586,-0.35156 0.17578,-0.30859 0.0586,-0.32813 0.14844,-0.26562 0.20313,-0.26563 0.23437,-0.26172 0.26563,-0.24218 0.32421,-0.19922 0.23438,-0.24219 0.37891,-0.13281 0.35546,-0.043 0.35157,0.0898 0.14453,0.3086 0.20703,0.26172 0.0859,0.30859 v 0.30859 l 0.0898,0.375 -0.0586,0.3711 -0.14844,0.33203 v 0.32812 l -0.11719,0.3086 -0.0586,0.30859 -0.20313,0.22266 -0.11718,0.30468 -0.29688,0.11329 -0.32031,-0.0234 -0.32422,-0.21875 -0.29297,-0.17578 -0.29297,-0.11328 -0.23437,-0.26172 -0.23438,-0.19922 -0.46875,-0.48438 -0.20703,-0.21875 -0.20703,-0.26562 -0.20313,-0.21875 -0.0898,-0.35156 -0.23437,-0.19922 -0.26172,-0.19922 -0.29688,0.10937 -0.20312,0.26563 -0.0899,0.33203 -0.0859,0.30469 -0.0312,0.35547 -0.0586,0.32812 0.0312,0.33203 -0.0312,0.3086 -0.0586,0.35156 0.14844,0.26172 0.20312,0.22265 0.32422,0.10938 0.29297,-0.10938 0.32422,-0.15625 0.23437,-0.19922 0.26172,-0.21875 0.20703,-0.21875 0.14844,-0.30859 0.23437,-0.28516 0.11719,-0.28906 0.20313,-0.24219"
       id="path120" />
    <path
       style="fill:none;stroke:#ff0000;stroke-width:0.85;stroke-linecap:round;stroke-linejoin:round;stroke-miterlimit:10;stroke-opacity:1"
       d="m 372.94531,147.19141 -0.20703,-0.24219 -0.0586,-0.3086 0.0586,0.35157 0.23438,0.21875 0.23437,0.26562 0.14844,0.35156 0.14453,0.33204 0.26562,0.35156 0.20704,0.35156 0.14453,0.28516 0.20703,0.26562 0.17578,0.3086 0.14453,0.28515 0.11719,0.32813 0.11719,0.35156 0.11718,0.28906 0.11719,0.28516 0.0898,0.32812 0.0586,0.35547 0.0312,0.35156 0.0859,0.375 0.0312,0.32813 -0.0899,0.33203 v 0.30469 l -0.0273,0.33203 -0.0586,0.35156 v 0.44141 l -0.0898,0.32812 -0.14844,0.28907 -0.20312,0.37109 -0.11719,0.39844 -0.11719,0.30859 -0.14843,0.26172 -0.23438,0.33203 -0.20312,0.28516 -0.14844,0.26562 -0.26563,0.17578 0.0586,-0.30859"
       id="path122" />
    <path
       style="fill:none;stroke:#ffffff;stroke-width:0.85;stroke-linecap:round;stroke-linejoin:round;stroke-miterlimit:10;stroke-opacity:1"
       d="m 380.75,154.73828 -0.29297,0.10938 -0.11719,-0.28516 -0.0586,-0.30859 v -1.01172 l 0.0586,-0.32813 0.0586,-0.33203 0.0859,-0.30859 0.0899,-0.35157 0.14453,-0.30859 0.0898,-0.30859 0.0274,-0.3086 0.26562,-0.19531 0.11719,-0.33203 0.23437,-0.30859 0.29297,-0.24219 0.26563,-0.26172 0.32031,-0.17578 0.26563,-0.15625 0.29296,-0.13281 0.32422,-0.0859 0.32032,0.0195 0.29687,0.0664 0.35156,0.11328 0.26172,0.17578 0.32422,0.26172 0.35156,0.17578 0.14844,0.35156 0.20313,0.33203 0.17578,0.26563 0.17578,0.28515 0.0586,0.35157 0.14844,0.375 0.0586,0.32812 0.0586,0.35156 -0.0312,0.33203 0.0898,0.35157 0.0586,0.30859 v 0.30859 l -0.14843,0.3086 0.12109,0.35156 0.0859,0.30859 -0.17578,0.28516 0.14843,0.26563 -0.14843,-0.26563"
       id="path124" />
    <path
       style="fill:none;stroke:#ff7f00;stroke-width:0.85;stroke-linecap:round;stroke-linejoin:round;stroke-miterlimit:10;stroke-opacity:1"
       d="m 392.19141,148.00391 0.17968,-0.26172 0.14453,-0.26563 0.14844,-0.26562 -0.14844,0.26562 -0.20703,0.26563 -0.29297,0.21875 -0.17578,0.26172 -0.17578,0.28906 -0.17578,0.32812 -0.17578,0.28516 -0.11719,0.35547 -0.11719,0.37109 -0.0898,0.3086 -0.0859,0.35156 v 0.30859 l -0.0586,0.3086 -0.11719,0.30859 -0.0312,0.33203 -0.0273,0.35156 -0.0586,0.3711 -0.0312,0.33203 v 0.35156 l 0.0312,0.33203 0.0274,0.4375 0.0312,0.44141 0.0586,0.39453 v 0.30859 l 0.20313,0.375 0.11718,0.35157 0.1211,0.35156 0.17578,0.33203 0.14453,0.26172 0.11719,0.375 0.23437,0.19922 0.20703,0.26562 0.20313,0.21875 0.14844,-0.26562"
       id="path126" />
    <path
       style="fill:none;stroke:#ff7f00;stroke-width:0.85;stroke-linecap:round;stroke-linejoin:round;stroke-miterlimit:10;stroke-opacity:1"
       d="m 396.06641,152.84766 -0.14844,0.26171 -0.0586,0.33204 -0.0586,0.35156 v 0.35156 l 0.0586,0.35156 0.20704,0.33203 0.26562,0.21875 0.29297,0.24219 0.35156,0.0898 0.35156,0.0195 0.38282,-0.0859 0.32031,-0.19922 0.29297,-0.15625 0.29687,-0.21875 0.23438,-0.26172 0.20312,-0.30859 0.26563,-0.28906 v -0.32813 L 399.5,153.28516 v -0.3086 l -0.0586,-0.32812 -0.17579,-0.28516 -0.20703,-0.30859 -0.32031,-0.17578 -0.29687,-0.10938 -0.29297,-0.0664 -0.32032,0.043 -0.32421,0.0234 -0.29297,0.10938 -0.26563,0.17578 -0.29297,0.21875 -0.20312,0.21875 -0.20703,0.26562 -0.17578,0.26563 -0.14844,0.35156 -0.0859,0.30859 0.0273,0.3711 -0.0859,0.33203 0.11718,0.30859 0.0586,0.3086 0.29297,0.13281 0.26562,0.17578 0.26172,0.17578 0.32422,0.0664 0.29297,0.0625 h 0.32422 l 0.29297,-0.0859 0.29296,-0.24219 0.29297,-0.17578 0.26563,-0.24219 0.20312,-0.28515 0.14844,-0.26563 0.14453,-0.32812 0.0899,-0.3086 0.11718,-0.30859 0.0859,-0.30859 -0.11719,0.28515 -0.0586,0.35156 0.0586,0.33204 -0.0273,0.30859 0.0859,0.32812 0.0898,0.33204 0.14844,0.26171 0.29297,0.17579 0.3789,0.0469 0.35157,-0.0469 0.32421,-0.12891 0.26563,-0.17578 0.23437,-0.19922 0.20313,-0.24219 -0.17578,-0.26562"
       id="path128" />
    <path
       style="fill:none;stroke:#ff7f00;stroke-width:0.85;stroke-linecap:round;stroke-linejoin:round;stroke-miterlimit:10;stroke-opacity:1"
       d="m 405.51562,155.57422 -0.91015,1.45312"
       id="path130" />
    <path
       style="fill:none;stroke:#ff7f00;stroke-width:0.85;stroke-linecap:round;stroke-linejoin:round;stroke-miterlimit:10;stroke-opacity:1"
       d="m 411.53125,151.65625 -0.11719,0.28906 -0.0312,0.35156 -0.0859,0.35157 -0.0586,0.35156 0.0273,0.375 -0.0273,0.35156 -0.20703,0.32813 0.0312,0.375 -0.0312,0.30859 -0.14453,0.28516 0.14453,0.26562"
       id="path132" />
    <path
       style="fill:none;stroke:#ff7f00;stroke-width:0.85;stroke-linecap:round;stroke-linejoin:round;stroke-miterlimit:10;stroke-opacity:1"
       d="m 409.71094,153.41797 2.73047,0.57422"
       id="path134" />
    <path
       style="fill:none;stroke:#ff7f00;stroke-width:0.85;stroke-linecap:round;stroke-linejoin:round;stroke-miterlimit:10;stroke-opacity:1"
       d="m 419.1875,154.5625 -0.0273,-0.30859 0.0586,-0.3086 0.0273,-0.30859 0.1211,-0.35156 0.20312,-0.28516 0.11719,-0.32813 0.32422,-0.26562 0.29297,-0.13281 0.14453,-0.26172 0.26562,-0.17969 0.32422,-0.15234 0.29297,-0.10938 0.35156,0.0859 0.26563,0.19922 0.11719,0.28515 0.26171,0.24219 v 0.35156 l 0.11719,0.33204 v 0.35156 l -0.0273,0.30859 -0.0899,0.3086 -0.11718,0.28515 -0.14453,0.28516 -0.23438,0.22265 -0.32422,0.12891 -0.29297,-0.10937 -0.29297,-0.19532 -0.20703,-0.22265 -0.20703,-0.21875 -0.20312,-0.21875 -0.23438,-0.26563 -0.29297,-0.21875 -0.23437,-0.22265 -0.23828,-0.28516 -0.29297,-0.24219 -0.17578,-0.28515 -0.23438,-0.19922 -0.35156,-0.0859 -0.32422,-0.0898 -0.29297,0.0898 -0.26172,0.17578 -0.26562,0.17578 -0.20313,0.26172 -0.14843,0.26563 -0.20704,0.26562 0.14844,0.30469 -0.0312,0.35547 0.0586,0.32812 0.26562,0.28516 0.0898,0.35156 0.20313,0.30859 0.26562,0.19922 0.29297,0.15235 0.32422,-0.12891 0.32031,-0.19922 0.23438,-0.19922 0.14844,-0.30859 0.11718,-0.30469 0.17579,-0.26562 0.20703,-0.21875 0.11718,-0.35547 0.17579,-0.28516 0.11718,-0.28515"
       id="path136" />
    <path
       style="fill:none;stroke:#ff7f00;stroke-width:0.85;stroke-linecap:round;stroke-linejoin:round;stroke-miterlimit:10;stroke-opacity:1"
       d="m 424.76562,144.39453 -0.14843,-0.26172 v 0.30469 l 0.14843,0.30859 0.11719,0.35157 0.14453,0.33203 0.11719,0.375 0.14844,0.35156 0.17578,0.35156 0.0898,0.3086 0.0859,0.30859 0.0312,0.32812 0.11719,0.35157 0.17578,0.375 0.14453,0.39843 0.0586,0.3711 v 0.375 l 0.11719,0.35156 0.0586,0.39844 v 0.375 l 0.0586,0.41797 0.0312,0.39453 v 0.39453 l 0.0586,0.375 0.0274,0.35156 -0.0859,0.33203 -0.0586,0.35157 -0.0899,0.35156 -0.0586,0.30859 v 0.32813 l -0.0859,0.33203 -0.11719,0.375 -0.0898,0.375 -0.11719,0.30469 -0.17578,0.28906 -0.17578,0.28515 -0.14844,0.3086 0.0586,-0.3086"
       id="path138" />
    <path
       style="fill:none;stroke:#ffffff;stroke-width:0.85;stroke-linecap:round;stroke-linejoin:round;stroke-miterlimit:10;stroke-opacity:1"
       d="m 428.16797,145.80469 6.48437,9.75"
       id="path140" />
    <path
       style="fill:none;stroke:#2ec27d;stroke-width:0.85;stroke-linecap:round;stroke-linejoin:round;stroke-miterlimit:10;stroke-opacity:1"
       d="m 443.42578,145.84766 -0.0859,-0.3086 -0.29297,-0.0859 h -0.64843 l -0.32032,0.12891 -0.26562,0.17578 -0.20313,0.22266 -0.14843,0.32812 -0.0274,0.33203 -0.0312,0.375 -0.0586,0.35157 v 0.32812 l 0.0273,0.35156 0.0312,0.39844 0.0312,0.35156 0.0274,0.32813 0.0312,0.35547 -0.0899,0.41797 0.11719,0.28515 0.0898,0.32813 -0.11718,0.30859 0.0273,0.3086 -0.23437,0.19921 -0.20704,0.24219 -0.26171,0.17578 -0.29297,0.0859 h -0.32422 l -0.0312,0.30859 0.20703,0.26563 0.14844,0.30859 0.14453,0.3086 0.26562,0.15234 0.14453,0.26563 0.0586,0.32812 0.17578,0.26563 -0.0273,0.30859 -0.0312,0.30859 0.11718,0.35157 0.0625,0.35156 0.0859,0.30859 0.0898,0.32813 0.14454,0.26562 0.26562,0.17578 0.29297,0.15235 0.29297,0.0898 0.32422,0.0234 -0.0312,-0.33203"
       id="path142" />
    <path
       style="fill:none;stroke:#2ec27d;stroke-width:0.85;stroke-linecap:round;stroke-linejoin:round;stroke-miterlimit:10;stroke-opacity:1"
       d="m 447.65234,150.44922 v -0.33203 l 0.0899,-0.3086 0.0586,-0.30859 0.11719,-0.28516 0.0273,0.33203 0.0312,0.30469 -0.0312,0.35547 v 0.30469 l 0.0312,0.375 v 0.375 l -0.0312,0.30859 v 0.63672"
       id="path144" />
    <path
       style="fill:none;stroke:#2ec27d;stroke-width:0.85;stroke-linecap:round;stroke-linejoin:round;stroke-miterlimit:10;stroke-opacity:1"
       d="m 446.625,150.77734 2.67187,-0.32812"
       id="path146" />
    <path
       style="fill:none;stroke:#2ec27d;stroke-width:0.85;stroke-linecap:round;stroke-linejoin:round;stroke-miterlimit:10;stroke-opacity:1"
       d="m 453.99219,152.40625 -0.29688,-0.10938 -0.0273,-0.33203 0.0273,-0.35156 0.1211,-0.28516 0.0273,-0.33203 0.17578,-0.35156 0.14844,-0.30859 0.11719,-0.3086 0.17578,-0.28515 0.14453,-0.28516 0.23437,-0.24219 0.23828,-0.19922 0.20313,-0.30859 0.58594,-0.35156 0.32422,-0.043 0.29296,0.13281 0.20704,0.24219 0.14453,0.28516 0.11718,0.30859 0.0899,0.35156 -0.0312,0.35156 -0.0274,0.35157 -0.14843,0.30859 -0.17578,0.30859 -0.20313,0.28516 -0.17578,0.26563 -0.23828,0.24218 -0.26172,0.17578 -0.32422,-0.0898 -0.32031,-0.12891 -0.17578,-0.28906 -0.26563,-0.24219 -0.17578,-0.26171 -0.17578,-0.3086 -0.20703,-0.26562 -0.0859,-0.3086 -0.20703,-0.28515 -0.20703,-0.26172 -0.20313,-0.28906 -0.32422,-0.0664 -0.29296,0.17969 -0.26172,0.26172 -0.23828,0.26562 -0.17579,0.32813 -0.17578,0.28906 -0.0586,0.35156 -0.0859,0.32813 -0.0312,0.35156 0.14844,0.26562 0.0586,0.3086 0.23438,0.21875 0.26562,0.17578 0.32032,-0.043 0.26562,-0.17578 0.26172,-0.19922 0.20703,-0.24219 0.29297,-0.17578 0.23437,-0.19922 0.0586,-0.32812 0.26562,-0.26563 0.23438,-0.28515 0.11719,-0.32813 0.20703,-0.26562"
       id="path148" />
    <path
       style="fill:none;stroke:#2ec27d;stroke-width:0.85;stroke-linecap:round;stroke-linejoin:round;stroke-miterlimit:10;stroke-opacity:1"
       d="m 459.625,143.91016 0.29297,-0.0664 0.32422,0.15625 0.26172,0.21875 0.20703,0.21875 0.23437,0.22266 0.20703,0.21875 0.17578,0.26562 0.14454,0.35156 0.11718,0.61719 -0.14453,0.26172 -0.11719,0.30859 -0.14843,0.33203 -0.23438,0.26172 -0.14844,0.28516 -0.17578,0.26562 -0.11718,0.35157 -0.11719,0.33203 -0.0859,0.35156 v 0.35156 l -0.0312,0.33203 0.0586,0.35157 0.17579,0.26172 0.11718,0.28906 0.20703,0.23828 -0.29296,0.0898 -0.26563,0.17578 -0.14453,0.35157 -0.11719,0.28515 -0.11719,0.28907 -0.12109,0.32812 -0.0586,0.33203 -0.0274,0.3086 -0.0898,0.35156 -0.0273,0.32812 0.0586,0.375 -0.14844,0.3086 -0.20312,0.26562 -0.0899,0.3711 -0.14453,0.35156 -0.20703,0.24219 -0.23437,0.22265 -0.14844,0.26172 -0.23438,0.24219 -0.20312,0.24219 -0.29297,0.19921 -0.35547,0.17579 -0.29297,0.15625 -0.32031,0.0859 0.29297,0.0898"
       id="path150" />
    <path
       style="fill:none;stroke:#ffffff;stroke-width:0.85;stroke-linecap:round;stroke-linejoin:round;stroke-miterlimit:10;stroke-opacity:1"
       d="m 465.96094,152.53906 -0.29297,-0.0664 -0.35156,-0.0234 0.26562,-0.15235 0.29297,-0.0898 0.35156,-0.0859 0.35156,-0.0664 0.32422,-0.0898 0.35157,-0.043 0.32421,-0.043 0.32032,-0.0469"
       id="path152" />
    <path
       style="fill:none;stroke:#ffffff;stroke-width:0.85;stroke-linecap:round;stroke-linejoin:round;stroke-miterlimit:10;stroke-opacity:1"
       d="m 464.87891,149.28906 h 2.66796"
       id="path154" />
    <path
       style="fill:none;stroke:#ffffff;stroke-width:0.85;stroke-linecap:round;stroke-linejoin:round;stroke-miterlimit:10;stroke-opacity:1"
       d="m 333.125,169.55078 0.11719,-0.28516 0.26562,-0.22265 0.35156,-0.0859 h 0.73047 l 0.32422,0.043 h 0.38281 l 0.35157,-0.043 0.35156,-0.0898"
       id="path156" />
    <path
       style="fill:none;stroke:#ffffff;stroke-width:0.85;stroke-linecap:round;stroke-linejoin:round;stroke-miterlimit:10;stroke-opacity:1"
       d="m 331.62109,166.32812 h 3.46485"
       id="path158" />
    <path
       style="fill:none;stroke:#ffffff;stroke-width:0.85;stroke-linecap:round;stroke-linejoin:round;stroke-miterlimit:10;stroke-opacity:1"
       d="m 344.89062,161.78125 -0.32031,-0.0664 -0.32422,0.10938 -0.29297,0.22265 -0.20703,0.21875 -0.14453,0.32813 -0.14844,0.28906 -0.0586,0.3086 -0.17578,0.37109 -0.0586,0.375 -0.0312,0.41797 -0.0586,0.35156 v 0.33203 l 0.0586,0.375 v 0.3711 l 0.0586,0.35546 0.0625,0.39454 0.0586,0.375 0.0586,0.37109 0.0859,0.42187 0.11719,0.3711 0.20703,0.35156 0.0859,0.30859 0.0312,0.44141 0.11719,0.28516 0.17578,0.375 0.17578,0.30859 0.23438,0.30859 0.20703,0.26172 0.14453,0.26563 0.14844,-0.26563"
       id="path160" />
    <path
       style="fill:none;stroke:#ffffff;stroke-width:0.85;stroke-linecap:round;stroke-linejoin:round;stroke-miterlimit:10;stroke-opacity:1"
       d="m 348.5,163.65234 -0.0586,-0.33203 -0.0586,-0.30469 0.11719,0.28516 0.0898,0.375 0.0586,0.32813 0.0859,0.41796 0.0899,0.44141 0.0586,0.35156 0.0586,0.3086 0.0586,0.32812 0.0273,0.35156 0.0899,0.46485 0.0586,0.32812 0.0586,0.44141 0.0586,0.375 0.0586,0.35156 v 0.35156 l 0.0899,0.3086 0.0859,-0.3086 -0.0859,-0.375 0.11718,-0.35156 0.0586,-0.35156 0.0586,-0.33203 0.11719,-0.28516 0.14453,-0.26172 0.23437,-0.19922 0.26563,-0.15625 h 0.32422 l 0.32031,0.0898 0.32422,0.10937 0.29297,0.21875 0.20703,0.22266 0.26172,0.17578 0.14844,0.26172 0.17578,0.30859 0.0586,0.3086 -0.0586,0.33203 0.0586,0.35156 -0.26562,0.26563 -0.23438,0.23828 -0.20312,0.22265 -0.35547,0.0664 h -0.32032 l -0.32421,-0.0234 -0.32422,-0.0859 -0.26172,-0.15625 -0.26563,-0.17578 -0.0586,-0.32812"
       id="path162" />
    <path
       style="fill:none;stroke:#ffffff;stroke-width:0.85;stroke-linecap:round;stroke-linejoin:round;stroke-miterlimit:10;stroke-opacity:1"
       d="m 357.1875,171.04687 -1.46875,1.78125"
       id="path164" />
    <path
       style="fill:none;stroke:#ffffff;stroke-width:0.85;stroke-linecap:round;stroke-linejoin:round;stroke-miterlimit:10;stroke-opacity:1"
       d="m 362.52734,168.82031 v -3.29687"
       id="path166" />
    <path
       style="fill:none;stroke:#ffffff;stroke-width:0.85;stroke-linecap:round;stroke-linejoin:round;stroke-miterlimit:10;stroke-opacity:1"
       d="m 361.38281,167.89844 0.32422,-0.13282 0.26172,-0.17578 0.26562,-0.15234 0.29297,-0.0898 0.32032,-0.0859 0.29687,-0.0664 0.32031,0.043 0.32422,0.043"
       id="path168" />
    <path
       style="fill:none;stroke:#ffffff;stroke-width:0.85;stroke-linecap:round;stroke-linejoin:round;stroke-miterlimit:10;stroke-opacity:1"
       d="m 369.36328,168.42578 -0.14453,-0.26172 -0.0312,-0.30859 v -0.3086 l 0.0312,-0.30859 -0.0312,-0.32812 0.14844,-0.26563 0.0586,-0.375 0.0273,-0.30859 0.26563,-0.30469 0.0586,-0.30859 0.11719,-0.35157 0.23438,-0.19922 0.26562,-0.24218 0.58594,-0.26563 0.32031,-0.043 0.35547,0.17578 0.29297,0.0898 0.20312,0.26172 0.14844,0.26562 0.23438,0.21875 0.0273,0.3086 0.14844,0.35156 -0.0899,0.30859 0.0899,0.33203 -0.0312,0.35157 -0.11719,0.28515 -0.26172,0.24219 -0.17578,0.26562 -0.32422,0.15235 -0.29297,0.13281 -0.35156,0.0664 -0.32422,-0.0234 -0.29297,-0.13281 -0.26172,-0.19532 -0.32422,-0.17968 -0.14843,-0.28516 -0.17578,-0.30859 -0.23438,-0.19532 -0.0859,-0.33203 -0.26562,-0.19922 -0.17578,-0.26171 -0.26563,-0.19922 -0.32031,0.043 -0.11719,0.30859 -0.14844,0.26562 -0.0586,0.3086 -0.0859,0.35156 -0.0312,0.32813 v 0.68359 l 0.11719,0.35156 0.0898,0.3086 0.11719,0.30859 0.26172,0.17578 0.32422,0.0234 0.26562,-0.17578 0.20313,-0.26563 0.20703,-0.26562 0.17578,-0.26172 0.11719,-0.41797 0.17578,-0.30859 0.11719,-0.3086 0.11719,-0.28515 0.20703,-0.33204 0.17578,-0.28515 0.14453,-0.26563"
       id="path170" />
    <path
       style="fill:none;stroke:#ffffff;stroke-width:0.85;stroke-linecap:round;stroke-linejoin:round;stroke-miterlimit:10;stroke-opacity:1"
       d="m 374.03125,161.69141 0.29297,-0.0859 0.35156,0.0859 0.23438,0.28906 0.32421,0.24219 0.23438,0.26171 0.14453,0.375 0.11719,0.375 0.17578,0.26172 0.20703,0.42188 0.11719,0.4375 -0.0586,0.46094 0.0586,0.35546 0.17578,0.35157 0.0312,0.35156 0.0273,0.32812 0.0312,0.33204 -0.0312,0.35156 v 1.45312 l -0.0273,0.35157 -0.0586,0.33203 -0.0899,0.4375 -0.0312,0.33203 -0.0859,0.39453 -0.0898,0.35156 -0.17578,0.39844 -0.14453,0.35156 0.0273,0.3086 -0.17578,0.26171 -0.29297,0.22266 -0.11719,0.28516 -0.23437,0.19922 0.0273,-0.3086"
       id="path172" />
    <path
       style="fill:none;stroke:#ffffff;stroke-width:0.85;stroke-linecap:round;stroke-linejoin:round;stroke-miterlimit:10;stroke-opacity:1"
       d="m 383.33203,169.39453 0.26172,-0.19531 0.32422,-0.15625 0.29297,-0.10938 0.38281,-0.10937 0.32031,-0.0898 0.38281,-0.0859 0.35157,-0.0898 0.32422,-0.043 0.35156,-0.043 0.29297,-0.0664 h 0.35156 l 0.35156,-0.0234"
       id="path174" />
    <path
       style="fill:none;stroke:#ffffff;stroke-width:0.85;stroke-linecap:round;stroke-linejoin:round;stroke-miterlimit:10;stroke-opacity:1"
       d="m 383.58984,165.91016 h 3.10547"
       id="path176" />
    <path
       style="fill:none;stroke:#ffffff;stroke-width:0.85;stroke-linecap:round;stroke-linejoin:round;stroke-miterlimit:10;stroke-opacity:1"
       d="m 387.02734,162.85937 -2.90234,9.59375"
       id="path178" />
    <path
       style="fill:none;stroke:#ffffff;stroke-width:0.85;stroke-linecap:round;stroke-linejoin:round;stroke-miterlimit:10;stroke-opacity:1"
       d="m 393.75,164.35547 h -0.32422 l -0.26562,0.17578 -0.20313,0.24219 -0.23437,0.19922 -0.0586,0.32812 -0.11719,0.28906 -0.0898,0.35157 -0.14844,0.375 v 0.39453 l -0.0586,0.39453 0.0312,0.39844 -0.0312,0.35156 0.0898,0.35156 0.14844,0.30859 0.0586,0.3086 0.14454,0.28515 0.23437,0.24219 0.29297,0.17578 0.32422,0.0898 0.38281,0.0195 0.32031,-0.0664 0.29297,-0.1289 0.29688,-0.15625 0.32031,-0.10938 0.20703,-0.24219 0.26172,-0.32812 0.26562,-0.26563 0.26563,-0.28515 0.14453,-0.35157 0.20703,-0.33203 0.11719,-0.30859 0.14453,-0.35156 0.11719,-0.32813 0.0312,-0.375 0.23437,-0.61719 -0.14843,-0.35156 -0.0274,-0.30859 -0.0898,-0.3086 -0.11719,-0.30859 -0.14453,-0.26172 -0.20703,-0.22265 -0.29297,-0.15235 -0.32422,-0.10937 -0.35156,-0.0469 -0.32031,-0.0195 -0.35157,0.0195 -0.29687,0.0664 -0.32031,0.0898 -0.35157,0.19922 -0.29687,0.15234 -0.14453,0.28516 -0.23438,0.22266 -0.11719,0.28515 0.14454,0.28516"
       id="path180" />
    <path
       style="fill:none;stroke:#ffffff;stroke-width:0.85;stroke-linecap:round;stroke-linejoin:round;stroke-miterlimit:10;stroke-opacity:1"
       d="m 398.70703,161.73828 -8.94922,13.17969"
       id="path182" />
    <path
       style="fill:none;stroke:#ffffff;stroke-width:0.85;stroke-linecap:round;stroke-linejoin:round;stroke-miterlimit:10;stroke-opacity:1"
       d="m 204.16016,150.95312 -0.14844,-0.26562 0.0586,-0.30469 -0.0586,-0.35547 -0.0273,-0.30468 -0.0312,-0.3086 -0.0586,-0.35156 v -0.72656 l -0.0859,-0.375 0.0586,-0.33203 0.14453,-0.35157 0.0898,-0.35156 v -0.375 l 0.0273,-0.39453 0.14843,-0.26563 0.17578,-0.26171 0.17579,-0.26563 0.0898,-0.44141 0.14453,-0.4375 0.14844,-0.26562 0.17578,-0.28516 0.14453,-0.28515 0.17578,-0.26563 0.14844,-0.30859 0.20703,-0.28516 0.20313,-0.28515 0.20703,-0.3086 0.20312,-0.26562 0.23438,-0.28516 0.23828,-0.26562 0.32031,-0.3711 0.23438,-0.26562 0.20703,-0.24219 0.23437,-0.26563 0.26563,-0.26171 0.20312,-0.24219 0.20703,-0.28516 0.26172,-0.19922 0.29297,-0.17578 0.26563,-0.15625 0.26562,-0.19531 0.23438,-0.24219 0.29296,-0.19922 0.26172,-0.15625 0.26563,-0.15234 0.26562,-0.19922 0.29297,-0.24219 0.26172,-0.21875 0.29688,-0.21875 0.35156,-0.13281 0.29297,-0.15625 0.29297,-0.17578 0.41015,-0.17578 0.32422,-0.15235 0.35156,-0.10937 0.26172,-0.15625 0.35547,-0.13281 0.35156,-0.15235 0.37891,-0.15234 0.41406,-0.11328 0.35156,-0.0859 0.32032,-0.15625 0.32422,-0.0859 0.58593,-0.26562 0.29297,-0.10938 0.32422,-0.0859 0.26563,-0.15625 0.32031,-0.13282 0.32422,-0.15234 0.32031,-0.10938 0.23828,-0.22265 0.32031,-0.17578 0.38282,-0.19532 0.26171,-0.19921 0.32422,-0.13282 0.26563,-0.21875 0.20312,-0.30859 0.23438,-0.19922 0.26562,-0.28516 0.20703,-0.24218 0.23438,-0.26563 0.20312,-0.24219 0.20704,-0.21875 0.20312,-0.30859 0.20703,-0.30859 0.17578,-0.26172 0.11719,-0.33203 0.20703,-0.26172 0.17578,-0.28906 0.11719,-0.32813 0.20313,-0.26562 0.20703,-0.26172 0.26562,0.15234 0.23438,0.21875 0.11718,0.30859 0.20313,0.22266 0.0898,0.35156 0.11719,0.35157 0.0586,0.32812 0.0859,0.33203 0.0586,0.3086 0.20703,0.21875 -0.17578,-0.26172 0.0312,-0.3086 -0.23829,-0.28906 0.0312,-0.35156 -0.17578,-0.35156 -0.11718,-0.375 -0.0898,-0.32813 -0.0859,-0.33203 -0.0898,-0.35156 -0.0859,-0.35157 -0.17578,-0.26562 -0.0586,-0.30469 -0.23828,0.19532 -0.26172,0.19921 -0.20703,0.26563 -0.26172,0.24219 -0.32422,0.26171 -0.26563,0.26563 -0.23437,0.26172 -0.23438,0.24219 -0.20312,0.22265 -0.20703,0.21875 -0.26563,0.17578 -0.17578,-0.26562"
       id="path184" />
    <path
       style="fill:none;stroke:#ffffff;stroke-width:0.85;stroke-linecap:round;stroke-linejoin:round;stroke-miterlimit:10;stroke-opacity:1"
       d="M 80.417969,17.191406 80.089844,17.015625"
       id="path186" />
  </g>
</svg>
