<?xml version="1.0" encoding="UTF-8" standalone="no"?>
<svg
   width="504.69394"
   height="285.82541"
   viewBox="0 0 504.69394 285.82541"
   version="1.2"
   id="svg100"
   sodipodi:docname="Quick sheets - page 92.svg"
   inkscape:version="1.1.2 (0a00cf5339, 2022-02-04, custom)"
   xmlns:inkscape="http://www.inkscape.org/namespaces/inkscape"
   xmlns:sodipodi="http://sodipodi.sourceforge.net/DTD/sodipodi-0.dtd"
   xmlns="http://www.w3.org/2000/svg"
   xmlns:svg="http://www.w3.org/2000/svg"
   xmlns:rdf="http://www.w3.org/1999/02/22-rdf-syntax-ns#"
   xmlns:cc="http://creativecommons.org/ns#"
   xmlns:dc="http://purl.org/dc/elements/1.1/">
  <defs
     id="defs104" />
  <sodipodi:namedview
     id="namedview102"
     pagecolor="#505050"
     bordercolor="#ffffff"
     borderopacity="1"
     inkscape:pageshadow="0"
     inkscape:pageopacity="0"
     inkscape:pagecheckerboard="1"
     showgrid="false"
     fit-margin-top="0"
     fit-margin-left="0"
     fit-margin-right="0"
     fit-margin-bottom="0"
     inkscape:zoom="1.8495789"
     inkscape:cx="247.89427"
     inkscape:cy="208.15549"
     inkscape:window-width="1920"
     inkscape:window-height="1029"
     inkscape:window-x="0"
     inkscape:window-y="28"
     inkscape:window-maximized="1"
     inkscape:current-layer="svg100" />
  <title
     id="title2">Quick sheets</title>
  <g
     id="g6"
     transform="translate(-290.87402,-105.596)">
    <path
       fill="none"
       stroke="#000000"
       stroke-width="6"
       stroke-linecap="butt"
       stroke-linejoin="round"
       d="m 293.809,261.091 498.02183,-1.51515"
       id="path4"
       sodipodi:nodetypes="cc" />
  </g>
  <g
     id="g34"
     transform="translate(-290.87402,-105.596)">
    <path
       fill="none"
       stroke="#0062cc"
       stroke-width="4"
       stroke-linecap="butt"
       stroke-linejoin="round"
       d="m 541.835,114.744 c -7.46839,-6.44862 4.11989,-8.38649 9.00713,-6.35583 9.57301,2.26776 19.94687,-1.30364 28.90458,0.19816 -2.08457,5.16397 -9.14216,8.24074 -12.8227,13.06141 -5.28902,4.71083 -8.53759,11.05121 -12.69986,16.61287 -1.37722,1.46919 -3.06698,2.72949 -5.04212,3.24637"
       id="path32" />
  </g>
  <g
     id="g38"
     transform="translate(-290.87402,-105.596)">
    <path
       fill="none"
       stroke="#0062cc"
       stroke-width="4"
       stroke-linecap="butt"
       stroke-linejoin="round"
       d="m 560.06,116.414 c -5.56097,9.37795 -16.15545,18.90998 -17.41588,28.97352 8.10037,4.70474 21.21471,4.96674 29.13513,1.4758 1.11702,-1.50826 2.30204,-7.24452 -1.08425,-6.77126"
       id="path36" />
  </g>
  <g
     id="g42"
     transform="translate(-290.87402,-105.596)">
    <path
       fill="none"
       stroke="#0062cc"
       stroke-width="4"
       stroke-linecap="butt"
       stroke-linejoin="round"
       d="m 511.554,144.103 c -38.36347,-4.01485 -76.4442,9.25008 -110.16252,26.28813 -24.20823,15.49311 -45.81753,36.29394 -57.36277,63.0283 -6.89423,8.26721 -8.98193,-14.7772 -2.12536,2.16036 5.43082,10.01888 13.0615,-1.25927 18.69765,-4.55579"
       id="path40" />
  </g>
  <g
     id="g46"
     transform="translate(-290.87402,-105.596)">
    <path
       fill="none"
       stroke="#0062cc"
       stroke-width="4"
       stroke-linecap="butt"
       stroke-linejoin="round"
       d="m 548.721,163.732 c -69.01425,11.64959 -82.28171,26.99371 -109.96662,68.48002 -1.40792,-5.13073 -3.34496,-13.46175 -0.7161,-2.72178 3.2734,20.17773 12.32721,2.35407 20.99172,-1.71124"
       id="path44"
       sodipodi:nodetypes="cccc" />
  </g>
  <g
     id="g50"
     transform="translate(-290.87402,-105.596)">
    <path
       fill="none"
       stroke="#0062cc"
       stroke-width="4"
       stroke-linecap="butt"
       stroke-linejoin="round"
       d="m 566.082,160.905 c -2.03619,14.85595 -4.76033,30.36019 -14.60572,42.28696 -7.94094,9.74609 -16.19384,19.35623 -25.05983,28.2321 -4.36811,4.09074 -10.05637,9.30383 -6.74941,0.0875 -0.0894,-4.92219 0.39862,-16.44693 -0.23754,-5.49292 -2.12485,7.16069 -5.48473,23.24301 7.14069,15.0877 2.76614,-1.28024 5.37288,-2.87744 7.88582,-4.59531"
       id="path48" />
  </g>
  <g
     id="g54"
     transform="translate(-290.87402,-105.596)">
    <path
       fill="none"
       stroke="#0062cc"
       stroke-width="4"
       stroke-linecap="butt"
       stroke-linejoin="round"
       d="m 595.046,157.129 c 3.05841,2.21501 3.70405,6.36635 5.00815,9.68971 2.12519,6.72044 4.58849,13.40193 5.3317,20.46163 1.45644,11.64337 0.55994,23.44876 -0.92706,35.03498 -1.2841,5.11691 -1.10907,10.88941 -4.30223,15.32459 -2.32085,2.99848 -2.05867,-3.21908 -3.28866,-4.66595 -0.51467,-1.55974 -2.38238,-6.12511 -1.70605,-6.06319 1.89302,4.09041 4.24242,8.89598 8.8434,10.37569 3.26172,0.6238 5.89824,-2.07233 8.01225,-4.16217 1.1939,-1.8302 4.66788,-4.62181 3.22826,-6.64123 -0.61235,0.0313 -1.1677,0.30114 -1.70801,0.55994"
       id="path52" />
  </g>
  <g
     id="g58"
     transform="translate(-290.87402,-105.596)">
    <path
       fill="none"
       stroke="#0062cc"
       stroke-width="4"
       stroke-linecap="butt"
       stroke-linejoin="round"
       d="m 614.158,149.755 c 11.9883,-0.0186 18.71121,11.60031 26.5337,18.91352 8.88101,9.4578 15.63824,20.60887 21.11189,32.28728 3.41158,9.31499 10.69096,19.80486 9.97888,29.24564 -4.93889,1.05353 -19.63857,-11.08327 -8.27838,-4.5023 5.61532,6.8977 18.55853,10.38761 16.07002,-2.69166 -0.0674,-2.32139 0.47253,-7.84049 -3.22011,-7.25948"
       id="path56" />
  </g>
  <g
     id="g62"
     transform="translate(-290.87402,-105.596)">
    <path
       fill="none"
       stroke="#0062cc"
       stroke-width="4"
       stroke-linecap="butt"
       stroke-linejoin="round"
       d="m 623.154,131.516 c 22.83107,-4.81637 46.16561,2.90467 66.63519,12.5593 31.01469,21.99234 47.30596,57.72694 65.67401,89.78869 8.20682,8.34664 -16.36981,2.05446 -3.67461,5.54445 8.39737,-0.83738 10.21038,-10.66549 10.95241,-17.41739"
       id="path60" />
  </g>
  <g
     id="g66"
     transform="translate(-290.87402,-105.596)">
    <path
       fill="none"
       stroke="#bfbfbf"
       stroke-width="4"
       stroke-linecap="butt"
       stroke-linejoin="round"
       d="m 640.488,247.358 0.068,-2.157 0.404,-0.559 0.755,3.465 0.63,6.675 0.493,11.811 0.532,3.176 -0.193,-0.324 -0.071,0.357 0.143,-2.777"
       id="path64" />
  </g>
  <g
     id="g70"
     transform="translate(-290.87402,-105.596)">
    <path
       fill="none"
       stroke="#bfbfbf"
       stroke-width="4"
       stroke-linecap="butt"
       stroke-linejoin="round"
       d="m 636.707,307.313 0.253,-0.038 0.011,-0.622 0.076,0.592 0.063,-0.646 0.337,-0.362 0.222,0.228 2.757,-4.087 4.192,-4.522 1.742,-2.508 2.893,-2.529 0.259,-0.85 -0.552,0.361"
       id="path68" />
  </g>
  <g
     id="g74"
     transform="translate(-290.87402,-105.596)">
    <path
       fill="none"
       stroke="#bfbfbf"
       stroke-width="4"
       stroke-linecap="butt"
       stroke-linejoin="round"
       d="m 635.221,293.691 -0.412,-0.763 -0.1,0.503 -0.022,-0.395 0.562,0.459 0.472,-0.239 0.655,1.194 0.628,0.115 1.584,1.131 3.734,4.594 3.518,5.859 3.455,5.098 0.606,0.398 0.077,0.804 -0.256,-2.175"
       id="path72" />
  </g>
  <g
     id="g78"
     transform="translate(-290.87402,-105.596)">
    <path
       fill="none"
       stroke="#d90707"
       stroke-width="4"
       stroke-linecap="butt"
       stroke-linejoin="round"
       d="m 596.164,267.849 0.138,-0.302 0.267,1.059 0.891,13.901 0.1,12.731 1.422,24.684 0.033,2.799 -0.479,-0.195"
       id="path76" />
  </g>
  <g
     id="g82"
     transform="translate(-290.87402,-105.596)">
    <path
       fill="none"
       stroke="#d90707"
       stroke-width="4"
       stroke-linecap="butt"
       stroke-linejoin="round"
       d="m 594.651,339.036 c -4.98112,2.02666 -10.69141,-10e-4 -15.63601,1.89843 0.16141,5.08035 1.5865,10.46067 0.54891,15.87316 -0.74867,8.3372 -1.0164,16.71693 -1.43074,25.05463 -1.03977,3.88945 -0.82083,8.62923 4.37887,6.63394 2.78177,0.33436 8.35223,-0.51622 9.55795,1.35379"
       id="path80" />
  </g>
  <g
     id="g86"
     transform="translate(-290.87402,-105.596)">
    <path
       fill="none"
       stroke="#d90707"
       stroke-width="4"
       stroke-linecap="butt"
       stroke-linejoin="round"
       d="m 601.789,369.182 c 3.45939,-1.71782 5.91214,-4.84921 8.45805,-7.63865 1.47998,-2.12122 3.39323,-3.90309 4.81995,-6.06431"
       id="path84" />
  </g>
  <g
     id="g90"
     transform="translate(-290.87402,-105.596)">
    <path
       fill="none"
       stroke="#d90707"
       stroke-width="4"
       stroke-linecap="butt"
       stroke-linejoin="round"
       d="m 604.457,354.901 c 5.21397,4.54998 7.3372,11.38641 10.91899,17.092"
       id="path88" />
  </g>
  <g
     id="g94"
     transform="translate(-290.87402,-105.596)">
    <path
       fill="none"
       stroke="#d90707"
       stroke-width="4"
       stroke-linecap="butt"
       stroke-linejoin="round"
       d="m 621.205,385.971 c 3.8456,-0.55045 7.65685,1.50821 11.48271,0.55748 2.30956,-0.5759 2.87029,-3.10309 3.05508,-5.13825 1.61289,-10.9771 1.19145,-22.12242 2.47011,-33.13123 -0.28637,-3.22972 0.943,-6.55909 -0.12993,-9.71133 -1.16001,-2.44482 -3.83593,-0.30099 -5.72042,-0.88014 -2.93863,-0.14288 -6.26085,0.46565 -8.78956,-1.41952"
       id="path92" />
  </g>
  <g
     id="g98"
     transform="translate(-290.87402,-105.596)">
    <path
       fill="none"
       stroke="#d90707"
       stroke-width="4"
       stroke-linecap="butt"
       stroke-linejoin="round"
       d="m 586.478,246.593 c -5.73887,-1.09847 -8.73079,5.6014 -10.11195,10.09606 -3.2586,13.52533 10.56998,27.73894 24.20929,24.35986 12.35151,-2.92493 20.19097,-19.45909 12.3772,-30.19053 -3.93049,-5.68556 -11.61971,-7.97613 -18.21493,-6.91194 -2.85348,0.17549 -5.48947,5.69256 -8.24062,2.73052"
       id="path96" />
  </g>
  <metadata
     id="metadata921">
    <rdf:RDF>
      <cc:Work
         rdf:about="">
        <dc:title>Quick sheets</dc:title>
      </cc:Work>
    </rdf:RDF>
  </metadata>
  <circle
     style="fill:#0062cc;fill-opacity:1;stroke-width:2;paint-order:stroke fill markers;stop-color:#000000"
     id="path2423"
     cx="479.87241"
     cy="155.38663"
     r="9.751811" />
  <circle
     style="fill:#0062cc;fill-opacity:1;stroke-width:2;paint-order:stroke fill markers;stop-color:#000000"
     id="path2423-3"
     cx="393.59247"
     cy="155.38663"
     r="9.751811" />
  <circle
     style="fill:#0062cc;fill-opacity:1;stroke-width:2;paint-order:stroke fill markers;stop-color:#000000"
     id="path2423-6"
     cx="304.92361"
     cy="155.38663"
     r="9.751811" />
  <circle
     style="fill:#0062cc;fill-opacity:1;stroke-width:2;paint-order:stroke fill markers;stop-color:#000000"
     id="path2423-7"
     cx="221.12077"
     cy="155.38663"
     r="9.751811" />
  <circle
     style="fill:#0062cc;fill-opacity:1;stroke-width:2;paint-order:stroke fill markers;stop-color:#000000"
     id="path2423-5"
     cx="147.59052"
     cy="155.38663"
     r="9.751811" />
  <circle
     style="fill:#0062cc;fill-opacity:1;stroke-width:2;paint-order:stroke fill markers;stop-color:#000000"
     id="path2423-35"
     cx="50.811718"
     cy="155.38663"
     r="9.751811" />
</svg>
