<?xml version="1.0" encoding="UTF-8" standalone="no"?>
<svg
   width="200.38907pt"
   height="89.05703pt"
   viewBox="0 0 200.38907 89.057029"
   version="1.2"
   id="svg59"
   sodipodi:docname="puntoInterno.svg"
   inkscape:version="1.1.2 (0a00cf5339, 2022-02-04, custom)"
   xmlns:inkscape="http://www.inkscape.org/namespaces/inkscape"
   xmlns:sodipodi="http://sodipodi.sourceforge.net/DTD/sodipodi-0.dtd"
   xmlns="http://www.w3.org/2000/svg"
   xmlns:svg="http://www.w3.org/2000/svg">
  <defs
     id="defs63" />
  <sodipodi:namedview
     id="namedview61"
     pagecolor="#505050"
     bordercolor="#ffffff"
     borderopacity="1"
     inkscape:pageshadow="0"
     inkscape:pageopacity="0"
     inkscape:pagecheckerboard="1"
     inkscape:document-units="pt"
     showgrid="false"
     fit-margin-top="0"
     fit-margin-left="0"
     fit-margin-right="0"
     fit-margin-bottom="0"
     inkscape:zoom="0.56123737"
     inkscape:cx="136.30596"
     inkscape:cy="488.20698"
     inkscape:window-width="2560"
     inkscape:window-height="1389"
     inkscape:window-x="0"
     inkscape:window-y="28"
     inkscape:window-maximized="1"
     inkscape:current-layer="svg59" />
  <g
     id="surface184308"
     transform="translate(-154.68437,-55.434375)">
    <path
       style="fill:none;stroke:#ffffff;stroke-width:0.85;stroke-linecap:round;stroke-linejoin:round;stroke-miterlimit:10;stroke-opacity:1"
       d="M 155.10937,84.855469 H 354.64844"
       id="path2" />
    <path
       style="fill:none;stroke:#1970d7;stroke-width:0.85;stroke-linecap:round;stroke-linejoin:round;stroke-miterlimit:10;stroke-opacity:1"
       d="m 214.25391,76.082031 -0.26563,0.15625 -0.26172,0.199219 -0.23437,0.261719 -0.20703,0.285156 -0.23438,0.289063 -0.14844,0.261718 -0.20312,0.332032 -0.0586,0.371093 -0.23437,0.289063 -0.11719,0.328125 -0.14844,0.417969 -0.0586,0.398437 -0.11719,0.417969 -0.17578,0.394531 -0.17578,0.375 v 0.394531 l -0.0586,0.308594 -0.0898,0.441406 -0.0586,0.394532 -0.0586,0.398437 -0.0586,0.4375 -0.0273,0.308594 -0.0312,0.398437 0.0312,0.394532 -0.0898,0.441406 v 0.703125 l 0.0312,0.351562 0.0586,0.351563 0.0273,0.308594 0.11719,0.617187 0.0898,0.308594 0.0273,0.441406 0.0898,0.371094 0.17578,0.417969 0.17578,0.398437 0.11719,0.285156 0.0898,0.375 0.14454,0.308594 0.20703,0.371094 0.17578,0.265625 0.17578,0.332031 0.23437,0.328125 0.17579,0.351562 0.14843,0.332032 0.23438,0.242187 0.20312,0.261719 0.23438,0.199219"
       id="path4" />
    <path
       style="fill:none;stroke:#1970d7;stroke-width:0.85;stroke-linecap:round;stroke-linejoin:round;stroke-miterlimit:10;stroke-opacity:1"
       d="m 280.12891,77.25 0.17578,0.265625 0.17578,0.285156 0.0586,0.394531 0.14844,0.285157 0.14844,0.289062 0.0273,0.351563 V 79.5625 l 0.11719,0.285156 0.14844,0.261719 0.11718,0.289063 0.0586,0.304687 v 0.332031 l -0.0312,0.375 0.0586,0.375 0.0898,0.371094 0.0859,0.332031 0.0586,0.351563 0.0312,0.394531 0.0586,0.398437 0.0273,0.394532 0.0586,0.375 0.0312,0.394531 0.0898,0.375 v 1.277344 l 0.0273,0.394531 0.0312,0.332031 0.0274,0.328125 0.0312,0.332032 -0.0312,0.351562 -0.0859,0.332031 -0.0625,0.328125 0.0625,0.332032 0.0273,0.304687 v 0.308594 l -0.0586,0.308593 -0.11719,0.332032 -0.0898,0.308594 -0.0273,0.417968 0.0859,0.371094 -0.14453,0.398438 -0.20703,0.328124 -0.11719,0.351563 -0.0586,0.332031 -0.17578,0.285156 -0.14453,0.308594 -0.20703,0.242188 -0.26563,0.15625"
       id="path6" />
    <path
       style="fill:#1970d7;fill-opacity:0.501961;fill-rule:nonzero;stroke:#1970d7;stroke-width:0.85;stroke-linecap:round;stroke-linejoin:round;stroke-miterlimit:10;stroke-opacity:1"
       d="m 214.10547,80.617188 -0.29297,-0.08984 h -0.32031 l -0.35157,-0.01953 -0.29687,0.06641 -0.29297,0.109375 -0.20312,0.21875 -0.20704,0.242187 -0.14453,0.265625 -0.0586,0.308594 -0.14844,0.261719 0.0273,0.308593 -0.0273,0.332032 -0.11719,0.285156 0.0273,0.308594 -0.14453,0.285156 -0.0898,0.308594 -0.0273,0.308594 -0.0898,0.308593 -0.0859,0.308594 -0.0312,0.304687 -0.0273,0.308594 -0.0586,0.308594 -0.0312,0.332031 0.0898,0.308594 -0.11718,0.304687 0.0586,0.308594 v 0.308594 l 0.11719,0.617188 0.11719,0.285156 0.23437,0.21875 0.20313,0.222656 0.26562,0.199219 0.29297,0.175781 0.29297,0.152344 0.26562,0.199218 0.29297,0.175782 0.29297,0.08594 0.32422,0.02344 0.29297,0.08984 0.38281,0.01953 0.32031,0.06641 h 1 l 0.35157,-0.02344 0.32031,-0.01953 0.38281,-0.04297 0.32422,-0.04687 0.37891,-0.01953 0.32421,-0.04687 0.35157,-0.04297 0.29297,-0.06641 0.32421,-0.06641 0.35157,-0.04297 0.38281,-0.06641 0.35156,-0.02344 0.29297,-0.0625 0.32422,0.01953 0.35156,-0.04297 0.37891,-0.04297 0.35547,-0.06641 0.3789,-0.02344 0.38282,-0.02344 0.35156,-0.04297 0.35156,0.02344 0.35156,-0.04297 0.44141,-0.04687 0.32422,0.02344 0.3789,0.02344 0.41016,-0.04687 0.38281,-0.01953 0.32422,-0.02344 h 0.76172 l 0.41016,-0.02344 0.35156,-0.01953 h 0.73437 l 0.32422,-0.02344 h 1.08594 l 0.41016,-0.01953 h 0.35156 l 0.35156,0.01953 h 0.38281 l 0.32032,-0.04297 h 0.35547 l 0.35156,0.02344 h 0.35156 l 0.35156,-0.02344 0.44141,-0.02344 h 0.70312 l 0.32422,0.02344 0.37891,0.02344 h 0.70703 l 0.29297,0.0625 h 0.67187 l 0.35547,0.06641 h 0.35157 l 0.35156,0.04687 0.35156,0.04297 0.35156,0.01953 0.32422,0.04687 0.37891,0.06641 0.32422,0.04297 h 0.38281 l 0.32031,0.06641 0.32422,0.06641 0.35156,0.04297 0.38282,0.04297 0.32031,0.02344 0.38281,0.04297 0.32422,0.04297 0.37891,0.04687 0.35156,0.04297 0.38281,0.02344 0.35156,0.01953 0.38282,0.02344 0.35156,0.04297 0.32422,0.02344 h 0.3789 l 0.32422,0.01953 0.32422,0.04688 h 0.76172 l 0.38281,0.04297 0.37891,0.02344 0.38281,-0.02344 0.32422,0.02344 0.35156,0.01953 0.35156,0.04297 0.41016,-0.01953 h 0.38281 l 0.35157,-0.02344 0.35156,-0.01953 0.41015,-0.04687 h 0.38282 l 0.32031,-0.04297 0.64844,-0.08594 h 0.35156 l 0.37891,-0.02344 0.35546,-0.04297 0.37891,-0.02344 h 0.64844 l 0.32031,-0.04297 0.46875,-0.02344 h 0.35156 l 0.35547,-0.04297 0.35156,-0.04297 0.37891,-0.02344 h 0.41406 l 0.32032,-0.02344 0.41015,-0.01953 0.41406,-0.02344 0.32032,0.02344 0.38281,-0.04687 0.32031,-0.01953 0.32422,-0.02344 0.32422,0.02344 0.35156,-0.02344 0.38281,-0.02344 0.37891,0.02344 h 1.11719 l 0.32031,0.02344 0.35156,0.01953 0.35547,0.02344 0.37891,0.02344 h 0.32422 l 0.35156,0.01953 0.35156,0.02344 h 0.35156 l 0.32422,0.04297 0.35157,0.04297 0.35156,0.02344 0.38281,0.04297 0.35156,0.04687 h 0.35157 l 0.38281,0.04297 h 0.3789 l 0.32422,0.06641 0.32422,-0.04297 0.35156,0.0625 h 0.35157 l 0.32422,0.08984 0.35156,0.06641 0.32031,0.06641 0.32422,0.04297 0.35156,0.06641 0.32422,0.04297 0.29297,0.06641 0.32422,0.06641 0.35156,0.02344 0.29297,0.08594 0.35156,0.02344 0.32422,0.08594 0.35156,0.04687 0.32032,0.06641 0.38281,0.0625 0.29297,0.08984 0.70312,0.08594 0.32422,-0.01953 0.29297,0.06641 h 0.35156 l 0.35156,0.01953 0.32422,0.04687 0.35157,0.01953 0.32421,0.02344 0.32422,-0.02344 h 0.67188 l 0.64844,0.04687 0.29296,-0.08984 h 0.32032 l 0.32422,-0.06641 0.29296,-0.109375 0.26563,-0.152344 0.26172,-0.15625 0.32422,-0.109375 0.11718,-0.285156 0.20704,-0.222656 0.20312,-0.21875 0.20703,-0.21875 0.0859,-0.308594 0.0898,-0.308594 0.0859,-0.332031 0.11719,-0.328125 0.0898,-0.332031 0.0586,-0.308594 0.11718,-0.285156 V 86.84375 l 0.14844,-0.261719 v -0.308593 l 0.0273,-0.308594 0.0586,-0.308594 v -0.328125 l 0.14844,-0.308594 0.11718,-0.285156 v -0.308594 l 0.0274,-0.308593 0.0586,-0.308594 -0.0273,-0.308594 -0.0899,-0.308594 -0.20312,-0.21875 -0.23828,-0.222656 -0.29297,-0.152344 -0.29297,-0.175781 -0.29297,-0.199219 h -0.32422 l -0.26172,-0.152344 -0.29297,-0.15625 -0.29296,-0.06641 -0.29297,-0.08594 -0.35547,-0.132813 -0.32031,-0.04297 -0.29297,-0.08984 -0.29297,-0.06641 -0.32422,-0.04297 -0.29297,-0.109375 -0.32422,0.04297 -0.41015,-0.109374 -0.38282,-0.02344 h -0.35156 l -0.29297,-0.0625 -0.32422,-0.02344 h -0.35156 l -0.32031,-0.08984 -0.29297,0.08984 -0.32422,-0.04297 h -0.38281 l -0.35156,-0.04687 -0.35157,0.02344 -0.35156,-0.02344 -0.35156,0.02344 h -0.32422 l -0.35156,-0.02344 -0.29297,0.06641 -0.32422,-0.01953 h -0.38281 l -0.32032,0.04297 -0.38281,-0.04297 -0.35156,0.04297 -0.35156,-0.02344 -0.35157,0.04687 -0.35156,-0.02344 h -0.38281 l -0.32422,0.04297 -0.29297,-0.06641 -0.32031,0.02344 -0.35547,0.02344 -0.35156,-0.02344 -0.35156,0.06641 -0.32032,-0.04297 -0.35547,0.04297 -0.32031,-0.04297 -0.32422,0.04297 -0.35156,-0.04297 -0.35156,-0.04687 -0.32422,0.04687 -0.29297,-0.08984 -0.32422,0.02344 -0.32031,-0.02344 -0.29297,-0.06641 -0.38281,0.02344 -0.35156,-0.02344 -0.35157,-0.04297 -0.32422,-0.02344 h -0.38281 l -0.35156,-0.01953 -0.35156,-0.113281 -0.37891,0.04687 -0.32422,-0.04687 -0.29297,-0.06641 -0.38281,0.02344 -0.38281,-0.04297 -0.35156,-0.02344 -0.35157,-0.04297 -0.35156,-0.02344 -0.35156,-0.06641 H 256.625 l -0.32031,-0.04297 -0.35547,-0.04297 -0.35156,0.02344 -0.37891,-0.04687 -0.38281,0.04687 -0.44141,-0.02344 h -0.35156 l -0.35156,0.02344 -0.35157,-0.04687 -0.35156,0.02344 h -0.35156 l -0.35547,-0.04297 -0.35156,0.04297 -0.29297,-0.06641 h -0.32031 l -0.44141,0.02344 -0.29297,-0.06641 h -0.35156 l -0.76563,-0.04687 -0.35156,-0.04297 -0.35156,-0.01953 -0.35156,-0.04687 -0.38282,0.04687 -0.3789,-0.06641 -0.38282,-0.06641 -0.35156,-0.02344 h -1.05859 l -0.35156,0.02344 -0.35157,-0.02344 -0.35156,0.02344 -0.32422,-0.02344 -0.3789,-0.04297 -0.29297,-0.08984 -0.35547,-0.04297 -0.29297,-0.08984 -0.29297,-0.0625 -0.35156,-0.06641 -0.32422,-0.06641 -0.32031,-0.04297 -0.32422,-0.02344 -0.35156,-0.02344 -0.32422,-0.01953 -0.32032,-0.04687 -0.35156,0.06641 -0.32422,-0.04297 -0.32422,0.02344 h -0.3789 l -0.32422,0.01953 -0.32422,0.02344 -0.32031,-0.02344 -0.29297,0.06641 -0.32422,-0.04297 -0.35156,0.06641 -0.38281,0.01953 h -0.32032 l -0.35547,0.04687 -0.32031,0.01953 -0.32422,0.02344 -0.38281,0.06641 -0.32031,0.04297 -0.35156,0.02344 -0.32422,0.01953 -0.35157,0.113281 -0.4414,0.0625 h -0.37891 l -0.29687,0.08984 -0.29297,0.06641 h -0.35156 l -0.35157,0.06641 -0.4414,0.01953 -0.70313,0.04687 -0.38281,0.01953 h -0.41016 l -0.35156,0.06641 h -0.35156 l -0.38281,0.02344 -0.32032,-0.02344 -0.38281,-0.04297 -0.32422,-0.02344 -0.29297,-0.06641 -0.32031,-0.04297 h -0.35156 l -0.35547,-0.04297 -0.35156,-0.06641 -0.35157,0.02344 -0.35156,-0.04687 h -0.32422 l -0.3789,-0.01953 -0.35157,-0.02344 -0.32421,0.02344 -0.35157,-0.02344 h -0.64453 l -0.35547,0.04297 -0.35156,-0.04297 h -1.32031 l -0.35156,-0.04297 -0.35157,0.01953 -0.35156,0.02344 -0.32422,-0.04297 -0.32422,0.04297 L 218.77344,80 h -0.32422 L 218.12891,79.98047 217.77344,79.95703 217.42187,80 h -0.32031 l -0.32422,0.02344 -0.32422,0.06641 -0.32031,0.01953 -0.35156,0.02344 -0.29688,0.06641 -0.29296,0.06641 -0.29297,0.152344 -0.29297,0.08984 -0.29297,0.08594 -0.26563,0.15625 -0.29296,0.08594 -0.29297,0.06641 -0.29297,0.08984"
       id="path8" />
    <path
       style="fill:none;stroke:#1970d7;stroke-width:0.85;stroke-linecap:round;stroke-linejoin:round;stroke-miterlimit:10;stroke-opacity:1"
       d="m 240.22266,64.351562 -0.23438,0.199219 -0.26562,0.15625 -0.35157,-0.53125 -0.11718,-0.351562 -0.0273,-0.308594 -0.0586,-0.308594 -0.0312,-0.394531 -0.0273,-0.308594 -0.0586,-0.375 0.0586,-0.304687 -0.0312,-0.375 -0.0273,-0.375 0.0273,-0.351563 0.0312,-0.351562 0.0586,-0.308594 v -0.332031 l 0.0859,-0.371094 0.0898,-0.355469 0.0273,-0.304687 0.14844,-0.308594 0.14453,-0.308594 0.17578,-0.285156 0.17578,-0.308594 0.20704,-0.242187 0.23437,-0.222656 0.17578,-0.308594 0.23438,-0.21875 0.29297,-0.132813 0.26562,-0.21875 0.32422,-0.152343 0.32031,-0.113282 0.35156,-0.01953 0.35547,0.04297 0.35157,0.109375 0.35156,0.132812 0.35156,0.175781 0.29297,0.132813 0.26562,0.242187 0.35157,0.21875 0.20312,0.222657 0.23828,0.285156 0.32032,0.242187 0.17578,0.308594 0.23437,0.261719 0.14844,0.351563 0.14844,0.308593 0.11718,0.351563 0.11719,0.289062 0.0273,0.304688 0.0586,0.308594 0.0586,0.375 0.11719,0.375 0.0898,0.308593 -0.0586,0.375 0.0586,0.304688 0.11719,0.355469 v 0.328124 l -0.0586,0.351563 0.0586,0.308594 -0.0898,0.308593 -0.14453,0.285157 -0.0898,0.308593"
       id="path10" />
    <path
       style="fill:none;stroke:#1970d7;stroke-width:0.85;stroke-linecap:round;stroke-linejoin:round;stroke-miterlimit:10;stroke-opacity:1"
       d="m 240.66406,61.492188 -0.23437,-0.21875 0.29297,-0.109376 0.29296,-0.113281 0.32422,-0.08594 0.35157,-0.08984 0.35156,-0.06641 0.46875,-0.08594 0.35156,-0.109375 0.35156,-0.08984 0.44141,-0.06641 0.44141,-0.04297 0.35156,-0.04297 0.29297,-0.06641 0.35156,-0.02344 0.41016,-0.01953 0.35156,0.01953 h 0.32422 l 0.35156,0.02344 h 0.35156 l 0.32422,0.06641 h 0.32422 l 0.32031,0.04297 0.32422,0.02344 h 0.32031 l -0.32031,-0.02344"
       id="path12" />
    <path
       style="fill:none;stroke:#2ec27d;stroke-width:0.85;stroke-linecap:round;stroke-linejoin:round;stroke-miterlimit:10;stroke-opacity:1"
       d="M 241.54687,80.207031 V 92.027344"
       id="path14" />
    <path
       style="fill:none;stroke:#2ec27d;stroke-width:0.85;stroke-linecap:round;stroke-linejoin:round;stroke-miterlimit:10;stroke-opacity:1"
       d="m 239.34375,102.00781 3.25781,-4.82031"
       id="path16" />
    <path
       style="fill:none;stroke:#2ec27d;stroke-width:0.85;stroke-linecap:round;stroke-linejoin:round;stroke-miterlimit:10;stroke-opacity:1"
       d="m 239.3125,98.113281 0.20703,0.21875 0.26172,0.265625 0.23437,0.21875 0.26563,0.285156 0.23437,0.265626 0.23438,0.351562 0.17578,0.375 0.0586,0.33203 0.35547,0.30469 0.20313,0.26562 0.17578,0.26563 0.20703,0.32812 0.20313,0.26563 0.14843,0.26172 0.14453,0.26562"
       id="path18" />
    <path
       style="fill:none;stroke:#2ec27d;stroke-width:0.85;stroke-linecap:round;stroke-linejoin:round;stroke-miterlimit:10;stroke-opacity:1"
       d="m 244.65234,104.05469 -0.23437,0.21875 0.0312,0.33203 0.0586,0.32812 0.11719,0.3086 0.17578,0.28906 0.20703,0.21875 0.29297,0.10938 0.29297,-0.0664 0.32031,-0.17578 0.23438,-0.26172 0.14843,-0.26563 0.11719,-0.33203 0.0586,-0.30468 0.0312,-0.3086 0.0273,-0.33203 0.0312,-0.30859 -0.0586,-0.32813 -0.14844,-0.28515 -0.11719,-0.3086 -0.26562,-0.15625 -0.29297,-0.0664 h -0.35157 l -0.29296,0.0664 -0.32422,0.10938 -0.32032,0.19922 -0.23437,0.19921 -0.20703,0.3086 -0.23438,0.19531 0.0898,0.33203 -0.1211,0.3086 0.0312,0.35156 0.11719,0.35156"
       id="path20" />
    <path
       style="fill:#2ec27d;fill-opacity:0.501961;fill-rule:nonzero;stroke:#2ec27d;stroke-width:0.85;stroke-linecap:round;stroke-linejoin:round;stroke-miterlimit:10;stroke-opacity:1"
       d="m 242.07031,75.113281 -0.20312,-0.242187 -0.29297,-0.152344 -0.29688,-0.06641 -0.29297,-0.08594 -0.32031,-0.04687 -0.35156,-0.04297 h -0.67578 l -0.32422,0.04297 -0.29297,0.08984 -0.35156,0.02344 -0.29297,0.08594 -0.29297,0.109375 -0.29297,0.132813 -0.29687,0.132812 -0.26172,0.152344 -0.29297,0.15625 -0.23438,0.195312 -0.23437,0.199219 -0.26563,0.21875 -0.20703,0.265625 0.0898,0.308594 -0.0898,0.328125 -0.0859,0.308593 0.0273,0.308594 0.20703,0.222656 0.26563,0.175782 0.26171,0.195312 0.26563,0.199219 0.29297,0.175781 0.29297,0.06641 0.32422,0.199219 0.26171,0.175781 0.29297,0.152344 0.29297,0.175782 0.29688,0.08984 0.32031,0.132813 0.32422,0.152344 0.29297,0.06641 0.29297,0.08594 0.29296,0.08984 0.35157,0.02344 0.29297,0.08594 0.29687,0.06641 0.32031,0.02344 0.29297,0.06641 0.32422,0.04297 0.41016,0.02344 0.32422,0.04297 0.32031,0.01953 0.32422,-0.04297 h 0.32422 l 0.32031,-0.01953 0.35156,-0.02344 0.29688,-0.08984 0.32031,-0.128906 0.29297,-0.08984 0.29297,-0.152344 0.29687,-0.199219 0.23438,-0.199218 0.23437,-0.21875 0.20313,-0.242188 0.20703,-0.21875 0.23437,-0.242187 0.0586,-0.308594 0.17578,-0.265625 0.0586,-0.308594 -0.0273,-0.308594 -0.11719,-0.285156 -0.14844,-0.265625 -0.29297,-0.21875 -0.26562,-0.175781 -0.26172,-0.199219 -0.29297,-0.152343 -0.32422,-0.08984 -0.29297,-0.06641 -0.29297,-0.128907 -0.29296,-0.109375 -0.35547,-0.04687 -0.32032,-0.06641 -0.35156,-0.01953 -0.32422,-0.04687 -0.32422,-0.04297 -0.29296,-0.08594 -0.32032,-0.04687 -0.29687,-0.06641 -0.29297,-0.08594 -0.32031,-0.04297 -0.32422,-0.132813"
       id="path22" />
    <path
       style="fill:none;stroke:#2ec27d;stroke-width:0.85;stroke-linecap:round;stroke-linejoin:round;stroke-miterlimit:10;stroke-opacity:1"
       d="m 249.02734,73.113281 -0.0586,-0.308593 v -0.332032 l 0.14453,-0.261718 0.11719,-0.308594 0.0586,-0.308594 0.0312,-0.328125 0.0859,-0.308594 0.11719,-0.332031 0.0898,-0.308594 -0.23437,0.265625 -0.11719,0.285157 -0.0586,0.351562 -0.0586,0.332031 v 0.308594 l -0.0586,0.308594 0.0273,0.304687 0.11719,0.308594 0.23437,0.222656 0.29297,0.128906 0.29688,-0.152343 0.26172,-0.175781 0.26562,-0.21875 0.11719,-0.308594 0.0859,-0.308594 0.14843,-0.265625 -0.0586,-0.328125 0.0586,-0.308594 0.0859,-0.308594 v -0.308593 l -0.11719,0.617187 v 0.328125 l 0.0312,0.332031 -0.0586,0.308594 0.0273,0.308594 0.0586,0.304688 0.0898,0.308593 0.14844,0.265625 0.23437,0.199219 0.32032,0.06641 0.35156,-0.06641 0.32422,-0.132813 0.29297,-0.15625"
       id="path24" />
    <path
       style="fill:none;stroke:#ff0000;stroke-width:0.85;stroke-linecap:round;stroke-linejoin:round;stroke-miterlimit:10;stroke-opacity:1"
       d="m 282.30078,79.472656 1.05859,15.582032"
       id="path26" />
    <path
       style="fill:none;stroke:#ff0000;stroke-width:0.85;stroke-linecap:round;stroke-linejoin:round;stroke-miterlimit:10;stroke-opacity:1"
       d="m 285.64844,98.574219 -4.57813,3.390621"
       id="path28" />
    <path
       style="fill:none;stroke:#ff0000;stroke-width:0.85;stroke-linecap:round;stroke-linejoin:round;stroke-miterlimit:10;stroke-opacity:1"
       d="m 281.01172,98.621094 0.17578,0.261718 0.23437,0.21875 0.0859,0.332032 0.20703,0.21875 0.26563,0.289062 0.14453,0.261724 0.20703,0.26562 0.29297,0.28516 0.23437,0.19922 0.23438,0.32812 0.17578,0.28516 0.26563,0.26562 0.29296,0.21875 0.32032,0.24219 0.26562,0.24219 0.35156,0.11328 0.29297,0.10937 -0.0859,-0.33203"
       id="path30" />
    <path
       style="fill:none;stroke:#ff0000;stroke-width:0.85;stroke-linecap:round;stroke-linejoin:round;stroke-miterlimit:10;stroke-opacity:1"
       d="m 286.99609,105.22266 0.32422,-0.0469 0.23438,-0.24219 0.11718,-0.35156 0.17579,-0.30859 0.26562,-0.30469 0.11719,-0.33203 0.14453,-0.35156 0.0898,-0.33203 0.0859,-0.3711 0.11719,-0.33203 0.0898,-0.32812 0.0274,-0.3086 -0.0859,0.32813 0.0273,0.375 -0.0273,0.30859 v 0.32813 l -0.0312,0.33203 -0.0586,0.32812 0.11719,0.39844 -0.0273,0.30859 0.0273,0.3086 v 0.66015 l -0.0586,0.35157 0.14844,0.30859 -0.0899,0.30859 v 0.30469 l -0.20312,0.24219 -0.32422,0.0664 -0.35156,0.0234 -0.32422,0.043 0.29297,0.0898 0.35546,-0.0234 h 0.37891 l 0.32422,0.043 h 0.35156 l 0.38281,0.0664 0.32032,0.0234 0.38281,0.0234 -0.0312,-0.33203"
       id="path32" />
    <path
       style="fill:#ff0000;fill-opacity:0.501961;fill-rule:nonzero;stroke:#ff0000;stroke-width:0.85;stroke-linecap:round;stroke-linejoin:round;stroke-miterlimit:10;stroke-opacity:1"
       d="m 283.26953,72.167969 -0.26562,-0.179688 -0.32032,-0.0625 -0.29297,-0.132812 -0.32421,0.01953 -0.29297,-0.152344 -0.35157,-0.04297 h -0.64453 l -0.32422,0.01953 -0.35156,0.06641 -0.32422,0.04297 -0.35156,0.02344 -0.29297,0.15625 -0.29297,0.08594 -0.32422,0.06641 -0.26171,0.175781 -0.32422,0.06641 -0.26563,0.152344 -0.23437,0.199219 -0.23438,0.21875 -0.26172,0.179687 -0.26562,0.175782 -0.17578,0.285156 -0.0312,0.328125 0.0312,0.308594 0.0859,0.308593 0.11719,0.332032 0.14844,0.304687 0.23437,0.265625 0.20704,0.21875 0.26171,0.222656 0.26563,0.21875 0.35156,0.132813 0.29297,0.132813 0.32422,0.08594 0.29297,0.109375 0.32422,0.08984 0.29297,0.109375 0.32031,0.06641 0.29297,0.06641 0.29687,0.06641 0.29297,0.109374 0.29297,0.06641 0.32031,0.109375 0.32422,0.06641 0.38281,0.04297 0.70313,0.132812 0.35156,0.04297 h 0.64453 l 0.35547,-0.01953 h 0.35156 l 0.32032,0.01953 h 0.35156 l 0.29687,-0.08594 h 0.32032 l 0.32421,-0.06641 0.29297,-0.06641 0.26563,-0.152344 0.32031,-0.132812 0.20703,-0.222656 0.29297,-0.175782 0.20313,-0.242187 0.20703,-0.261719 v -0.308594 l 0.26562,-0.175781 -0.11719,-0.617187 -0.0898,-0.308594 -0.11719,-0.285156 -0.17578,-0.265626 -0.14844,-0.261718 -0.23437,-0.199219 -0.23438,-0.265625 -0.26171,-0.195312 -0.29688,-0.175782 -0.35156,-0.04687 -0.35156,-0.152343 -0.32032,-0.08984 -0.29687,-0.08594 -0.35156,-0.109375 -0.35157,-0.06641 -0.32031,-0.199219 -0.32422,-0.06641 -0.26562,-0.175781 -0.29297,-0.06641 -0.32031,-0.08594 -0.35547,-0.04687 -0.29297,-0.08594 -0.29297,0.06641 -0.32422,0.01953 h -0.37891 l -0.32421,-0.04297"
       id="path34" />
    <path
       style="fill:none;stroke:#ff0000;stroke-width:0.85;stroke-linecap:round;stroke-linejoin:round;stroke-miterlimit:10;stroke-opacity:1"
       d="m 283.79687,66.554688 0.23438,-0.21875 0.20703,0.261718 0.23438,0.242188 0.20703,0.265625 0.0859,0.328125 0.14844,0.285156 0.11719,0.332031 0.0273,0.351563 0.17578,0.265625 -0.0586,0.308593 0.0586,0.304688 0.17579,-0.285156 0.14843,-0.261719 0.11719,-0.308594 0.17578,-0.308593 0.0899,-0.308594 0.23437,-0.285156 0.26172,-0.242188 0.17578,-0.332031 0.17969,-0.261719 0.35156,-0.199219 0.17578,-0.265625 0.26172,-0.152344"
       id="path36" />
    <path
       style="fill:none;stroke:#2ec27d;stroke-width:0.85;stroke-linecap:round;stroke-linejoin:round;stroke-miterlimit:10;stroke-opacity:1"
       d="m 226.13672,122.85156 -0.14453,-0.26562 0.14453,-0.26563 0.20703,-0.24218 0.29297,-0.10938 h 0.32422 l 0.32031,0.0234 0.26562,0.19922 0.17579,0.26172 0.14843,0.30859 0.0273,0.30859 -0.0586,0.3086 -0.0273,0.32812 -0.0625,0.3086 0.0312,0.30859 -0.11719,0.61719 0.0273,0.30859 0.0312,0.30859 v 0.30469 l 0.11718,0.28906 0.11719,0.30469 0.17578,0.26563 0.26563,0.19922 0.29297,0.0664 0.32421,0.0195 0.32032,-0.0195 0.32422,-0.0664 0.29296,-0.13282 0.20313,-0.21875 0.20703,-0.26562 0.14844,-0.3086 0.0859,-0.32812 0.0898,-0.30859 0.0859,-0.33204 -0.0586,-0.30859 0.0312,-0.35156 0.0586,-0.32813 0.0586,-0.30859 -0.0586,-0.30859 v 0.66015 l -0.0312,0.3086 v 0.30859 l -0.0273,0.32812 0.0586,0.3086 v 0.30859 l 0.0859,0.35156 v 0.33204 l 0.14844,0.30859 0.0273,0.30469 0.26562,0.15625 0.32422,0.043 h 0.32031 l 0.32422,-0.0664 0.26172,-0.17578"
       id="path38" />
    <path
       style="fill:none;stroke:#2ec27d;stroke-width:0.85;stroke-linecap:round;stroke-linejoin:round;stroke-miterlimit:10;stroke-opacity:1"
       d="m 240.60547,123.24609 -0.11719,-0.28515 -0.26562,-0.15625 -0.35157,-0.0859 -0.32422,-0.0234 -0.29296,0.0664 -0.29297,0.0898 -0.26563,0.17578 -0.26172,0.19532 -0.26562,0.22265 -0.23438,0.21875 -0.17578,0.26563 -0.14453,0.28515 v 0.3086 l -0.0625,0.30859 0.0898,0.32813 0.0312,0.30859 0.20313,0.26563 0.14844,0.26171 0.23437,0.26563 0.23438,0.19531 0.29297,0.19922 0.29296,0.0898 0.35157,0.0195 h 0.64843 l 0.32032,-0.0195 h 0.32422 l 0.35156,-0.0234 0.32422,-0.0234 h 0.32031 l 0.32422,-0.0195"
       id="path40" />
    <path
       style="fill:none;stroke:#ff0000;stroke-width:0.85;stroke-linecap:round;stroke-linejoin:round;stroke-miterlimit:10;stroke-opacity:1"
       d="m 227.39844,137.46094 0.32422,-0.0195 0.23437,0.19921 0.17578,0.26172 0.20703,0.26563 0.14453,0.28515 0.14844,0.33204 0.11719,0.30468 0.11719,0.28907 0.0859,0.32812 0.17969,0.28516 0.0859,0.30859 0.0898,0.30859 0.0859,0.3086 0.14844,0.26562 -0.0898,-0.30859 0.14844,-0.26563 0.0586,-0.30859 0.11718,-0.30859 0.0586,-0.30469 0.17578,-0.26563 0.0859,-0.30859 0.26562,-0.24219 0.0586,-0.30859 0.23438,-0.21875 0.20703,-0.26563 0.26172,-0.17578 0.32422,-0.15234 0.32422,-0.0469"
       id="path42" />
    <path
       style="fill:none;stroke:#ff0000;stroke-width:0.85;stroke-linecap:round;stroke-linejoin:round;stroke-miterlimit:10;stroke-opacity:1"
       d="m 241.71875,137.28516 -0.20313,-0.21875 -0.29687,-0.0664 -0.29297,-0.0859 -0.35156,-0.0234 -0.35156,0.043 h -0.32422 l -0.26172,0.15625 -0.29297,0.13282 -0.26563,0.15234 -0.26562,0.21875 -0.23438,0.26562 -0.26171,0.19922 -0.20704,0.28516 -0.11718,0.30859 -0.23438,0.26172 -0.0859,0.3086 -0.12109,0.30859 0.0312,0.33203 -0.0586,0.30469 0.0586,0.33203 0.14844,0.26562 0.23437,0.19532 0.29297,0.13281 0.32031,0.10937 0.29688,0.0898 h 0.35156 l 0.35156,0.043 0.32032,0.0234 0.32422,0.043 H 241.25 l 0.32422,-0.0234 0.32031,-0.0195 -0.20312,-0.22265"
       id="path44" />
    <path
       style="fill:none;stroke:#ff0000;stroke-width:0.85;stroke-linecap:round;stroke-linejoin:round;stroke-miterlimit:10;stroke-opacity:1"
       d="m 243.21484,134.91016 -4.40234,9.15625"
       id="path46" />
    <path
       style="fill:none;stroke:#1970d7;stroke-width:0.85;stroke-linecap:round;stroke-linejoin:round;stroke-miterlimit:10;stroke-opacity:1"
       d="m 246.70703,127.75781 -0.0273,-0.30859 -0.14844,-0.26563 -0.14453,-0.32812 v -0.63672 l -0.0586,-0.30859 -0.0312,-0.3086 0.0312,-0.30859 -0.0312,-0.375 0.0898,-0.39453 0.11719,-0.33203 0.0586,-0.3086 v -0.30859 l 0.17578,-0.37109 0.23438,-0.3086 0.0273,-0.39844 0.0312,-0.30468 0.14453,-0.35547 0.17578,-0.32813 0.14844,-0.28515 0.17578,-0.28907 0.17578,-0.35156 0.17578,-0.28515 0.26563,-0.26563 0.20312,-0.24219 0.23828,-0.21875 0.26172,-0.15234 0.32422,-0.13281 0.32031,-0.0234 0.29688,0.0898 0.23437,0.19532 0.35157,0.13281 0.23437,0.22265 0.20313,0.21875 0.17968,0.28516 0.20313,0.28516 0.17578,0.26562 0.0586,0.3086 0.14844,0.32812 0.0859,0.375 0.11719,0.28516 0.11718,0.39843 0.0586,0.35157 -0.0273,0.39453 0.11719,0.30859 v 0.3086 l 0.0273,0.30859 -0.0273,0.30859 0.0859,0.3086 -0.0273,0.32812 0.0586,0.33203 -0.0312,0.3086 v 0.30859 l -0.14453,0.26172"
       id="path48" />
    <path
       style="fill:none;stroke:#1970d7;stroke-width:0.85;stroke-linecap:round;stroke-linejoin:round;stroke-miterlimit:10;stroke-opacity:1"
       d="m 247.23437,125.02734 5.13672,-0.72656"
       id="path50" />
    <path
       style="fill:none;stroke:#1970d7;stroke-width:0.85;stroke-linecap:round;stroke-linejoin:round;stroke-miterlimit:10;stroke-opacity:1"
       d="m 250.43359,141.6875 -0.26172,-0.21875 -0.0898,-0.30859 -0.11719,-0.3086 -0.0898,-0.35156 -0.0586,-0.30859 -0.0586,-0.35157 -0.0273,-0.375 v -0.32812 l -0.0586,-0.35156 0.0273,-0.375 0.11719,-0.35157 0.0898,-0.30859 -0.0898,-0.33203 v -0.39453 l 0.20703,-0.28516 0.14843,-0.33203 v -0.30859 l 0.0859,-0.39454 0.17578,-0.35156 0.0898,-0.375 0.17578,-0.33203 0.14453,-0.30859 0.17578,-0.28516 0.14844,-0.26172 0.23437,-0.24219 0.26563,-0.22265 0.23437,-0.19531 0.35157,-0.11329 0.29296,-0.10937 0.38282,-0.0859 0.32031,-0.0234 h 0.35547 l 0.32031,0.0664 0.29297,0.10938 0.26562,0.21875 0.26172,0.24218 0.17969,0.28907 0.26172,0.26171 0.11719,0.375 0.0898,0.35157 0.20313,0.28515 0.11718,0.28907 0.0312,0.39453 0.0273,0.33203 0.17578,0.35156 0.12109,0.375 v 0.72266 l 0.0859,0.375 v 0.375 l 0.0898,0.375 v 0.72656 l 0.0586,0.30859 v 0.70313 l 0.0586,0.30859 -0.0586,0.375 v 0.30469 l -0.26563,-0.15234"
       id="path52" />
    <path
       style="fill:none;stroke:#1970d7;stroke-width:0.85;stroke-linecap:round;stroke-linejoin:round;stroke-miterlimit:10;stroke-opacity:1"
       d="m 250.69922,139.28906 5.1914,-0.57031"
       id="path54" />
    <path
       style="fill:#ff7f00;fill-opacity:0.501961;fill-rule:nonzero;stroke:#ff7f00;stroke-width:0.85;stroke-linecap:round;stroke-linejoin:round;stroke-miterlimit:10;stroke-dasharray:0.5, 3;stroke-opacity:1"
       d="m 283.09375,70.558594 0.0586,0.308594 0.0312,0.308593 v 0.328125 l -0.0586,0.332032 -0.0312,0.332031 v 0.660156 l -0.0586,0.304687 0.0312,0.332032 0.0273,0.308594 -0.0586,0.328124 v 0.308594 l -0.0312,0.332032 -0.0586,0.328124 -0.0586,0.332032 0.0312,0.308594 -0.0899,0.328124 0.0586,0.308594 v 0.617188 l -0.0586,0.308594 0.0312,0.304687 -0.0312,0.355469 v 1.230468 l -0.0273,0.308594 0.0859,0.328125 0.0312,0.308594 v 0.332031 l 0.0586,0.308594 0.0274,0.308594 0.0312,0.308594 0.0312,0.304687 v 0.308594 l -0.0625,0.308593 -0.0586,0.308594 -0.0273,0.308594 0.0859,0.308594 v 0.328125 l -0.0274,0.332031 0.0274,0.308594 v 0.308594 l -0.0274,0.328124 v 0.308594 l -0.0312,0.308594 v 0.308594 l 0.0586,0.308594 0.0898,0.304687 0.0312,0.308594 0.0586,0.308593 0.0859,0.308594 0.14844,0.265625 0.11719,0.308594 0.14453,0.261719 0.11718,0.285156 0.11719,0.289062 0.20703,0.242188 0.11719,0.285156 0.26563,0.175782 0.17578,0.265624 0.20312,0.21875 0.23438,0.199219 0.23437,0.195313 0.29688,0.06641 h 0.32031 l 0.29297,-0.06641 h 0.35156 l 0.35547,-0.132813 0.23437,-0.195312 0.20313,-0.242188 0.23437,-0.265625 0.11719,-0.285156 0.20703,-0.21875 0.14844,-0.265625 0.11719,-0.285156 0.11719,-0.308594 0.0859,-0.308594 0.0312,-0.308593 0.0274,-0.308594 0.0586,-0.308594 v -0.921875 l -0.0586,-0.308594 v -0.308593 l -0.0274,-0.308594 -0.0312,-0.308594 v -0.617188 l 0.0312,-0.304687 V 82.53125 l 0.20313,-0.242188 -0.11719,-0.285156 0.0898,-0.308594 0.0586,-0.308593 0.11719,-0.285157 0.0273,-0.308593 0.0312,-0.308594 v -0.308594 l 0.11719,-0.285156 -0.0899,-0.308594 0.0586,-0.308593 v -0.308594 l 0.0586,-0.328125 -0.14453,-0.285157 0.14453,-0.265624 0.0586,-0.308594 -0.0273,-0.328125 v -0.308594 l 0.0273,-0.308594 0.1211,-0.285156 -0.0625,-0.308594 0.0312,-0.308593 -0.0312,-0.308594 -0.11719,-0.285156 -0.0273,-0.308594 -0.0586,-0.308594 -0.20703,-0.21875 0.0312,-0.332031 -0.14844,-0.261719 -0.11718,-0.289062 -0.14453,-0.285157 -0.20704,-0.21875 -0.20703,-0.222656 -0.14453,-0.261719 -0.26562,-0.199218 -0.23438,-0.199219 -0.23437,-0.21875 -0.26172,-0.175781 -0.26563,-0.199219 -0.20703,-0.261719 -0.23437,-0.199219 -0.20313,-0.21875 -0.23437,-0.222656 -0.26563,-0.152344 -0.20703,-0.21875 -0.32031,-0.04687 -0.32422,-0.06641 -0.32422,0.02344 -0.32031,-0.02344 -0.29297,0.113281 -0.32422,0.128907 v 0.792968 l -0.0859,0.441406"
       id="path56" />
  </g>
</svg>
