<?xml version="1.0" encoding="UTF-8" standalone="no"?>
<svg
   width="285.14297pt"
   height="101.06484pt"
   viewBox="0 0 285.14298 101.06484"
   version="1.2"
   id="svg159"
   sodipodi:docname="puntoMinimoMassimoLocale.svg"
   inkscape:version="1.1.2 (0a00cf5339, 2022-02-04, custom)"
   xmlns:inkscape="http://www.inkscape.org/namespaces/inkscape"
   xmlns:sodipodi="http://sodipodi.sourceforge.net/DTD/sodipodi-0.dtd"
   xmlns="http://www.w3.org/2000/svg"
   xmlns:svg="http://www.w3.org/2000/svg">
  <defs
     id="defs163" />
  <sodipodi:namedview
     id="namedview161"
     pagecolor="#505050"
     bordercolor="#ffffff"
     borderopacity="1"
     inkscape:pageshadow="0"
     inkscape:pageopacity="0"
     inkscape:pagecheckerboard="1"
     inkscape:document-units="pt"
     showgrid="false"
     fit-margin-top="0"
     fit-margin-left="0"
     fit-margin-right="0"
     fit-margin-bottom="0"
     inkscape:zoom="0.56123737"
     inkscape:cx="132.74241"
     inkscape:cy="538.09674"
     inkscape:window-width="2560"
     inkscape:window-height="1389"
     inkscape:window-x="0"
     inkscape:window-y="28"
     inkscape:window-maximized="1"
     inkscape:current-layer="svg159" />
  <g
     id="surface93684"
     transform="translate(-157.15312,-16.797657)">
    <path
       style="fill:#ffff00;fill-opacity:0.501961;fill-rule:nonzero;stroke:#ffff00;stroke-width:0.85;stroke-linecap:round;stroke-linejoin:round;stroke-miterlimit:10;stroke-opacity:1"
       d="m 348.94141,71.441406 -0.26563,-0.15625 -0.23437,-0.199218 -0.29297,-0.152344 -0.32422,-0.02344 -0.29297,-0.08594 -0.29297,-0.06641 -0.32031,-0.04297 -0.35547,-0.02344 -0.35156,-0.04297 -0.32032,-0.04297 -0.32421,-0.04687 h -0.32422 l -0.32032,-0.01953 h -0.38281 l -0.32422,0.01953 h -0.32031 l -0.32422,-0.01953 -0.35156,0.01953 -0.35156,0.02344 -0.35157,-0.02344 h -0.35156 l -0.35547,0.02344 -0.3789,-0.02344 h -0.73438 l -0.35156,0.02344 -0.38281,-0.02344 -0.35157,0.04687 -0.32421,-0.02344 -0.32032,0.02344 h -0.32422 l -0.32031,-0.02344 -0.64844,0.08594 -0.35156,-0.01953 h -0.35156 l -0.32422,0.01953 -0.35156,0.02344 -0.41016,0.02344 -0.35156,-0.02344 -0.35156,0.08984 -0.38282,0.01953 -0.38281,0.04297 -0.41015,0.02344 -0.37891,0.06641 -0.35547,0.06641 -0.35156,0.02344 -0.35156,0.01953 -0.35157,0.06641 -0.35156,0.08984 -0.35156,0.01953 -0.35156,0.04687 -0.38282,0.04297 -0.35156,0.06641 -0.32422,0.06641 -0.3789,0.04297 -0.35547,0.06641 -0.32032,0.06641 -0.32421,0.06641 -0.38282,0.0625 -0.32031,0.132812 -0.35156,0.06641 -0.26563,0.175782 -0.29297,0.132812 -0.38281,0.152344 -0.29297,0.199219 -0.26172,0.175781 -0.26562,0.222656 -0.26563,0.195313 -0.26171,0.175781 -0.26563,0.242188 -0.20312,0.289062 -0.26563,0.242188 -0.0898,0.304687 -0.17578,0.289063 -0.11719,0.285156 0.0312,0.308594 -0.0899,0.328124 0.11719,0.308594 0.0899,0.308594 0.14453,0.351562 0.0898,0.332032 0.17578,0.328125 0.14844,0.285156 0.20312,0.242187 0.14844,0.308594 0.20313,0.222656 0.26562,0.175782 0.32422,0.21875 0.17578,0.285156 0.26172,0.289062 0.35156,0.175782 0.29297,0.175781 0.29688,0.21875 0.26172,0.152344 0.32421,0.199219 0.35157,0.132812 0.32422,0.132812 0.35156,0.109376 0.3789,0.132812 0.35547,0.152344 0.41016,0.109375 0.32031,0.113281 0.32422,0.08594 0.29297,0.08984 0.32422,0.08594 0.35156,0.08984 0.35156,0.08594 0.41016,0.08984 0.32422,0.06641 0.41015,0.04297 0.70313,0.21875 0.29297,0.06641 0.32422,0.06641 0.35156,0.06641 0.32422,0.06641 0.3789,0.06641 0.38282,0.08594 0.35156,0.08984 0.38281,0.06641 h 0.35156 l 0.38282,0.04297 0.70312,0.132813 0.82031,0.08594 0.35157,0.02344 0.38281,0.04297 h 0.44141 l 0.3789,0.04688 0.32422,0.01953 0.38281,0.06641 h 0.32032 l 0.35546,0.04297 0.41016,0.02344 0.32031,0.06641 0.35157,-0.02344 0.32421,0.02344 h 0.35157 l 0.38281,0.04297 0.41016,-0.02344 0.35156,-0.0625 0.38281,0.01953 0.41016,-0.01953 0.38281,-0.04687 0.35156,-0.01953 0.32031,-0.02344 h 1.46875 l 0.38282,-0.04297 h 0.79297 l 0.32031,-0.02344 0.32422,-0.04297 h 0.3789 l 0.32422,-0.02344 0.35156,-0.01953 0.35157,-0.02344 0.41406,0.02344 h 0.37891 l 0.35156,-0.02344 0.4414,0.02344 0.32422,-0.04687 h 0.37891 l 0.38281,-0.01953 h 1.46875 l 0.32031,0.01953 h 0.41016 l 0.32422,-0.01953 h 0.35156 l 0.32422,-0.02344 0.32031,-0.02344 0.35547,-0.01953 0.32031,-0.04297 0.32422,-0.04687 0.37891,-0.04297 0.38281,-0.04297 0.35156,-0.04688 0.32422,-0.04297 0.35157,-0.01953 0.32421,-0.06641 0.37891,-0.06641 0.35156,-0.06641 0.32422,-0.02344 0.38281,-0.08594 0.29297,-0.06641 0.32032,-0.06641 0.35546,-0.08984 0.32032,-0.04297 0.29297,-0.132813 0.32421,-0.08594 0.32422,-0.02344 0.32032,-0.199218 0.29296,-0.109376 0.29688,-0.109374 0.29297,-0.199219 0.26172,-0.195313 0.26562,-0.199218 0.14453,-0.265626 0.26563,-0.195312 0.0312,-0.332031 0.17578,-0.285157 -0.0312,-0.332031 0.0312,-0.328125 -0.0312,-0.351562 -0.0586,-0.308594 -0.0859,-0.308594 -0.14844,-0.265625 -0.0312,-0.328125 -0.23437,-0.21875 -0.20313,-0.289062 -0.0898,-0.308594 -0.26172,-0.242188 -0.26563,-0.21875 -0.23437,-0.199218 -0.26563,-0.242188 -0.26172,-0.152344 -0.20703,-0.21875 -0.26172,-0.15625 -0.35546,-0.132812 -0.23438,-0.21875 -0.29297,-0.06641 -0.29297,-0.132813 -0.35156,-0.128906 -0.29297,-0.132813 -0.26562,-0.15625 L 361.79297,73.96875 361.5,73.816406 361.20703,73.75 l -0.29297,-0.08594 -0.38281,-0.132812 -0.32422,-0.109375 -0.35156,-0.132813 -0.29297,-0.109374 -0.32031,-0.04688 -0.29688,-0.08594 -0.29297,-0.109375 -0.35156,-0.06641 -0.29297,-0.109375 -0.32422,-0.04687 -0.29297,-0.109375 -0.35156,-0.06641 -0.29297,-0.06641 -0.29297,-0.08594 -0.29296,-0.06641 -0.29297,-0.08984 -0.32422,-0.01953 -0.32422,-0.06641 -0.32031,-0.06641 -0.29297,-0.06641 -0.32422,-0.02344 -0.29297,-0.08594 -0.58594,-0.132813 -0.32422,-0.04297 -0.35156,-0.02344 -0.35156,-0.01953 -0.35156,-0.02344 -0.29688,-0.109375 -0.32031,-0.02344 -0.35156,-0.04297 -0.35157,-0.06641 -0.29687,-0.109375 -0.32031,-0.132813 -0.32422,-0.08984 -0.29297,-0.0625 -0.35156,-0.08984 h -0.32422 l -0.32031,-0.02344 -0.14844,0.265625 -0.26563,0.242188 V 71.8125 L 348,72.230469"
       id="path2" />
    <path
       style="fill:none;stroke:#2ec27d;stroke-width:0.85;stroke-linecap:round;stroke-linejoin:round;stroke-miterlimit:10;stroke-opacity:1"
       d="m 335.94141,80.617188 0.29296,-0.152344 0.14844,-0.308594 0.23438,-0.199219 0.11718,-0.285156 0.26172,-0.175781 0.23828,-0.199219 0.17579,-0.265625 0.26171,-0.152344 0.26563,-0.15625 0.26172,-0.152344 0.29687,-0.132812 0.29297,-0.08594 0.29297,-0.132812 0.35156,-0.109375 0.26563,-0.15625 0.26172,-0.152344 0.29297,-0.132812 0.32421,-0.109375 0.32422,-0.08984 0.35157,-0.04297 0.29296,-0.109375 0.35157,-0.08984 0.29297,-0.08594 0.29296,-0.06641 0.32422,-0.04297 0.32032,-0.02344 h 0.35546 l 0.35157,0.02344 0.32031,0.06641 0.32422,0.04297 0.32422,0.01953 0.32031,0.02344 0.32422,0.02344 0.32422,0.01953 0.35156,0.04688 0.35156,0.109374 0.32031,0.08594 0.35547,0.109375 0.29297,0.06641 0.32031,0.175781 0.29297,0.113282 0.29688,0.06641 0.29297,0.175781 0.29297,0.109375 0.29296,0.152344 0.32422,0.175781 0.29297,0.132813 0.23438,0.21875 0.29297,0.132812 0.23437,0.285156 0.26563,0.222657 0.20312,0.242187 0.23438,0.195313 0.26562,0.242187 0.23438,0.265625 0.32421,0.175781 0.32032,0.242188 0.26562,0.265625 0.26172,0.21875 0.26563,0.21875 0.32421,0.199219 0.20313,0.242187 0.17578,0.265625 0.26563,0.152344 0.29296,0.175781 0.23438,0.332031 0.26562,0.285157 0.26172,0.21875 0.23828,0.242187 0.23438,0.285156 0.26172,0.289063 0.29297,0.261719 0.17578,0.265625 0.20703,0.242187 0.17578,0.308594 0.26563,0.195312 0.17578,0.308594 0.26172,0.289063 0.23437,0.242187 0.20703,0.261719 0.20703,0.265625 0.29297,0.242188 0.20313,0.261718 0.23437,0.308594 0.29688,0.222656 0.26172,0.285156 0.23437,0.285157 0.26563,0.242187 0.23437,0.242188 0.20703,0.265625 0.20313,0.285156 0.26562,0.261719 0.23438,0.289062 0.20312,0.285156 0.29688,0.199219 0.23437,0.21875 0.20313,0.21875 0.20703,0.265625 0.32031,0.199219 0.32422,0.195313 0.0898,0.355468 0.35157,0.238282 0.26171,0.242187 0.29297,0.242187 0.26563,0.242188 0.26562,0.199219 0.23438,0.199219 0.26172,0.242187 0.20703,0.21875 0.29297,0.21875 0.20703,0.222656 0.35156,0.199219 0.26172,0.152344 0.26562,0.199218 0.44141,0.152344 0.29297,0.08984 0.23437,0.242188 0.32422,0.08594 0.20313,0.21875 0.32422,0.15625 0.23437,0.199219 0.29297,0.128906 0.29297,0.113281 0.26562,0.152344 0.29297,0.152344 0.29297,0.08984 0.58594,0.21875 0.29297,0.113282 0.35156,0.128906 0.32422,0.08984 0.32422,0.109375 0.35156,0.08984 0.26172,0.152344 0.35547,0.06641 0.32031,0.152344 0.29297,0.113282 0.29297,0.0625 0.29687,0.06641 0.29297,0.109375 0.29297,0.113281 0.32031,0.128906 0.32422,0.15625 0.32422,0.04297 0.29297,0.15625 0.29297,0.06641 0.26562,0.152344 -0.17968,0.285156"
       id="path4" />
    <path
       style="fill:#ff7f00;fill-opacity:0.501961;fill-rule:nonzero;stroke:#ff7f00;stroke-width:0.85;stroke-linecap:round;stroke-linejoin:round;stroke-miterlimit:10;stroke-opacity:1"
       d="m 269.06641,94.964844 -0.29297,-0.06641 -0.29297,-0.08594 -0.32422,-0.06641 -0.32031,-0.04297 -0.29297,-0.06641 -0.32422,-0.08984 -0.29297,-0.06641 -0.32422,-0.01953 -0.35156,-0.04688 -0.32031,-0.01953 -0.35547,-0.06641 -0.29297,-0.06641 -0.35156,-0.04297 -0.35157,-0.04687 -0.35156,-0.04297 -0.29297,-0.06641 -0.32422,-0.01953 -0.32421,-0.02344 h -0.37891 l -0.32422,-0.02344 -0.32031,-0.01953 -0.32422,-0.02344 -0.41016,-0.06641 -0.35156,-0.01953 -0.35547,-0.04688 -0.3789,-0.04297 -0.35157,0.04297 h -0.67578 l -0.35156,-0.01953 h -0.76563 l -0.32031,-0.02344 h -1 l -0.32031,0.04297 -0.64844,0.04688 -0.41015,0.01953 h -0.32032 l -0.29297,0.06641 -0.35546,0.04297 -0.37891,0.04687 -0.35156,0.152343 -0.29297,0.08984 -0.35547,0.08594 -0.29297,0.109375 -0.32031,0.132812 -0.32422,0.08984 -0.32422,0.128906 -0.32031,0.15625 -0.29297,0.06641 -0.29688,0.152343 -0.32031,0.132813 -0.35156,0.04297 -0.26563,0.222657 -0.32421,0.128906 -0.29297,0.132813 -0.29297,0.15625 -0.26172,0.152343 -0.32422,0.175781 -0.23437,0.222657 -0.26563,0.152343 -0.23437,0.199219 -0.32032,0.195313 -0.26562,0.15625 -0.20703,0.285156 -0.32032,0.175781 -0.23437,0.242188 -0.20703,0.242187 -0.17578,0.265625 -0.17578,0.261719 -0.14844,0.308594 -0.14453,0.265625 -0.11719,0.328125 0.11719,0.308594 0.0273,0.308588 0.14844,0.28516 0.20312,0.26562 0.20703,0.26563 0.20704,0.24219 0.29296,0.15234 0.26172,0.28516 0.32422,0.10937 0.23438,0.19922 0.35156,0.17578 0.35156,0.15625 0.32422,0.12891 0.32422,0.15625 0.29297,0.0859 0.32031,0.0664 0.29297,0.10938 0.32422,0.11328 0.35156,0.0859 0.38281,0.0898 0.32422,0.0859 0.37891,0.0664 0.32422,0.0664 0.3789,0.043 0.32422,0.0234 0.32422,0.043 0.32031,0.043 0.38282,0.0234 h 0.32421 l 0.32032,0.0234 h 0.73437 l 0.35156,0.0195 0.35157,-0.0195 0.35547,-0.0234 h 0.32031 l 0.38281,0.0234 0.32031,-0.0234 h 0.70703 l 0.37891,0.0234 0.35547,-0.0469 h 0.32031 l 0.35156,0.0234 0.44141,-0.0234 0.35156,-0.0195 0.38282,-0.0234 0.4375,-0.0195 0.35546,-0.0469 0.35157,-0.0195 h 0.35156 l 0.32422,-0.0234 h 0.3789 l 0.35157,-0.043 0.32422,0.0195 0.35156,0.0469 h 0.38281 l 0.32031,0.0859 0.35547,0.043 h 0.37891 l 0.35156,0.11328 0.35156,0.0195 0.35547,0.0234 0.32031,0.043 0.35157,0.0234 0.35547,0.0195 0.3789,0.0469 0.35156,0.0664 h 0.70704 l 0.32031,0.0625 h 0.38281 l 0.35156,0.0234 0.44141,0.043 0.32031,0.0234 0.41406,0.0234 0.29297,0.0664 0.41016,0.0625 h 0.41016 l 0.32421,0.0664 0.41016,0.0664 h 0.32031 l 0.38282,-0.0195 0.35156,0.0664 0.32422,0.0195 0.32031,0.0234 0.38281,-0.0234 0.35156,0.0664 0.35157,0.0234 h 0.67578 l 0.38281,0.0195 0.44141,-0.0195 0.3789,0.0195 h 0.32422 l 0.32031,0.0234 H 278.75 l 0.35156,0.0234 0.35547,0.043 h 0.32031 l 0.38282,0.0664 0.35156,0.0195 0.35156,-0.0195 0.38281,0.0195 h 0.35157 l 0.32421,-0.0195 0.32032,-0.0234 0.38281,-0.043 0.35156,-0.0234 0.35156,-0.043 0.35157,-0.0234 0.32422,-0.043 0.38281,-0.0859 0.35156,-0.0234 0.35156,-0.0664 0.32032,-0.13281 0.35546,-0.043 0.29297,-0.0898 0.32032,-0.0859 0.32421,-0.043 0.29297,-0.0664 0.29297,-0.0898 0.35156,-0.13281 0.29297,-0.0664 0.35547,-0.0859 0.29297,-0.13281 0.29297,-0.0664 0.29297,-0.15235 0.29297,-0.0898 0.29297,-0.10938 0.29296,-0.13281 0.32422,-0.17578 0.26563,-0.17578 0.32031,-0.17578 0.35156,-0.13282 0.20703,-0.24218 0.35157,-0.15235 0.20703,-0.28515 0.26172,-0.17578 0.29297,-0.19922 0.17578,-0.28516 0.20703,-0.28906 0.11719,-0.3086 0.17578,-0.30468 -0.0274,-0.355468 0.0586,-0.304688 -0.0586,-0.308594 -0.11718,-0.289062 -0.0586,-0.304688 -0.14844,-0.308594 -0.14843,-0.265624 -0.17578,-0.328126 -0.14454,-0.289062 -0.23437,-0.195312 -0.26563,-0.222657 -0.20312,-0.261719 -0.29688,-0.199218 -0.23437,-0.21875 -0.26172,-0.15625 -0.26562,-0.242188 -0.26172,-0.152344 -0.23828,-0.199218 -0.35157,-0.175782 -0.29297,-0.109374 -0.26171,-0.175782 -0.32422,-0.109375 -0.29297,-0.15625 -0.32422,-0.152343 -0.29297,-0.06641 -0.32422,-0.15625 -0.3789,-0.06641 -0.29297,-0.0625 -0.32422,-0.04687 -0.32422,-0.06641 -0.32031,-0.08594 -0.32422,-0.04297 -0.35156,-0.02344 -0.70313,-0.132812 h -0.35156 l -0.35547,-0.01953 h -0.35156 l -0.35157,-0.02344 -0.38281,0.02344 -0.32031,-0.02344 -0.32422,0.04297 -0.37891,0.04297 -0.35546,0.04687 -0.32032,0.04297 -0.35156,0.02344 -0.38281,0.04297 -0.38281,0.08594 -0.32032,0.02344 -0.32422,0.06641 -0.29296,0.06641 -0.35157,0.06641 -0.29297,0.08594 -0.32421,0.02344 -0.29297,0.08594 -0.35157,0.02344 -0.29296,0.109375 -0.35157,0.04687 -0.29687,0.08594 -0.35156,0.02344 -0.29297,0.06641 -0.38282,0.0625 -0.29296,0.06641 -0.32032,0.06641 -0.32422,0.02344 -0.32421,0.06641 -0.32032,0.06641 -0.29297,0.06641 h -0.32421 l -0.32422,0.01953 -0.32032,0.04687 -0.32421,-0.02344 h -0.32032 l -0.32422,-0.04297 h -0.96875 l -0.32421,-0.08984 -0.29297,-0.08594 -0.32032,-0.06641 -0.32421,-0.04687 -0.32422,-0.04297 -0.32032,-0.04297 h -0.32421 l 0.0312,0.351562 0.11718,0.394532"
       id="path6" />
    <path
       style="fill:none;stroke:#ffffff;stroke-width:0.85;stroke-linecap:round;stroke-linejoin:round;stroke-miterlimit:10;stroke-opacity:1"
       d="M 184.21094,99.191406 H 354.25"
       id="path8" />
    <path
       style="fill:none;stroke:#2ec27d;stroke-width:0.85;stroke-linecap:round;stroke-linejoin:round;stroke-miterlimit:10;stroke-opacity:1"
       d="M 335.92578,80.410156 335.37891,81 l -0.57813,0.585938 -0.61328,0.578124 -0.64453,0.574219 -0.67578,0.570313 -0.70703,0.5625 -0.73829,0.554687 -0.76953,0.546875 -0.79687,0.542969 -0.83203,0.535156 -0.85547,0.527344 -0.88672,0.519531 -0.91797,0.511719 -0.94531,0.503906 -0.97266,0.492188 -0.99609,0.488281 -1.02735,0.476562 -1.05078,0.46875 -1.07812,0.457032 -1.10547,0.449218 -1.125,0.4375 -1.15234,0.429688 -1.17579,0.417969 -1.19921,0.40625 -1.21875,0.398437 -1.24219,0.386719 -1.26172,0.375 -1.28516,0.363281 -1.30468,0.351563 -1.32032,0.339843 -1.34375,0.328126 -1.35937,0.316406 -1.375,0.304687 -1.39453,0.292969 -1.41016,0.28125 -1.42187,0.265625 -1.4375,0.253906 -1.45313,0.242188 -1.46484,0.230469 -1.48047,0.214843 -1.48828,0.203125 -1.5,0.1875 -1.51172,0.175782 -1.51953,0.164062 -1.52735,0.148438 -1.53515,0.132812 -1.54297,0.121094 -1.55078,0.109375 -1.55469,0.09375 -1.5625,0.07813 -1.5625,0.06641 -1.57031,0.05469 -1.56641,0.03906 -1.57422,0.02344 -1.57031,0.01172 -1.57422,-0.0039 -1.57422,-0.01953 -1.57031,-0.03125 -1.56641,-0.04297 -1.5664,-0.0625 -1.5625,-0.07031 -1.5586,-0.08984 -1.55468,-0.09766 -1.54688,-0.117188 -1.53906,-0.128906 -1.53125,-0.140625 -1.52344,-0.15625 -1.51562,-0.167969 -1.50782,-0.183594 -1.49218,-0.195312 -1.48438,-0.207032 -1.47266,-0.222656 -1.45703,-0.234375 -1.44531,-0.25 -1.43359,-0.261719 -1.41797,-0.273437 -1.39844,-0.285156 -1.38672,-0.296875 -1.36719,-0.3125 -1.35156,-0.320313 -1.33203,-0.335937 -1.3125,-0.347656 -1.29297,-0.355469 -1.27344,-0.371094 -1.2539,-0.378906 -1.23047,-0.390625 -1.21094,-0.402344 -1.1875,-0.414062 -1.16015,-0.425782 -1.14063,-0.433594 -1.11719,-0.441406 -1.08984,-0.453125 -1.0625,-0.464843 -1.03906,-0.472657 -1.01563,-0.480469 -0.98437,-0.492187 -0.95703,-0.496094 -0.92969,-0.507812 -0.90235,-0.515625 -0.875,-0.523438 -0.84375,-0.53125 -0.8125,-0.539062 -0.78515,-0.546875 -0.75391,-0.550781 -0.72265,-0.558594 -0.69141,-0.566406 -0.66016,-0.570313 -0.6289,-0.578125 -0.59375,-0.582031"
       id="path10" />
    <path
       style="fill:none;stroke:#2ec27d;stroke-width:0.85;stroke-linecap:round;stroke-linejoin:round;stroke-miterlimit:10;stroke-opacity:1"
       d="M 268.84375,104.94531 V 96.816406"
       id="path12" />
    <path
       style="fill:none;stroke:#2ec27d;stroke-width:0.85;stroke-linecap:round;stroke-linejoin:round;stroke-miterlimit:10;stroke-opacity:1"
       d="m 265.60547,113.51953 4.37109,-4.62109"
       id="path14" />
    <path
       style="fill:none;stroke:#2ec27d;stroke-width:0.85;stroke-linecap:round;stroke-linejoin:round;stroke-miterlimit:10;stroke-opacity:1"
       d="m 265.60547,109.64453 0.26562,0.21875 0.26172,0.17969 0.32422,0.19531 0.26172,0.26563 0.26562,0.26172 0.26563,0.22265 0.26172,0.21875 0.20703,0.28516 0.29297,0.24219 0.11719,0.28906 0.20703,0.28515 0.20312,0.26172 0.11719,0.28907"
       id="path16" />
    <path
       style="fill:none;stroke:#2ec27d;stroke-width:0.85;stroke-linecap:round;stroke-linejoin:round;stroke-miterlimit:10;stroke-opacity:1"
       d="m 271.5625,113.07813 -0.0586,0.33203 -0.11719,0.32812 0.0586,0.33203 0.0586,0.3711 v 0.35156 l 0.0586,0.35547 0.17578,0.30859 0.14453,0.32813 0.29688,0.24218 0.29297,0.10938 0.29296,-0.0859 0.26172,-0.19922 0.26563,-0.24218 0.17578,-0.35157 0.0586,-0.35156 0.14844,-0.26562 0.0859,-0.32813 v -0.30859 l -0.0859,-0.33203 0.0586,-0.35157 -0.0586,-0.32812 -0.17578,-0.28906 -0.17578,-0.26172 -0.26563,-0.28907 -0.29297,-0.17578 -0.32421,-0.10937 -0.35157,-0.0195 -0.35156,0.0625 -0.23437,0.19922 -0.26563,0.24218"
       id="path18" />
    <path
       style="fill:none;stroke:#ff7f00;stroke-width:0.85;stroke-linecap:round;stroke-linejoin:round;stroke-miterlimit:10;stroke-opacity:1"
       d="m 280.80469,85.964844 -0.29297,-0.152344 -0.26563,-0.15625 -0.14453,-0.261719 V 85.0625 l 0.0859,-0.308594 0.11719,-0.285156 0.20703,-0.265625 0.29297,-0.152344 0.29297,-0.132812 0.32421,-0.06641 0.35157,-0.04297 0.32422,0.02344 0.29296,0.08594 0.26172,0.199219 0.20703,0.261718 0.23438,0.222656 -0.0273,0.328126 0.0586,0.308593 -0.0312,0.332031 -0.0273,0.328126 -0.0312,0.332031 0.0586,0.328125 -0.0273,0.308594 0.11718,0.332031 v 0.328125 l 0.17578,0.265625 0.17579,0.261719 0.23437,0.242187 0.29297,0.175781 0.29297,0.06641 0.32422,-0.175781 0.14453,-0.308593 0.17578,-0.285157 0.0898,-0.332031 0.0586,-0.304688 0.0586,-0.308593 0.0859,-0.332031 0.0898,-0.351563 0.0586,-0.375 0.0273,-0.308594 0.0625,-0.328125 0.0586,-0.308594 -0.12109,-0.308593 0.0312,-0.308594 -0.0312,0.308594 v 0.375 l -0.0273,0.328125 v 0.355468 l -0.0586,0.328126 0.0274,0.351562 0.0312,0.351562 -0.0586,0.355469 -0.11719,0.285157 0.11719,0.308593 v 0.308594 l 0.23438,0.570313 0.26562,0.152343 0.29297,0.06641 0.29297,-0.06641 0.58594,-0.21875"
       id="path20" />
    <path
       style="fill:none;stroke:#2ec27d;stroke-width:0.85;stroke-linecap:round;stroke-linejoin:round;stroke-miterlimit:10;stroke-opacity:1"
       d="m 344.93359,97.714844 v 7.507816"
       id="path22" />
    <path
       style="fill:none;stroke:#2ec27d;stroke-width:0.85;stroke-linecap:round;stroke-linejoin:round;stroke-miterlimit:10;stroke-opacity:1"
       d="m 343.27734,114.83984 0.17578,-0.26562 0.17579,-0.30859 0.17578,-0.35157 0.29297,-0.26172 0.26562,-0.30859 0.29297,-0.30859 0.29297,-0.35157 0.32422,-0.33203 0.29297,-0.35156 0.26562,-0.33203 0.29297,-0.23828 0.23437,-0.26563 0.20313,-0.26562 0.23437,-0.28516"
       id="path24" />
    <path
       style="fill:none;stroke:#2ec27d;stroke-width:0.85;stroke-linecap:round;stroke-linejoin:round;stroke-miterlimit:10;stroke-opacity:1"
       d="m 343.57031,110.52734 3.375,4.3125"
       id="path26" />
    <path
       style="fill:none;stroke:#2ec27d;stroke-width:0.85;stroke-linecap:round;stroke-linejoin:round;stroke-miterlimit:10;stroke-opacity:1"
       d="m 348.91016,115.10156 0.26562,-0.17578 0.17578,-0.28515 0.14844,-0.35157 0.11719,-0.33203 0.0859,-0.37109 0.11719,-0.33203 0.0312,-0.32813 0.0274,-0.30859 v 0.30859 l 0.0312,0.30469 0.0273,0.39844 0.0586,0.30859 0.0586,0.35156 v 0.41797 l -0.0274,0.35156 0.0859,0.3086 0.0586,0.30859 0.0899,0.39453 0.0586,0.33203 0.0859,0.3086 0.14844,0.32812 0.0312,0.3086 -0.32422,0.0898 -0.29297,-0.0664 -0.32422,-0.0664 h -0.32422 l 0.29688,0.0664 h 0.32031 l 0.64844,-0.0469 0.32031,-0.043 0.29297,-0.0664 0.32422,-0.0195 h 0.32422"
       id="path28" />
    <path
       style="fill:none;stroke:#ffff00;stroke-width:0.85;stroke-linecap:round;stroke-linejoin:round;stroke-miterlimit:10;stroke-opacity:1"
       d="m 365.84375,65.058594 -0.0898,-0.308594 0.11718,0.285156 0.0586,0.332032 0.14843,0.351562 0.11719,0.375 0.0859,0.394531 0.11719,0.394531 0.0898,0.308594 0.0586,0.308594 0.14844,0.375 0.0859,0.328125 0.0312,0.355469 0.11719,0.304687 0.0586,0.308594 -0.0898,0.308594 -0.0859,-0.308594 -0.0586,-0.308594 0.0859,-0.328125 0.0586,-0.332031 0.11718,-0.304687 0.11719,-0.289063 0.20703,-0.285156 0.0859,-0.328125 0.17578,-0.265625 0.14844,-0.308594 0.20703,-0.285156 0.17578,-0.265625 0.17578,-0.261719 0.17578,-0.265625 0.23438,-0.199219 -0.26563,0.175781"
       id="path30" />
    <path
       style="fill:none;stroke:#2ec27d;stroke-width:0.85;stroke-linecap:round;stroke-linejoin:round;stroke-miterlimit:10;stroke-opacity:1"
       d="m 344.45312,75.535156 -0.32421,-0.04687 -0.29297,0.132813 -0.17578,0.265625 -0.17579,0.261719 0.0274,0.308593 v 0.308594 l 0.0586,0.308594 0.0899,0.328125 0.14453,0.265625 0.26562,0.175781 0.29297,0.132812 0.35156,0.04297 h 0.32422 l 0.35156,-0.06641 0.29297,-0.08594 0.26563,-0.15625 0.20312,-0.242188 0.23438,-0.242188 0.23437,-0.261718 0.0312,-0.308594 v -0.308594 l -0.11718,-0.285156 -0.23438,-0.199219 -0.26562,-0.21875 -0.29297,-0.15625 -0.32422,0.02344 -0.32031,0.04297 -0.29297,0.109374 -0.26563,0.175782 -0.23437,0.199218 -0.11719,0.285157 v 0.332031 l -0.26563,0.175781 0.23438,0.199219 -0.0586,0.304688 0.0898,0.308593 0.26562,0.175781 0.29297,0.08984 0.32032,-0.02344 0.29296,-0.08594 0.14844,-0.265625 0.20703,-0.21875 0.20313,-0.21875 v -0.308594 l -0.11719,-0.332031 -0.20703,-0.21875 -0.35156,-0.04297 -0.32032,0.128907 -0.14843,0.289062 0.0312,0.304688 0.0859,0.308593 0.26563,0.222657 0.29297,0.08594 0.26562,-0.152344 0.17578,-0.265624 0.0274,-0.308594 0.0312,-0.328125 -0.23438,-0.265625 -0.29687,-0.109375 -0.32031,0.132812"
       id="path32" />
    <path
       style="fill:none;stroke:#2ec27d;stroke-width:0.85;stroke-linecap:round;stroke-linejoin:round;stroke-miterlimit:10;stroke-opacity:1"
       d="m 265.58984,66.253906 0.32422,-0.02344 h 0.32422 l 0.35156,0.04297 h 0.35157 l 0.35156,0.06641 0.35156,0.02344 h 1.08594 l 0.32422,-0.02344 -0.32422,0.04687"
       id="path34" />
    <path
       style="fill:none;stroke:#2ec27d;stroke-width:0.85;stroke-linecap:round;stroke-linejoin:round;stroke-miterlimit:10;stroke-opacity:1"
       d="m 265.12109,69.246094 -0.20312,-0.285156 v -0.308594 l -0.0899,-0.308594 v -0.351562 l 0.0899,-0.351563 -0.0899,-0.375 v -0.394531 l 0.0586,-0.398438 v -0.308594 l 0.0586,-0.328124 0.0586,-0.332032 0.0586,-0.308594 0.0586,-0.328124 0.0586,-0.308594 0.14843,-0.308594 0.20313,-0.285156 0.17578,-0.332032 0.11719,-0.304687 0.53125,-0.398437 0.14453,-0.308594 0.26562,-0.175782 0.20313,-0.21875 0.32422,-0.08984 0.29297,-0.08594 0.29297,0.08594 0.32421,0.132812 0.23438,0.265625 0.0898,0.308594 0.26172,0.285156 0.14844,0.261719 0.0273,0.355469 0.0586,0.371094 0.11718,0.308593 v 0.398438 l 0.0312,0.351562 0.0274,0.375 0.0312,0.394531 -0.0312,0.351563 v 0.332031 l -0.0586,0.351563 v 0.328125 l -0.0586,0.398437 -0.0586,0.351563 0.0312,0.328125 -0.0899,0.351562 -0.0859,0.308594 -0.20704,-0.21875"
       id="path36" />
    <path
       style="fill:none;stroke:#ffffff;stroke-width:0.85;stroke-linecap:round;stroke-linejoin:round;stroke-miterlimit:10;stroke-opacity:1"
       d="m 256.23047,64.117188 -0.29297,0.113281 -0.11719,0.328125 -0.17578,0.285156 0.0859,0.375 -0.0586,0.375 0.0312,0.351562 0.0586,0.375 0.0859,0.328126 0.0898,0.308593 0.14844,0.285157 0.14453,0.265624 0.17578,0.265626 0.20703,0.21875 0.29297,0.242187 0.29297,0.152344 0.32422,0.04687 h 0.35156 l 0.32031,-0.08984 0.29688,-0.175781 0.23437,-0.199219 0.20313,-0.242188 0.20703,-0.261718 0.14453,-0.332032 0.14844,-0.261718 0.11718,-0.308594 0.17579,-0.308594 0.0898,-0.308594 0.14453,-0.308593 0.14844,-0.328125 0.0586,-0.375 0.0859,-0.375 0.11719,-0.351563 0.0586,-0.375 v -0.308593 l 0.0898,-0.308594 V 62.86328 l 0.0274,-0.328125 -0.29297,0.08594"
       id="path38" />
    <path
       style="fill:none;stroke:#ff7f00;stroke-width:0.85;stroke-linecap:round;stroke-linejoin:round;stroke-miterlimit:10;stroke-opacity:1"
       d="m 246.25391,65.835938 -0.17579,-0.265626 v -0.308593 l 0.20704,-0.242188 0.26171,-0.175781 0.32422,-0.04297 0.32032,-0.02344 0.29687,0.06641 0.29297,0.15625 0.14453,0.261719 0.0586,0.308593 v 0.308594 l -0.0859,0.332032 -0.0586,0.304687 -0.0898,0.355469 -0.0859,0.328125 v 0.636719 l 0.0273,0.308593 0.14843,0.308594 0.20313,0.265625 0.29297,0.109375 h 0.35547 l 0.29296,-0.109375 0.23438,-0.265625 0.26172,-0.175781 0.11719,-0.285156 0.14843,-0.265626 0.0859,-0.351562 0.17969,-0.703125 0.0273,-0.351563 V 65.96875 l -0.0273,-0.308594 V 65.328125 L 250.03906,65 l -0.0273,0.328125 -0.14844,0.265625 v 0.328125 l 0.0586,0.351563 -0.0586,0.355468 -0.11719,0.351563 0.0859,0.328125 0.0312,0.332031 0.0312,0.351563 0.0859,0.328124 0.0586,0.355469 0.17578,0.261719 0.14844,0.285156 0.29297,0.179688 0.32031,-0.08984 0.20703,-0.265625 0.23438,-0.21875"
       id="path40" />
    <path
       style="fill:none;stroke:#ffffff;stroke-width:0.85;stroke-linecap:round;stroke-linejoin:round;stroke-miterlimit:10;stroke-opacity:1"
       d="m 237.09766,67.464844 0.35156,-0.04687 0.29687,-0.0625 0.35157,-0.04687 0.29296,-0.06641 0.37891,-0.04297 0.29688,-0.06641 0.32031,-0.01953 0.35156,-0.04687"
       id="path42" />
    <path
       style="fill:none;stroke:#ffffff;stroke-width:0.85;stroke-linecap:round;stroke-linejoin:round;stroke-miterlimit:10;stroke-opacity:1"
       d="m 240.00391,65.109375 -0.14844,-0.265625 -0.26172,-0.175781 -0.29297,-0.109375 -0.32422,-0.02344 -0.35156,0.04687 -0.38281,0.06641 -0.32032,0.152343 -0.32421,0.152344 -0.29297,0.132813 -0.20703,0.285156 -0.20313,0.265625 -0.23437,0.308593 -0.14844,0.308594 -0.14844,0.328125 -0.14453,0.265625 -0.0898,0.351563 -0.0273,0.351562 0.0273,0.332031 0.0312,0.351563 0.14453,0.265625 0.0586,0.304688 0.20703,0.289062 0.23438,0.21875 0.29297,0.242188 0.35156,0.109374 0.29687,0.08984 0.32032,0.04297 h 0.32421 l 0.35157,-0.04297 0.29297,-0.06641 0.35156,-0.08984 0.32422,-0.175781 0.32031,-0.132813 0.26562,-0.242187 0.23438,-0.195313"
       id="path44" />
    <path
       style="fill:none;stroke:#ffffff;stroke-width:0.85;stroke-linecap:round;stroke-linejoin:round;stroke-miterlimit:10;stroke-opacity:1"
       d="m 229.14844,66.914062 0.35156,0.04297 0.29297,0.132813 0.29297,0.152344 0.29297,0.15625 0.26562,0.152343 0.29297,0.222657 0.29297,0.175781 0.32422,0.21875 0.26172,0.265625 0.26562,0.152344 0.26172,0.175781 0.41406,0.484375 -0.12109,-0.308594"
       id="path46" />
    <path
       style="fill:none;stroke:#ffffff;stroke-width:0.85;stroke-linecap:round;stroke-linejoin:round;stroke-miterlimit:10;stroke-opacity:1"
       d="m 230.11328,68.628906 0.20703,-0.242187 0.20703,-0.261719 0.23438,-0.242188 0.26172,-0.222656 0.53125,-0.4375 L 231.81641,67 l 0.26562,-0.152344 0.26172,-0.21875 0.26562,-0.15625 0.26563,-0.175781"
       id="path48" />
    <path
       style="fill:none;stroke:#ffffff;stroke-width:0.85;stroke-linecap:round;stroke-linejoin:round;stroke-miterlimit:10;stroke-opacity:1"
       d="m 224.33594,64.339844 0.32031,-0.04687 0.29297,-0.128907 0.35156,-0.04687 0.32422,-0.04297 0.35156,-0.02344 0.35156,-0.01953 0.38282,-0.02344 0.35156,0.02344 0.32422,0.01953"
       id="path50" />
    <path
       style="fill:none;stroke:#ffffff;stroke-width:0.85;stroke-linecap:round;stroke-linejoin:round;stroke-miterlimit:10;stroke-opacity:1"
       d="m 222.77734,59.828125 0.1211,0.375 0.11718,0.351563 0.17579,0.308593 0.0859,0.351563 0.17578,0.394531 0.0898,0.308594 0.14453,0.441406 0.11719,0.328125 0.0898,0.351562 0.0586,0.398438 0.0586,0.351562 0.0898,0.375 0.23438,0.703126 0.0859,0.375 0.0898,0.371093 0.0586,0.398438 0.0273,0.351562 0.0898,0.332031 v 0.328126 l 0.0273,0.308593 0.14844,0.285157 0.0586,0.417968 0.0859,0.375 0.11719,0.351563 0.0898,0.332031 0.0859,0.328125 0.0625,0.332031 0.11719,0.308594 0.0859,-0.308594 V 69.09375 l 0.0898,-0.355469 0.0586,-0.371093 -0.0586,-0.398438 0.14453,-0.328125 0.17578,-0.332031 0.0586,-0.328125 0.0312,-0.351563 0.0859,-0.355468 0.20703,-0.371094 0.14454,-0.265625 0.0312,-0.394531 0.17578,-0.375 0.14843,-0.394532 0.14454,-0.265625 0.14843,-0.285156 0.11719,-0.417969 0.14453,-0.265625 0.0898,-0.308593 0.11718,-0.308594 0.17578,-0.394532 0.17579,-0.375 0.14843,-0.328124 0.17578,-0.308594 0.17579,-0.375 0.0859,-0.308594 0.11719,-0.328125 0.23438,-0.222656 0.0312,-0.308594"
       id="path52" />
    <path
       style="fill:none;stroke:#ffffff;stroke-width:0.85;stroke-linecap:round;stroke-linejoin:round;stroke-miterlimit:10;stroke-opacity:1"
       d="m 218.34766,59.78125 0.26562,0.199219 0.11719,0.351562 0.14453,0.351563 0.11719,0.332031 0.14843,0.394531 0.17579,0.441406 0.14843,0.417969 0.0273,0.332031 0.0312,0.371094 0.0586,0.355469 0.11719,0.351563 0.11719,0.328124 0.11718,0.332032 0.0273,0.308594 V 65 l -0.0273,0.351562 0.0586,0.328126 0.0859,0.332031 0.0312,0.328125 0.0273,0.332031 V 67 l -0.0273,0.355469 -0.0312,0.371093 0.0312,0.351563 v 0.355469 l -0.0312,0.351562 -0.0273,0.375 -0.0586,0.351563 -0.0312,0.308593 -0.0273,0.417969 -0.0898,0.304688 -0.0273,0.332031 -0.0586,0.328125 -0.23437,0.242187"
       id="path54" />
    <path
       style="fill:none;stroke:#ffffff;stroke-width:0.85;stroke-linecap:round;stroke-linejoin:round;stroke-miterlimit:10;stroke-opacity:1"
       d="m 214.44531,65.066406 0.32422,0.128906 0.23438,0.222657 0.20312,0.285156 0.29688,0.21875 0.26171,0.222656 0.20704,0.308594 0.23437,0.328125 0.20313,0.242188 0.23437,0.308593 0.20703,0.265625 0.17578,0.285156 0.17578,0.308594 0.26563,0.261719 0.11719,0.308594"
       id="path56" />
    <path
       style="fill:none;stroke:#ffffff;stroke-width:0.85;stroke-linecap:round;stroke-linejoin:round;stroke-miterlimit:10;stroke-opacity:1"
       d="m 214.53516,68.804688 0.20312,-0.242188 0.20703,-0.285156 0.20313,-0.261719 0.20703,-0.265625 0.26562,-0.308594 0.23438,-0.375 0.23437,-0.351562 0.20313,-0.21875 0.20703,-0.242188 0.20312,-0.21875 0.14844,-0.332031 0.20703,-0.265625 0.20313,-0.261719 0.20703,-0.332031 0.20312,-0.21875 0.17579,-0.265625"
       id="path58" />
    <path
       style="fill:none;stroke:#ffffff;stroke-width:0.85;stroke-linecap:round;stroke-linejoin:round;stroke-miterlimit:10;stroke-opacity:1"
       d="m 212.36328,61.609375 -0.26562,0.175781 -0.23438,0.265625 -0.20703,0.242188 -0.20313,0.285156 -0.0898,0.328125 -0.0859,0.308594 -0.0586,0.308594 -0.14844,0.332031 -0.0273,0.375 -0.0898,0.417969 -0.0859,0.4375 v 0.660156 l -0.0586,0.308594 -0.0312,0.308593 -0.0273,0.441407 0.0273,0.417968 0.0312,0.417969 0.0273,0.375 0.0312,0.394531 0.11718,0.375 0.0586,0.375 0.0859,0.304688 0.17578,0.265625 v 0.308593 l 0.23437,0.21875 -0.14453,-0.261718"
       id="path60" />
    <path
       style="fill:none;stroke:#ffffff;stroke-width:0.85;stroke-linecap:round;stroke-linejoin:round;stroke-miterlimit:10;stroke-opacity:1"
       d="m 203.08984,68.917969 0.29297,-0.06641 0.29297,-0.113281 0.29297,-0.128906 0.29297,-0.175781 0.23828,-0.222656 0.32031,-0.261719 0.35156,-0.242188 0.23438,-0.289062 0.17578,-0.285157 0.23828,-0.328124 0.29297,-0.375 0.20313,-0.242188 0.11718,-0.417969 0.11719,-0.308593 0.0898,-0.308594 0.14454,-0.394532 0.0586,-0.351562 0.0625,-0.332031 0.0273,-0.328125 -0.0273,-0.308594 -0.17969,-0.75 -0.17578,-0.261719 -0.20312,-0.265625 -0.20704,-0.21875 -0.23437,-0.199218 -0.26563,-0.21875 -0.29296,-0.199219 -0.29297,-0.08984 -0.29297,-0.06641 h -0.32422 l -0.32031,0.08984 -0.20703,0.242188 -0.14454,0.308594 -0.0312,0.375 -0.0859,0.371094 -0.0898,0.351562 0.0586,0.398438 0.0312,0.441406 0.0273,0.304687 0.0586,0.332031 -0.0586,0.308594 0.0586,0.351563 0.17579,0.375 0.0586,0.394531 0.0898,0.398438 0.0586,0.351562 0.0586,0.375 0.0859,0.371094 0.0898,0.375 0.0586,0.375 0.0273,0.375 0.0898,0.371094 0.0898,0.355468 0.0859,0.371094 0.0312,0.351562 V 70.1914 l 0.0273,0.351563 0.0312,0.308593 0.0273,0.308594 0.0312,0.308594 -0.0312,0.441406 0.0312,0.394532 -0.0586,0.441406 -0.14844,0.417968 -0.0859,0.394532 -0.0312,0.351562 -0.0898,0.355469 -0.14453,0.328125 -0.17578,0.285156 -0.11683,0.3086 -0.17578,0.265625 -0.32422,0.152344 -0.32422,0.08984 -0.32031,-0.02344 -0.29297,-0.08594 -0.26563,-0.175782 -0.23437,-0.242187 -0.26563,-0.289063 0.20704,-0.242187 -0.0312,-0.328125 0.14843,-0.285156 0.14844,-0.265626 0.17578,-0.265624 0.14453,-0.261719 0.20703,-0.285157 0.29297,-0.289062 0.20703,-0.21875 0.32032,-0.332031 0.23437,-0.21875 0.26563,-0.261719 0.26172,-0.289062 0.23828,-0.261719 0.26172,-0.289063 0.29296,-0.304687 0.32422,-0.289063 0.35157,-0.285156 0.35156,-0.265625 0.26562,-0.304687 0.20313,-0.289063 0.32422,-0.261719 0.23437,-0.242187 0.23438,-0.308594 0.29297,-0.242187 0.11718,-0.308594 0.26563,-0.175782"
       id="path62" />
    <path
       style="fill:none;stroke:#ffffff;stroke-width:0.85;stroke-linecap:round;stroke-linejoin:round;stroke-miterlimit:10;stroke-opacity:1"
       d="m 192.32031,69.488281 0.29297,-0.08594 0.38281,-0.04687 h 0.70313 l 0.35156,0.04687 0.35156,0.04297 0.29688,0.06641 0.32031,0.06641 0.35156,0.0625 0.32422,0.04687 0.38281,0.04297 0.35157,0.02344 h 0.70312 l 0.32422,-0.02344"
       id="path64" />
    <path
       style="fill:none;stroke:#ffffff;stroke-width:0.85;stroke-linecap:round;stroke-linejoin:round;stroke-miterlimit:10;stroke-opacity:1"
       d="m 197.77734,64.492188 -0.29297,0.15625 -0.32031,0.04297 -0.32422,0.152344 -0.35156,0.08984 -0.29297,0.132812 -0.29297,0.152344 -0.35547,0.08984 -0.32031,0.128906 -0.26562,0.242188 -0.26172,0.15625 -0.20703,0.21875 -0.17578,0.265624 0.17578,0.285157 0.26562,0.199219 0.29297,0.109374 0.29297,0.152344 0.29297,0.15625 0.29297,0.08594 0.32422,0.109375 0.32031,0.113281 0.29297,0.08594 0.32422,0.08984 0.29296,0.08594 -0.17578,-0.261719"
       id="path66" />
    <path
       style="fill:none;stroke:#ffffff;stroke-width:0.85;stroke-linecap:round;stroke-linejoin:round;stroke-miterlimit:10;stroke-opacity:1"
       d="m 182.96094,56.679688 0.26172,0.15625 0.26562,0.261718 0.23438,0.285156 0.11718,0.308594 0.29297,0.222656 0.23438,0.21875 0.17578,0.351563 0.17578,0.265625 0.14844,0.308594 0.20703,0.328125 0.11719,0.332031 0.17578,0.351562 0.20312,0.371094 0.17578,0.398438 0.11719,0.285156 0.11719,0.375 0.14844,0.394531 0.14843,0.351563 0.11719,0.398437 0.0586,0.417969 0.0273,0.394531 0.14844,0.398438 0.14453,0.375 -0.0273,0.371093 V 65 l 0.0859,0.394531 0.14844,0.375 -0.0586,0.351563 -0.0586,0.332031 -0.0312,0.328125 v 0.375 l -0.0273,0.328125 -0.0898,0.351563 -0.0859,0.308593 -0.11719,0.308594 -0.14844,0.308594 -0.0859,0.332031 -0.20703,0.242188 -0.0273,0.304687 -0.26563,0.199219"
       id="path68" />
    <path
       style="fill:none;stroke:#ffffff;stroke-width:0.85;stroke-linecap:round;stroke-linejoin:round;stroke-miterlimit:10;stroke-opacity:1"
       d="m 180.61328,68.675781 -0.0586,0.328125 -0.0586,0.351563 v 0.375 l -0.0312,0.375 v 1.054687 l 0.11719,0.285156 0.0312,0.332032 0.11719,0.285156 0.20312,0.222656 0.20703,0.21875 h 0.32422 l 0.20313,-0.21875 0.20703,-0.265625 0.0273,-0.308593 0.14844,-0.285157 -0.0586,-0.308593 0.0273,-0.332032 -0.0273,-0.328125 -0.0898,-0.308593 -0.11718,-0.285157 -0.0859,-0.332031 -0.20703,-0.261719 -0.17578,-0.289062 -0.20704,-0.242188 h -0.32031 l -0.29297,0.132813 -0.11718,0.289062 -0.23438,0.195313 -0.0898,0.308593"
       id="path70" />
    <path
       style="fill:none;stroke:#ffffff;stroke-width:0.85;stroke-linecap:round;stroke-linejoin:round;stroke-miterlimit:10;stroke-opacity:1"
       d="m 174.33203,66.121094 0.29297,0.109375 0.23437,0.199219 0.23829,0.199218 0.23437,0.195313 0.23438,0.289062 0.20312,0.242188 0.23438,0.21875 0.26562,0.242187 0.17578,0.285156 0.20703,0.308594 0.29297,0.175782 0.20313,0.285156 0.23437,0.199218 0.20703,0.21875 v -0.328124"
       id="path72" />
    <path
       style="fill:none;stroke:#ffffff;stroke-width:0.85;stroke-linecap:round;stroke-linejoin:round;stroke-miterlimit:10;stroke-opacity:1"
       d="m 174.68359,69.027344 0.17578,-0.265625 0.20704,-0.242188 0.23437,-0.21875 0.20703,-0.308593 0.26172,-0.285157 0.20703,-0.242187 0.20313,-0.242188 0.41406,-0.484375 0.23437,-0.285156 0.23438,-0.265625 0.20312,-0.265625 0.23829,-0.21875 0.17578,-0.265625 0.14453,-0.261719 0.0312,-0.332031"
       id="path74" />
    <path
       style="fill:none;stroke:#ffffff;stroke-width:0.85;stroke-linecap:round;stroke-linejoin:round;stroke-miterlimit:10;stroke-opacity:1"
       d="m 170.72266,58.902344 0.23437,-0.199219 -0.17578,0.265625 -0.20313,0.21875 -0.20703,0.265625 -0.14453,0.265625 -0.14844,0.285156 -0.11718,0.285156 -0.0586,0.332032 -0.0898,0.394531 -0.11719,0.308594 -0.0273,0.308593 -0.0312,0.371094 0.0312,0.355469 -0.0312,0.371094 v 0.398437 l 0.0586,0.394532 0.0898,0.375 V 64.25 l 0.0586,0.398438 0.0586,0.371093 0.0586,0.375 0.0859,0.375 0.0625,0.351563 0.0859,0.332031 0.14844,0.328125 0.0859,0.332031 v 0.394531 l 0.11718,0.308594 0.17579,0.261719 0.0586,0.355469 0.0586,0.351562 0.20703,0.261719 v 0.308594 l 0.11719,0.285156 -0.17578,-0.261719"
       id="path76" />
    <path
       style="fill:none;stroke:#ffffff;stroke-width:0.85;stroke-linecap:round;stroke-linejoin:round;stroke-miterlimit:10;stroke-opacity:1"
       d="m 158.72266,67.859375 -0.29297,0.08984 0.35156,-0.06641 0.29297,-0.222656 0.58594,-0.304687 0.20703,-0.222657 0.23437,-0.195312 0.29297,-0.199219 0.26563,-0.265625 0.20312,-0.308594 0.20703,-0.21875 0.46875,-0.703124 0.14844,-0.375 0.17578,-0.394532 0.11719,-0.421875 0.14453,-0.394531 0.11719,-0.394531 V 62.84375 l -0.0859,-0.355469 V 62.136719 L 162.125,61.828125 162.03906,61.5 l -0.23437,-0.285156 -0.11719,-0.289063 -0.11719,-0.328125 -0.26562,-0.265625 -0.26563,-0.242187 -0.26172,-0.152344 -0.29297,-0.132812 -0.29687,-0.08594 -0.35156,0.01953 -0.26172,0.175781 -0.11719,0.308594 -0.17578,0.285156 -0.0312,0.332032 0.0898,0.328125 v 0.398437 l 0.0273,0.417969 0.0586,0.308594 0.11719,0.4375 0.0586,0.332031 0.0898,0.328125 0.0859,0.355469 0.0898,0.328125 0.0859,0.351562 0.14844,0.332031 0.14844,0.351563 0.14453,0.394531 0.0898,0.398438 0.0859,0.417968 0.14844,0.417969 0.11719,0.4375 0.14453,0.464844 0.20703,0.460937 0.0859,0.417969 v 0.859375 l 0.0586,0.460938 0.14844,0.441406 0.0586,0.394531 0.0586,0.375 -0.0273,0.351563 -0.0312,0.375 v 1.011718 l -0.0586,0.351563 -0.0586,0.375 -0.0898,0.375 -0.0586,0.351563 -0.0859,0.328124 -0.11719,0.308594 -0.11719,0.332032 -0.11718,0.285156 -0.26563,0.375 -0.20312,0.21875 -0.17969,0.308594 -0.23438,0.308593 -0.3789,0.199219 -0.35156,0.128906 -0.32422,0.113282 -0.41016,0.01953 -0.38281,-0.01953 -0.26172,-0.199219 -0.23828,-0.21875 -0.0273,-0.332031 v -0.308594 l 0.11719,-0.328125 0.0859,-0.351563 0.0625,-0.308594 0.23437,-0.332031 0.26172,-0.328125 0.17578,-0.351562 0.0898,-0.375 0.20312,-0.265625 0.32422,-0.261719 0.20703,-0.265625 0.26172,-0.285156 0.23438,-0.308594 0.20703,-0.285156 0.20703,-0.289063 0.29297,-0.308594 0.29297,-0.304687 0.26172,-0.308594 0.26562,-0.332031 0.23438,-0.328125 0.20703,-0.308594 0.20312,-0.308593 0.20703,-0.265626 0.23438,-0.351562 0.23437,-0.261719 0.20703,-0.308593 0.23438,-0.242188 0.20312,-0.289062 0.11719,-0.351563 0.20703,-0.285156 0.0859,-0.351563 0.0898,-0.308594 0.0859,-0.328124"
       id="path78" />
    <path
       style="fill:none;stroke:#2ec27d;stroke-width:0.85;stroke-linecap:round;stroke-linejoin:round;stroke-miterlimit:10;stroke-dasharray:0.5, 3;stroke-opacity:1"
       d="M 344.71484,95.296875 V 76.710938"
       id="path80" />
    <path
       style="fill:none;stroke:#ffffff;stroke-width:0.85;stroke-linecap:round;stroke-linejoin:round;stroke-miterlimit:10;stroke-opacity:1"
       d="m 301.22656,54.605469 -0.29297,0.128906 0.32422,-0.175781 0.26563,-0.21875 0.20312,-0.21875 0.20703,-0.265625 0.26172,-0.308594 0.23438,-0.351563 0.14843,-0.265624 0.23438,-0.371094 0.11719,-0.398438 0.11718,-0.285156 0.17579,-0.265625 0.20703,-0.285156 0.0586,-0.375 0.0859,-0.371094 0.0312,-0.332031 0.0273,-0.328125 -0.0273,-0.308594 -0.0586,-0.332031 -0.14843,-0.328125 -0.17578,-0.308594 -0.20313,-0.242187 -0.32422,-0.199219 -0.32422,-0.06641 -0.29297,0.06641 -0.23437,0.199219 -0.20313,0.242187 -0.14843,0.328125 -0.0586,0.351562 -0.0312,0.308594 v 0.351563 l 0.0625,0.398437 v 0.726563 l 0.0859,0.328125 0.11719,0.351562 0.11719,0.355469 0.11718,0.371094 0.0586,0.375 0.0898,0.398437 v 0.417969 l 0.0859,0.460937 0.14844,0.441407 0.0859,0.503906 0.0586,0.464844 0.0312,0.417969 0.0586,0.371093 v 0.683594 l 0.0586,0.328125 v 0.355469 l -0.0312,0.308593 -0.0273,0.304688 -0.0586,0.308594 -0.0586,0.441406 -0.0586,0.308594 -0.11719,0.394531 -0.11719,0.375 -0.14843,0.332031 -0.11719,0.351563 -0.20313,0.285156 -0.26562,0.242187 -0.26563,0.199219 -0.32031,0.152344 -0.32422,0.04297 h -0.35156 l -0.20703,-0.21875 0.0898,-0.332032 0.0859,-0.351562 0.23828,-0.285156 0.17578,-0.351563 0.23438,-0.375 0.11719,-0.285156 0.17578,-0.285156 0.26172,-0.308594 0.20703,-0.332031 0.23437,-0.308594 0.29297,-0.328125 0.23438,-0.375 0.26562,-0.375 0.26563,-0.351563 0.26171,-0.328124 0.26563,-0.308594 0.20312,-0.308594 0.20704,-0.265625 0.17578,-0.261719 0.14843,-0.265625 0.20313,-0.265625 0.20703,-0.261718 0.17578,-0.265626 0.17578,-0.285156 0.17578,-0.265625 0.23438,-0.261719"
       id="path82" />
    <path
       style="fill:none;stroke:#ffffff;stroke-width:0.85;stroke-linecap:round;stroke-linejoin:round;stroke-miterlimit:10;stroke-opacity:1"
       d="m 312.02734,46.042969 -0.26562,0.175781 -0.20313,0.21875 -0.23437,0.289062 -0.14844,0.285157 -0.11719,0.375 -0.17578,0.308593 -0.11719,0.351563 -0.0898,0.371094 -0.0273,0.421875 -0.0586,0.328125 -0.0586,0.332031 -0.0312,0.328125 -0.0273,0.332031 -0.0312,0.304688 V 51.125 l 0.0312,0.355469 0.0586,0.328125 v 0.308594 l 0.0859,0.417968 0.0898,0.394532 0.0586,0.375 0.0274,0.375 0.0898,0.328124 0.14453,0.289063 0.11719,0.285156 v 0.328125 l 0.26563,0.308594 0.11718,0.308594 0.17578,0.265625 0.14844,-0.285157 0.0859,-0.308593"
       id="path84" />
    <path
       style="fill:none;stroke:#ffffff;stroke-width:0.85;stroke-linecap:round;stroke-linejoin:round;stroke-miterlimit:10;stroke-opacity:1"
       d="m 316.72266,55.21875 0.0586,-0.308594 0.20312,-0.285156 0.17579,-0.285156 0.23437,-0.332032 0.26563,-0.285156 0.20703,-0.21875 0.20312,-0.285156 0.26563,-0.199219 0.20312,-0.265625 0.41406,-0.4375 0.20313,-0.265625 0.20703,-0.265625 0.20313,-0.242187 0.17578,-0.285157"
       id="path86" />
    <path
       style="fill:none;stroke:#ffffff;stroke-width:0.85;stroke-linecap:round;stroke-linejoin:round;stroke-miterlimit:10;stroke-opacity:1"
       d="m 316.72266,51.917969 0.32031,0.02344 0.29297,0.152344 0.26562,0.15625 0.29297,0.195312 0.23438,0.199219 0.26562,0.175781 0.26563,0.199219 0.26171,0.242188 0.26563,0.152343 0.29297,0.15625 0.20312,0.242188 0.29688,0.175781 0.20312,0.21875 -0.20312,-0.21875"
       id="path88" />
    <path
       style="fill:none;stroke:#ffffff;stroke-width:0.85;stroke-linecap:round;stroke-linejoin:round;stroke-miterlimit:10;stroke-opacity:1"
       d="m 323.44141,55.394531 0.32421,0.02344 0.17579,-0.285157 0.14453,-0.351562 0.0898,-0.375 0.0586,-0.332031 0.0586,-0.328125 0.0859,-0.308594 0.11718,-0.351562 -0.0273,-0.332032 -0.0312,-0.308594 -0.14453,0.289063 v 0.660156 l -0.0586,0.351563 0.0274,0.328125 0.0586,0.332031 -0.0586,0.351562 -0.0586,0.375 0.0312,0.351563 0.0859,0.351563 v 0.308593 l -0.0273,0.328125 v 0.375 l 0.0273,0.332032 0.0312,0.328124 -0.0312,0.332032 -0.0273,0.328125 -0.23438,0.222656 -0.29297,0.06641 h -0.32421 l -0.32422,-0.02344 0.29297,-0.199219 0.64843,-0.132813 0.35157,-0.0625 0.35156,-0.06641 0.35156,-0.04687 0.32422,-0.04297 0.35156,-0.04297 h 0.35156 l 0.32422,-0.02344"
       id="path90" />
    <path
       style="fill:none;stroke:#ffffff;stroke-width:0.85;stroke-linecap:round;stroke-linejoin:round;stroke-miterlimit:10;stroke-opacity:1"
       d="m 328.75391,46.351562 -0.23438,-0.199218 0.17578,0.265625 0.23438,0.261719 0.11718,0.289062 0.20313,0.304688 0.14844,0.265624 0.14453,0.285157 0.11719,0.289062 0.17968,0.328125 0.11719,0.375 0.14453,0.394532 0.0899,0.417968 0.0859,0.375 0.14844,0.351563 0.11719,0.375 0.0586,0.375 0.0274,0.394531 0.0898,0.375 0.0859,0.351562 v 0.351563 l -0.0859,0.332031 0.0273,0.351563 0.0312,0.308593 V 54.25 l -0.0586,0.355469 -0.0586,0.328125 -0.0312,0.398437 -0.0859,0.394531 -0.11719,0.308594 V 56.34375 L 330.25,56.605469 V 56.9375 l -0.11719,0.285156"
       id="path92" />
    <path
       style="fill:none;stroke:#ffffff;stroke-width:0.85;stroke-linecap:round;stroke-linejoin:round;stroke-miterlimit:10;stroke-opacity:1"
       d="m 337.58594,55 0.0586,-0.308594 0.26172,-0.152344 0.29297,-0.109374 0.35547,-0.15625 0.35156,-0.109376 0.35156,-0.132812 0.32422,-0.152344 0.29297,-0.109375 0.35156,-0.179687 0.32031,-0.109375 0.29688,-0.132813 -0.14844,-0.261718 -0.11719,-0.308594 -0.20703,-0.242188 -0.17578,-0.265625 -0.20312,-0.242187 -0.20703,-0.304688 -0.26172,-0.242187 -0.17969,-0.265625 -0.26172,-0.21875 -0.26562,-0.265625 -0.26172,-0.242188 -0.26563,-0.175781 -0.26562,-0.152344 -0.26172,-0.179687 -0.26563,-0.152344"
       id="path94" />
    <path
       style="fill:none;stroke:#ffffff;stroke-width:0.85;stroke-linecap:round;stroke-linejoin:round;stroke-miterlimit:10;stroke-opacity:1"
       d="m 347.03516,54.363281 0.32031,-0.04687 0.23437,-0.195312 0.20703,-0.308594 0.23438,-0.265625 0.11719,-0.351563 v -0.308593 l 0.0898,-0.328125 0.17578,-0.351563 -0.0898,-0.355469 -0.11719,-0.371093 v -0.398438 l -0.0273,-0.394531 -0.0586,-0.375 -0.14843,-0.332031 -0.17579,-0.328125 -0.14843,-0.308594 -0.11719,-0.285156 -0.20313,-0.242188 -0.23437,-0.265625 -0.23828,-0.261719 -0.32031,-0.15625 -0.32422,-0.06641 -0.0859,0.308594 v 0.375 l 0.0273,0.308594 0.0586,0.375 0.0312,0.394531 0.0586,0.460937 0.11719,0.75 0.0859,0.417969 0.11718,0.394531 0.0899,0.375 0.0273,0.398438 0.0898,0.394531 0.0586,0.417969 0.11719,0.394531 0.11718,0.398438 0.20703,0.460937 0.11719,0.441406 v 0.8125 l 0.0586,0.417969 0.0859,0.375 0.0312,0.375 v 0.703125 l -0.0312,0.332032 -0.0273,0.328124 -0.0312,0.308594 -0.0273,0.417969 -0.0586,0.332031 -0.17578,0.328125 -0.11719,0.332031 -0.17578,0.285157 -0.32422,0.152343 -0.32422,0.08984 -0.3789,0.01953 -0.29297,-0.109376 -0.29688,-0.152343 -0.23437,-0.21875 -0.0586,-0.308594 v -0.332031 l 0.11718,-0.285156 0.20703,-0.332032 0.20313,-0.304687 0.17969,-0.332031 0.17578,-0.375 0.20312,-0.242188 0.29297,-0.261719 0.29297,-0.265625 0.26563,-0.308594 0.17578,-0.285156 0.23437,-0.285156 0.23438,-0.289062 0.23437,-0.261719 0.26563,-0.265625 0.26562,-0.261719 0.20311,-0.26562 0.20703,-0.375 0.26172,-0.308594 0.17578,-0.261718 0.20703,-0.265626 0.17578,-0.261718 0.0312,-0.308594 v -0.308594"
       id="path96" />
    <path
       style="fill:none;stroke:#ffffff;stroke-width:0.85;stroke-linecap:round;stroke-linejoin:round;stroke-miterlimit:10;stroke-opacity:1"
       d="m 353.89844,46.375 -0.29297,-0.08984 -0.29297,0.199219 -0.26172,0.195313 -0.14844,0.289062 -0.26562,0.21875 -0.17578,0.265625 -0.0859,0.394531 -0.0898,0.328125 -0.0859,0.398438 -0.0586,0.417969 -0.0312,0.441406 -0.0586,0.4375 -0.0273,0.441406 v 1.011719 l 0.0859,0.351562 v 0.660157 l -0.0273,0.351562 v 0.308594 l 0.0586,0.308594 0.14454,0.375 0.0312,0.351562 v 0.375 l 0.14453,0.351562 0.14843,0.265626 0.0274,-0.332032"
       id="path98" />
    <path
       style="fill:none;stroke:#ffffff;stroke-width:0.85;stroke-linecap:round;stroke-linejoin:round;stroke-miterlimit:10;stroke-opacity:1"
       d="m 355.16016,54.867188 0.11718,-0.285157 0.17578,-0.285156 0.17969,-0.289063 0.20313,-0.285156 0.20703,-0.242187 0.20312,-0.285157 0.29297,-0.285156 0.23828,-0.308594 0.20313,-0.265624 0.23437,-0.242188 0.20703,-0.285156 0.17579,-0.285156 0.23437,-0.21875"
       id="path100" />
    <path
       style="fill:none;stroke:#ffffff;stroke-width:0.85;stroke-linecap:round;stroke-linejoin:round;stroke-miterlimit:10;stroke-opacity:1"
       d="m 355.01562,51.832031 0.26172,0.152344 0.26563,0.175781 0.26562,0.265625 0.29297,0.21875 0.29297,0.265625 0.23438,0.242188 0.23437,0.285156 0.14844,0.265625 0.20312,0.21875 0.17578,0.285156 0.20704,0.265625 0.14453,0.285156 0.23828,0.199219"
       id="path102" />
    <path
       style="fill:none;stroke:#ffffff;stroke-width:0.85;stroke-linecap:round;stroke-linejoin:round;stroke-miterlimit:10;stroke-opacity:1"
       d="m 359.15234,44.480469 0.20703,0.265625 0.17579,0.285156 0.11718,0.308594 0.14453,0.261718 0.14844,0.332032 0.11719,0.351562 0.14453,0.375 0.17969,0.417969 0.11719,0.417969 0.14453,0.285156 0.11718,0.441406 0.0899,0.328125 0.0586,0.351563 0.0859,0.355468 0.0586,0.351563 0.0586,0.328125 0.0586,0.332031 0.0312,0.308594 0.0273,0.328125 0.0312,0.332031 0.0586,0.328125 -0.0312,0.308594 -0.0274,0.394531 v 0.398438 l 0.0274,0.394531 v 0.398438 l -0.11719,0.351562 -0.11719,0.328125 0.0312,0.308594 -0.0898,0.375 -0.0859,0.328125 -0.14844,0.265625 -0.20312,0.21875"
       id="path104" />
    <path
       style="fill:none;stroke:#ffffff;stroke-width:0.85;stroke-linecap:round;stroke-linejoin:round;stroke-miterlimit:10;stroke-opacity:1"
       d="m 365.375,47.453125 0.11719,0.328125 0.14453,0.351562 0.11719,0.398438 0.14843,0.371094 0.20313,0.417968 0.11719,0.421876 0.14843,0.261718 0.17578,0.441406 0.0899,0.308594 0.0859,0.308594 0.17578,0.328125 0.14843,0.308594 0.11719,0.285156 0.11719,0.417969 0.11719,0.285156 0.11718,0.421875 0.14454,0.351563 0.12109,0.328124 0.11719,0.308594 0.0586,0.351563 0.0586,0.308593 0.11719,0.285157 0.0859,-0.308594 V 54.40625 l 0.0312,-0.308594 0.11719,-0.375 0.0273,-0.351562 0.0312,-0.375 0.11719,-0.308594 0.0859,-0.328125 0.14843,-0.332031 0.14453,-0.371094 0.0899,-0.398438 0.0898,-0.394531 0.11719,-0.285156 0.17578,-0.417969 0.14453,-0.398437 0.0899,-0.394531 0.11718,-0.398438 0.17578,-0.261719 0.14454,-0.375 0.11718,-0.308593 0.14844,-0.265626 0.17578,-0.328124 0.17578,-0.285157 0.20703,-0.289062 0.0859,-0.304688 0.20703,-0.265625"
       id="path106" />
    <path
       style="fill:none;stroke:#ffffff;stroke-width:0.85;stroke-linecap:round;stroke-linejoin:round;stroke-miterlimit:10;stroke-opacity:1"
       d="m 366.39844,50.730469 0.32422,-0.02344 0.29296,-0.06641 0.29297,-0.0625 0.32422,-0.06641 0.32422,-0.08984 0.32031,-0.08594 0.29297,-0.113282 0.35156,-0.0625"
       id="path108" />
    <path
       style="fill:none;stroke:#ffffff;stroke-width:0.85;stroke-linecap:round;stroke-linejoin:round;stroke-miterlimit:10;stroke-opacity:1"
       d="m 372.64844,55.769531 0.14843,-0.285156 0.14844,-0.265625 0.20313,-0.261719 0.17578,-0.332031 0.20703,-0.261719 0.20312,-0.222656 0.20704,-0.308594 0.23437,-0.21875 0.20703,-0.21875 0.26172,-0.222656 0.20703,-0.21875 0.23438,-0.21875 0.26562,-0.242187 0.32031,-0.242188 0.29297,-0.175781 0.26563,-0.175781"
       id="path110" />
    <path
       style="fill:none;stroke:#ffffff;stroke-width:0.85;stroke-linecap:round;stroke-linejoin:round;stroke-miterlimit:10;stroke-opacity:1"
       d="m 372.26953,52.886719 0.29297,0.08984 0.32422,0.152344 0.26172,0.15625 0.29297,0.175782 0.23437,0.195312 0.53125,0.398438 0.23438,0.195312 0.20312,0.222656 0.26563,0.285156 0.20312,0.21875 0.20703,0.265626 0.29297,0.265624 0.14844,0.285157 0.29297,0.109375 -0.23438,-0.21875"
       id="path112" />
    <path
       style="fill:none;stroke:#ffffff;stroke-width:0.85;stroke-linecap:round;stroke-linejoin:round;stroke-miterlimit:10;stroke-opacity:1"
       d="m 383.21484,52.140625 -0.14843,-0.265625 -0.23438,-0.199219 -0.29297,-0.109375 -0.32422,-0.04297 -0.35156,0.01953 -0.32031,0.06641 -0.26563,0.15625 -0.32422,0.152344 -0.29296,0.199219 -0.20313,0.21875 -0.26562,0.265624 -0.17579,0.285157 -0.20703,0.308593 -0.0586,0.332032 -0.0859,0.328125 -0.0898,0.332031 -0.0859,0.304688 0.0859,0.332031 0.0898,0.328125 0.0586,0.308594 0.20312,0.222656 0.29688,0.21875 0.32031,0.175781 0.35156,0.08984 0.38281,-0.02344 0.32422,-0.04297 0.32031,-0.04687 0.29297,-0.0625 0.29688,-0.08984 0.58594,-0.265625"
       id="path114" />
    <path
       style="fill:none;stroke:#ffffff;stroke-width:0.85;stroke-linecap:round;stroke-linejoin:round;stroke-miterlimit:10;stroke-opacity:1"
       d="m 380.28125,54.691406 0.32031,-0.08594 0.35156,-0.132813 0.29297,-0.08984 0.35547,-0.08594 0.35156,-0.06641 0.35157,-0.02344 0.29297,0.06641"
       id="path116" />
    <path
       style="fill:none;stroke:#ffffff;stroke-width:0.85;stroke-linecap:round;stroke-linejoin:round;stroke-miterlimit:10;stroke-opacity:1"
       d="m 397.97266,50.578125 -0.17579,0.261719 -0.14453,0.265625 -0.0312,0.308593 -0.0859,0.328126 0.0273,0.332031 0.0898,0.371093 v 0.332032 l 0.11719,0.351562 0.17578,0.265625 0.17578,0.261719 0.20313,0.308594 0.26562,0.175781 0.26563,0.15625 0.35156,0.08594 h 0.35156 l 0.26563,-0.152343 0.26172,-0.175781 0.17578,-0.285157 0.26562,-0.265625 0.20313,-0.242187 0.14844,-0.285157 0.0898,-0.308593 0.14453,-0.285157 0.20703,-0.289062 0.11719,-0.394531 0.0586,-0.308594 0.0859,-0.394531 0.0898,-0.375 v -0.96875 l -0.0586,-0.308594 -0.11719,0.308594"
       id="path118" />
    <path
       style="fill:none;stroke:#2ec27d;stroke-width:0.85;stroke-linecap:round;stroke-linejoin:round;stroke-miterlimit:10;stroke-opacity:1"
       d="m 405.80859,55.066406 -0.20703,-0.21875 -0.14453,-0.265625 v -0.308593 l -0.0898,-0.308594 v -0.351563 l 0.0898,-0.351562 -0.0586,-0.332031 0.0586,-0.371094 0.0586,-0.398438 0.0859,-0.308594 0.0312,-0.371093 0.14453,-0.417969 0.1211,-0.398438 0.0859,-0.375 0.17579,-0.351562 0.14843,-0.328125 0.11719,-0.308594 0.17578,-0.285156 0.20313,-0.242187 0.23828,-0.289063 0.26172,-0.195313 L 407.53906,48 l 0.26563,-0.152344 0.29297,-0.152344 0.29296,-0.113281 0.38282,-0.04297 0.32031,0.04297 0.32422,0.08984 0.26562,0.175781 0.26172,0.21875 0.17578,0.265625 0.17578,0.351563 0.0586,0.332031 0.0312,0.351563 0.0586,0.394531 0.0859,0.417969 0.0312,0.308593 -0.0312,0.308594 -0.0586,0.308594 -0.0274,0.308593 0.0274,0.4375 0.0312,0.417969 -0.0312,0.417969 -0.0859,0.421875 -0.0312,0.371094 -0.0274,0.332031 -0.0312,0.328125 v 0.351563 l -0.0586,0.308593"
       id="path120" />
    <path
       style="fill:none;stroke:#2ec27d;stroke-width:0.85;stroke-linecap:round;stroke-linejoin:round;stroke-miterlimit:10;stroke-opacity:1"
       d="m 406.04297,52.445312 0.32422,-0.04297 0.32031,-0.01953 0.35547,-0.02344 h 0.70312 l 0.32032,0.02344 h 0.32421 l 0.35157,0.01953 0.32422,0.02344 0.35156,0.01953 0.32422,0.02344"
       id="path122" />
    <path
       style="fill:none;stroke:#ffffff;stroke-width:0.85;stroke-linecap:round;stroke-linejoin:round;stroke-miterlimit:10;stroke-opacity:1"
       d="m 413.46875,49.035156 0.29297,0.15625 0.29297,0.109375 0.20312,0.242188 0.20703,0.21875 0.23438,0.21875 0.26562,0.222656 0.20313,0.308594 0.20703,0.242187 0.20312,0.394532 0.23829,0.265624 0.17578,0.261719 0.20312,0.265625 0.26563,0.285156 0.29297,0.265626 0.23437,0.285156 0.17578,0.265625 0.17578,0.261719 0.17578,0.265624 0.23438,0.242188 0.20703,0.242188 0.23438,0.242187 0.23437,0.375 0.14844,0.328125 0.20312,0.285156 0.23438,0.199219 0.17578,0.265625 -0.11719,-0.308594"
       id="path124" />
    <path
       style="fill:none;stroke:#ffffff;stroke-width:0.85;stroke-linecap:round;stroke-linejoin:round;stroke-miterlimit:10;stroke-opacity:1"
       d="m 426.17187,46.175781 -0.29296,-0.08984 -0.32032,-0.109376 h -0.35547 l -0.29296,0.06641 -0.32032,0.08984 -0.26562,0.175782 -0.23438,0.21875 -0.11718,0.308594 -0.0586,0.328124 0.0274,0.332032 v 0.351562 l 0.0312,0.375 0.0586,0.351563 v 0.308593 l -0.0586,0.351563 V 49.5625 l -0.0586,0.332031 -0.14844,0.328125 -0.23437,0.265625 -0.20313,0.21875 -0.26562,0.175781 -0.32422,0.04688 -0.35156,0.01953 -0.29297,-0.109375 0.32422,0.15625 0.23437,0.21875 0.29297,0.21875 0.29297,0.222656 0.14844,0.285156 0.14453,0.265625 0.14844,0.304688 0.0586,0.355469 v 0.351562 l 0.0273,0.328125 0.0312,0.332031 0.0586,0.308594 v 0.328125 l 0.0859,0.351563 0.0898,0.332031 0.14453,0.285156 0.20703,0.21875 0.17578,0.265625 0.29297,0.132812 0.29297,0.06641"
       id="path126" />
    <path
       style="fill:none;stroke:#ffffff;stroke-width:0.85;stroke-linecap:round;stroke-linejoin:round;stroke-miterlimit:10;stroke-opacity:1"
       d="m 429.13672,53.8125 0.17578,-0.265625 0.26562,-0.152344 0.17579,-0.332031 0.26171,-0.328125 0.23438,-0.308594 0.29687,-0.308593 0.26172,-0.351563 0.23438,-0.222656 0.20703,-0.238281 0.26172,-0.332032 0.26562,-0.308594 0.29297,-0.261718 0.20703,-0.242188 0.29297,-0.222656 0.23438,-0.195312 -0.26563,0.195312 -0.14453,0.265625 -0.23437,0.21875"
       id="path128" />
    <path
       style="fill:none;stroke:#ffffff;stroke-width:0.85;stroke-linecap:round;stroke-linejoin:round;stroke-miterlimit:10;stroke-opacity:1"
       d="m 428.78516,50.464844 0.32031,0.113281 0.26562,0.21875 0.23438,0.265625 0.23437,0.242188 0.23438,0.238281 0.23437,0.308593 0.23828,0.242188 0.26172,0.265625 0.23438,0.285156 0.20703,0.242188 0.23437,0.222656"
       id="path130" />
    <path
       style="fill:none;stroke:#ffffff;stroke-width:0.85;stroke-linecap:round;stroke-linejoin:round;stroke-miterlimit:10;stroke-opacity:1"
       d="m 434.03516,55.199219 0.26562,-0.222657 0.0586,-0.328124 0.0899,-0.308594 0.0859,-0.351563 0.0312,-0.332031 0.0273,-0.328125 0.0312,-0.308594 0.23437,-0.199219 -0.20703,0.265626 v 0.308593 l -0.0586,0.351563 0.0586,0.308594 0.0312,0.308593 v 0.371094 l 0.14453,0.355469 0.0899,0.328125 -0.11719,0.285156 0.14453,0.265625 -0.0273,0.308594 -0.20703,0.242187 -0.32032,0.04297 -0.32421,0.02344 -0.29297,0.109374 0.29297,-0.132812 0.32421,-0.06641 0.35157,-0.06641 0.29297,-0.08594 0.35156,-0.06641 0.32422,-0.02344 h 0.32031 l 0.32422,0.02344"
       id="path132" />
    <path
       style="fill:none;stroke:#ffffff;stroke-width:0.85;stroke-linecap:round;stroke-linejoin:round;stroke-miterlimit:10;stroke-opacity:1"
       d="m 438.90625,45.867188 -0.0859,-0.308594 0.20703,-0.242188 0.32032,-0.04297 0.29296,0.08594 0.32422,0.113281 0.26563,0.175782 0.29297,0.152343 0.32031,0.199219 0.26562,0.242188 0.29297,0.175781 0.29297,0.21875 -0.0273,0.351562 0.20312,0.242188 -0.0273,0.308593 -0.14844,0.265626 -0.23437,0.285156 -0.23438,0.21875 -0.29297,0.265625 -0.20703,0.285156 -0.26172,0.21875 -0.0312,0.332031 -0.20312,0.285156 v 0.351563 l 0.0859,0.308594 -0.11719,0.308593 0.0312,0.308594 0.14453,0.265625 0.11719,0.285157 0.17578,0.261718 0.29297,0.15625 -0.35157,-0.02344 -0.29296,0.06641 -0.26563,0.175781 -0.11719,0.332032 -0.0586,0.328124 0.0586,0.351563 0.0312,0.332031 0.0859,0.328125 0.0312,0.308594 0.0273,0.308594 0.0899,0.351562 -0.0312,0.351563 -0.0274,0.355468 -0.0586,0.328126 -0.17578,0.265624 -0.26563,0.195313 -0.29296,0.132813 -0.32032,0.02344 0.29297,0.06641 0.20313,0.285157"
       id="path134" />
    <path
       style="fill:none;stroke:#ffff00;stroke-width:0.85;stroke-linecap:round;stroke-linejoin:round;stroke-miterlimit:10;stroke-opacity:1"
       d="m 387.26172,50.636719 -0.3086,-0.05469 h -0.30859 l 0.23438,0.199219 0.0351,0.347656 0.0781,0.40625 0.11718,0.289063 0.11329,0.347656 v 0.402344 l 0.11718,0.347656 0.0781,0.316406 0.0742,0.433594 0.0781,0.320313 0.0781,0.75 0.0781,0.375 0.0742,0.378906 0.0391,0.34375 0.0391,0.320312 0.0391,0.347656 0.0391,0.316407 0.11328,-0.289063 0.11719,-0.347656 0.0391,-0.347656 0.15235,-0.402344 0.0781,-0.320312 0.15625,-0.257813 0.15234,-0.347656 0.11719,-0.375 0.11328,-0.375 0.15625,-0.289063 0.19141,-0.289062 0.0391,-0.378906 0.15235,-0.257813 0.19531,-0.230469"
       id="path136" />
    <path
       style="fill:none;stroke:#ffff00;stroke-width:0.85;stroke-linecap:round;stroke-linejoin:round;stroke-miterlimit:10;stroke-opacity:1"
       d="M 391.23437,50.582031 391,50.78125 l -0.26953,0.289062 -0.19141,0.320313 -0.23047,0.257813 -0.26953,0.320312 -0.23047,0.375 -0.11718,0.289062 -0.15625,0.316407 -0.15235,0.320312 -0.15234,0.257813 -0.23438,0.261718 -0.15234,0.375 -0.19531,0.40625 -0.19141,0.257813 -0.26953,0.234375 -0.19141,0.230469 -0.11718,0.316406 -0.23047,0.320313"
       id="path138" />
    <path
       style="fill:none;stroke:#ffffff;stroke-width:0.85;stroke-linecap:round;stroke-linejoin:round;stroke-miterlimit:10;stroke-opacity:1"
       d="m 184.91406,27.164062 -0.26953,-0.171874 0.30859,0.08594 0.3086,-0.257813 0.34765,-0.203124 0.34375,-0.144532 0.27344,-0.375 0.23047,-0.378906 0.61719,-0.578125 0.26953,-0.289063 0.15234,-0.316406 0.15625,-0.375 0.15235,-0.375 0.15625,-0.433594 0.1914,-0.320312 0.11328,-0.289062 0.0781,-0.347657 0.0391,-0.34375 0.0781,-0.378906 0.0391,-0.34375 0.0391,-0.320313 -0.0391,-0.375 -0.0391,-0.433593 -0.19532,-0.375 -0.0742,-0.40625 -0.0391,-0.347657 -0.1914,-0.257812 -0.3086,-0.175781 -0.26953,-0.230469 -0.23437,-0.230469 -0.3086,-0.08594 -0.30859,-0.05859 -0.30469,0.144531 -0.27344,0.203125 -0.15234,0.289063 -0.0781,0.316406 -0.11329,0.40625 -0.11718,0.433594 v 0.78125 l 0.0391,0.433593 0.0391,0.460938 v 0.519531 l -0.0391,0.550781 0.0781,0.546876 0.11329,0.320312 0.11718,0.578125 0.0781,0.605469 0.0352,0.347656 v 0.316406 l -0.0352,0.609375 -0.0781,0.636719 0.0781,0.605469 0.0742,0.316406 0.0781,0.320313 v 0.347656 l 0.0781,0.316406 -0.0391,0.578125 -0.15625,0.550781 v 0.488282 l -0.11328,0.492187 -0.11718,0.464844 -0.0742,0.460937 -0.11719,0.433594 -0.11719,0.460938 -0.15234,0.40625 -0.11719,0.316406 -0.11328,0.40625 -0.11719,0.316406 -0.1914,0.261719 -0.15625,0.261719 -0.15235,0.257812 -0.26953,0.144531 L 183.98828,35 l -0.34766,0.144531 -0.30468,-0.03125 -0.23438,-0.199219 -0.26953,-0.261718 -0.11328,-0.289063 v -0.347656 l 0.0391,-0.347656 0.0742,-0.433594 0.11719,-0.289063 0.11328,-0.289062 0.11719,-0.289062 0.1914,-0.316407 0.26953,-0.375 0.23438,-0.320312 0.23047,-0.316407 0.23047,-0.347656 0.30859,-0.347656 0.26953,-0.34375 0.26953,-0.347656 0.23047,-0.347656 0.26953,-0.316407 0.34766,-0.378906 0.23047,-0.199219 0.38672,-0.378906 0.38672,-0.316406 0.23046,-0.375 0.23047,-0.320313 0.19141,-0.289062 0.23437,-0.289063 0.26954,-0.257812 0.26953,-0.203125 0.23047,-0.230469 0.23046,-0.261719 0.19532,-0.230469 0.11328,-0.289062"
       id="path140" />
    <path
       style="fill:none;stroke:#ffffff;stroke-width:0.85;stroke-linecap:round;stroke-linejoin:round;stroke-miterlimit:10;stroke-opacity:1"
       d="m 195.47656,28.003906 v 0"
       id="path142" />
    <path
       style="fill:none;stroke:#ffffff;stroke-width:0.85;stroke-linecap:round;stroke-linejoin:round;stroke-miterlimit:10;stroke-opacity:1"
       d="m 195.55078,24.101562 -0.23047,-0.230468 -0.11328,-0.289063 v -0.320312"
       id="path144" />
    <path
       style="fill:none;stroke:#2ec27d;stroke-width:0.85;stroke-linecap:round;stroke-linejoin:round;stroke-miterlimit:10;stroke-opacity:1"
       d="m 202.52734,30.054688 -0.26953,-0.144532 -0.23047,-0.289062 0.0391,-0.34375 -0.15625,-0.261719 -0.0391,-0.316406 0.11719,-0.320313 V 26.875 l 0.0391,-0.460938 0.0781,-0.695312 v -0.402344 l 0.0742,-0.464844 0.11718,-0.433593 0.0781,-0.460938 0.15234,-0.40625 0.0781,-0.34375 0.0781,-0.378906 0.11328,-0.402344 0.15625,-0.320312 0.15235,-0.289063 0.23047,-0.289062 0.15625,-0.34375 0.0391,-0.378906 0.15234,-0.257813 0.3086,-0.203125 0.30859,-0.261719 0.26953,-0.257812 0.23047,-0.289063 0.26953,-0.175781 h 0.34766 l 0.30859,-0.02734 0.34766,0.08594 0.34765,0.203125 0.23047,0.261718 0.19141,0.289063 0.15625,0.257813 0.19141,0.320312 0.15625,0.257812 0.11328,0.289063 0.11718,0.320313 V 21.9336 l 0.0781,0.347656 0.11328,0.316406 0.15625,0.433594 0.0742,0.40625 -0.0391,0.375 -0.0352,0.40625 -0.11719,0.375 v 0.347656 l 0.0781,0.34375 0.0391,0.378906 v 0.375 l -0.11719,0.316407 v 0.375 l -0.11718,0.347656 v 0.375 l -0.0742,0.320313 -0.0391,0.316406 -0.0781,0.347656 -0.0391,0.316406 -0.3086,0.05859"
       id="path146" />
    <path
       style="fill:none;stroke:#2ec27d;stroke-width:0.85;stroke-linecap:round;stroke-linejoin:round;stroke-miterlimit:10;stroke-opacity:1"
       d="m 203.18359,25.199219 0.3086,-0.08594 0.30859,0.02734 0.30859,0.05859 0.34766,0.03125 h 0.30859 l 0.38282,0.02734 0.34765,0.05859 h 0.34766 l 0.34766,-0.08594 0.30859,0.08594"
       id="path148" />
    <path
       style="fill:none;stroke:#ffffff;stroke-width:0.85;stroke-linecap:round;stroke-linejoin:round;stroke-miterlimit:10;stroke-opacity:1"
       d="m 215.40234,26.675781 -0.30859,-0.05859 0.30859,-0.117188 0.34766,-0.05859 0.38281,-0.02734 h 0.34766 l 0.30859,-0.05859 0.38672,-0.02734 0.38281,0.02734 h 0.38672 l 0.38672,-0.05859 0.38281,-0.08594 0.38672,-0.08594 h 0.76953 l 0.34766,-0.05859 0.34766,-0.02734 0.42187,-0.05859 h 0.65625 l 0.30859,-0.02734 0.3086,-0.05859 -0.3086,0.144531 -0.34765,0.144532 -0.23047,0.203125 -0.30859,0.113281 -0.3086,0.144531 -0.30859,0.203125 -0.23047,0.261719 -0.26953,0.171875 -0.34766,0.117188 -0.11328,0.289062 0.34375,-0.05859 0.27344,-0.175781 0.34375,-0.144531 0.26953,-0.144532 0.19531,-0.257812 0.23047,-0.203125 0.34766,-0.117187 0.26953,-0.144532 0.15234,-0.316406 0.3086,-0.230469 0.30859,-0.144531 0.11719,-0.320312 0.0391,-0.316407 -0.15625,-0.375 -0.0781,-0.320312 -0.30859,-0.230469 -0.11328,-0.289062 -0.34766,-0.08594 -0.1914,-0.230469 -0.3086,-0.117187 -0.26953,-0.144532 0.15235,0.289063"
       id="path150" />
    <path
       style="fill:none;stroke:#ffffff;stroke-width:0.85;stroke-linecap:round;stroke-linejoin:round;stroke-miterlimit:10;stroke-opacity:1"
       d="m 230.82031,19.5625 0.0352,0.320312 -0.0742,0.34375 -0.0391,0.347657 0.0391,0.433593 0.0391,0.40625 v 0.78125 l -0.0391,0.433594 0.0391,0.433594 v 1.53125 l 0.0352,0.375 -0.0352,0.460938 -0.0781,0.347656 -0.0781,0.320312 0.0391,0.34375 0.0391,0.40625 -0.0781,0.316406 0.0391,0.320313"
       id="path152" />
    <path
       style="fill:none;stroke:#ffffff;stroke-width:0.85;stroke-linecap:round;stroke-linejoin:round;stroke-miterlimit:10;stroke-opacity:1"
       d="m 233.47656,18.898438 -0.34375,-0.08594 0.11328,0.316406 0.0781,0.375 v 0.78125 l 0.0391,0.464844 0.0391,0.402344 v 0.375 l 0.0352,0.464844 0.0391,0.433593 v 1.097657 l -0.0742,0.375 v 0.433593 l 0.0742,0.375 v 1.070313 l -0.0742,0.320312 V 26.5 l 0.0352,0.347656 v 0.722656 l -0.0352,0.316407"
       id="path154" />
    <path
       style="fill:none;stroke:#ffffff;stroke-width:0.85;stroke-linecap:round;stroke-linejoin:round;stroke-miterlimit:10;stroke-opacity:1"
       d="m 231.58984,19.476562 -0.0781,-0.316406 0.11719,-0.320312 0.23046,-0.203125 0.15235,-0.316407 0.30859,-0.203124 0.23438,-0.289063 0.26953,-0.203125 0.30859,-0.171875 0.34375,-0.144531 0.34766,-0.08594 0.38672,0.08594 0.30859,0.02734 0.34766,0.117187 0.34375,0.117187 0.34765,0.171876 0.23047,0.203124 0.23438,0.316407 0.26953,0.320312 0.23047,0.230469 0.26953,0.289062 0.15234,0.375 0.11719,0.289063 0.0781,0.40625 0.0742,0.402344 0.0391,0.320312 -0.0742,0.402344 -0.11719,0.289063 -0.15234,0.40625 -0.19532,0.375 -0.15234,0.347656 -0.19531,0.316406 -0.19141,0.230469 -0.26953,0.289062 -0.19141,0.289063 -0.26953,0.261718 -0.26953,0.171876 -0.38672,0.144531 -0.30859,0.234375 -0.3086,0.199218 -0.46093,0.08984 -0.3086,0.02734 h 0.3086 l 0.34375,0.171875 0.38672,0.117187 0.38671,0.144532 0.3086,0.230468 0.26953,0.203126 0.34375,0.144531 0.61719,0.40625 0.30859,0.199219 0.26953,0.261718 0.19531,0.261719 0.23047,0.230469 0.26953,0.257812 0.34766,0.203125 0.23047,0.320313 0.19141,0.34375 0.15625,0.347656 0.1914,0.261719 0.15625,0.257812 0.11328,0.320313 0.19532,0.257812 -0.23438,-0.199218"
       id="path156" />
  </g>
</svg>
